<svg width="20" height="20" viewBox="0 0 20 20" version="1.1" xmlns="http://www.w3.org/2000/svg" xmlns:xlink="http://www.w3.org/1999/xlink">
<title>icon-meds</title>
<desc>Created using Figma</desc>
<g id="Canvas" transform="translate(1445 1558)">
<g id="icon-meds">
<g id="Vector">
<use xlink:href="#path0_fill" transform="translate(-1445 -1558)" fill="#E64A35"/>
</g>
</g>
</g>
<defs>
<path id="path0_fill" d="M 13.7905 3.68644e-11C 12.2012 5.50004e-06 10.597 0.615325 9.38944 1.82292L 1.81132 9.40104C -0.603677 11.817 -0.603867 15.7619 1.81132 18.1771C 4.22727 20.5921 8.17217 20.5923 10.5874 18.1771L 18.1655 10.599C 20.5805 8.183 20.5807 4.2381 18.1655 1.82292C 16.9575 0.61542 15.3797 -5.49996e-06 13.7905 3.68644e-11ZM 13.7905 1.66667C 14.9498 1.66667 16.1041 2.10562 16.9936 2.99479C 18.7718 4.77294 18.7719 7.622 16.9936 9.40104L 13.7905 12.6042L 7.38423 6.19792L 10.379 3.20312L 10.5874 2.99479C 11.4764 2.10572 12.6312 1.66666 13.7905 1.66667ZM 6.18632 7.39583L 12.5926 13.8021L 9.38944 17.0052C 7.61129 18.7834 4.76224 18.7835 2.98319 17.0052C 1.20504 15.2271 1.20485 12.378 2.98319 10.599L 6.18632 7.39583Z"/>
</defs>
</svg>
