<svg width="21" height="20" viewBox="0 0 21 20" fill="none" xmlns="http://www.w3.org/2000/svg">
<path d="M11.25 6.66667V5.92593H12.75V6.66667H12H11.25ZM11.7572 14.8148H2.25V12.5926H1.5V17.037H0V11.1111H2.25V0L3.28125 0.37037L5.97656 1.41204L8.67188 0.162037L9 0L9.32812 0.162037L12.0469 1.41204L14.7422 0.393519L15.75 0.0231481V6.66667H14.25V2.15278L12.2578 2.91667L11.9766 3.03241L11.6719 2.89352L9 1.66667L6.32812 2.89352L6.02344 3.03241L5.71875 2.91667L3.75 2.15278V13.3333H11.7572C11.8866 13.5867 12.042 13.8331 12.225 14.0741C12.042 14.3151 11.8866 14.5615 11.7572 14.8148ZM5.25 8.88889H9.75V10.3704H5.25V8.88889ZM9.75 5.92593V7.40741H5.25V5.92593H9.75Z" fill="#E74A37"/>
<path d="M8.25 2.96296V1.48148H9V0H8.25H0.75H0V1.48148H0.75V2.96296C0.75 4.14815 1.35 5.25926 2.25 5.92593C1.35 6.59259 0.75 7.7037 0.75 8.88889V10.3704H0V11.8519H0.75H8.25H9V10.3704H8.25V8.88889C8.25 7.7037 7.65 6.59259 6.75 5.92593C7.65 5.25926 8.25 4.14815 8.25 2.96296ZM6.75 8.88889V10.3704H6C6 9.55556 5.325 8.88889 4.5 8.88889C3.675 8.88889 3 9.55556 3 10.3704H2.25V8.88889C2.25 7.62963 3.225 6.66667 4.5 6.66667C5.775 6.66667 6.75 7.62963 6.75 8.88889ZM6.75 2.96296C6.75 4.22222 5.775 5.18518 4.5 5.18518C3.225 5.18518 2.25 4.22222 2.25 2.96296V1.48148H6.75V2.96296ZM3 2.96296H6C6 2.96296 6 4.44444 4.5 4.44444C3 4.44444 3 2.96296 3 2.96296Z" transform="translate(12 8.14795)" fill="#E74A37"/>
</svg>
