<svg width="44" height="45" viewBox="0 0 44 45" version="1.1" xmlns="http://www.w3.org/2000/svg" xmlns:xlink="http://www.w3.org/1999/xlink">
<title>icon-appoinments-sm</title>
<desc>Created using Figma</desc>
<g id="Canvas" transform="translate(1625 1593)">
<g id="icon-appoinments-sm">
<g id="Group">
<mask id="mask0_alpha" mask-type="alpha">
<g id="icon appoinments sm b">
<g id="Vector">
<use xlink:href="#path0_fill" transform="translate(-1625 -1593)" fill="#FFFFFF"/>
</g>
</g>
</mask>
<g id="Vector" mask="url(#mask0_alpha)">
<use xlink:href="#path0_fill" transform="translate(-1625 -1593)" fill="#99C13D"/>
</g>
<g id="Group" mask="url(#mask0_alpha)">
<g id="Vector">
<use xlink:href="#path1_fill" transform="translate(-1626 -1593)" fill="#E64A35"/>
</g>
</g>
</g>
</g>
</g>
<defs>
<path id="path0_fill" d="M 7.82609 0L 7.82609 1.95652L 1.95652 1.95652L 0 1.95652L 0 3.91304L 0 43.0435L 0 45L 1.95652 45L 41.087 45L 43.0435 45L 43.0435 43.0435L 43.0435 3.91304L 43.0435 1.95652L 41.087 1.95652L 35.2174 1.95652L 35.2174 0L 31.3043 0L 31.3043 1.95652L 11.7391 1.95652L 11.7391 0L 7.82609 0ZM 3.91304 5.86957L 7.82609 5.86957L 7.82609 7.82609L 11.7391 7.82609L 11.7391 5.86957L 31.3043 5.86957L 31.3043 7.82609L 35.2174 7.82609L 35.2174 5.86957L 39.1304 5.86957L 39.1304 9.78261L 3.91304 9.78261L 3.91304 5.86957ZM 3.91304 13.6957L 39.1304 13.6957L 39.1304 41.087L 3.91304 41.087L 3.91304 13.6957ZM 15.6522 17.6087L 15.6522 21.5217L 19.5652 21.5217L 19.5652 17.6087L 15.6522 17.6087ZM 23.4783 17.6087L 23.4783 21.5217L 27.3913 21.5217L 27.3913 17.6087L 23.4783 17.6087ZM 31.3043 17.6087L 31.3043 21.5217L 35.2174 21.5217L 35.2174 17.6087L 31.3043 17.6087ZM 7.82609 25.4348L 7.82609 29.3478L 11.7391 29.3478L 11.7391 25.4348L 7.82609 25.4348ZM 15.6522 25.4348L 15.6522 29.3478L 19.5652 29.3478L 19.5652 25.4348L 15.6522 25.4348ZM 23.4783 25.4348L 23.4783 29.3478L 27.3913 29.3478L 27.3913 25.4348L 23.4783 25.4348ZM 31.3043 25.4348L 31.3043 29.3478L 35.2174 29.3478L 35.2174 25.4348L 31.3043 25.4348ZM 7.82609 33.2609L 7.82609 37.1739L 11.7391 37.1739L 11.7391 33.2609L 7.82609 33.2609ZM 15.6522 33.2609L 15.6522 37.1739L 19.5652 37.1739L 19.5652 33.2609L 15.6522 33.2609ZM 23.4783 33.2609L 23.4783 37.1739L 27.3913 37.1739L 27.3913 33.2609L 23.4783 33.2609Z"/>
<path id="path1_fill" d="M 45 0L 0 0L 0 45L 45 45L 45 0Z"/>
</defs>
</svg>
