<svg width="19" height="20" viewBox="0 0 19 20" fill="none" xmlns="http://www.w3.org/2000/svg">
<path d="M3.45455 0V0.869565H0V20H19V0.869565H15.5455V0H13.8182V0.869565H5.18182V0H3.45455ZM1.72727 2.6087H3.45455V3.47826H5.18182V2.6087H13.8182V3.47826H15.5455V2.6087H17.2727V4.34783H1.72727V2.6087ZM1.72727 6.08696H17.2727V18.2609H1.72727V6.08696ZM6.90909 7.82609V9.56522H8.63636V7.82609H6.90909ZM10.3636 7.82609V9.56522H12.0909V7.82609H10.3636ZM13.8182 7.82609V9.56522H15.5455V7.82609H13.8182ZM3.45455 11.3043V13.0435H5.18182V11.3043H3.45455ZM6.90909 11.3043V13.0435H8.63636V11.3043H6.90909ZM10.3636 11.3043V13.0435H12.0909V11.3043H10.3636ZM13.8182 11.3043V13.0435H15.5455V11.3043H13.8182ZM3.45455 14.7826V16.5217H5.18182V14.7826H3.45455ZM6.90909 14.7826V16.5217H8.63636V14.7826H6.90909ZM10.3636 14.7826V16.5217H12.0909V14.7826H10.3636Z" fill="#E74A37"/>
</svg>
