<svg width="20" height="15" viewBox="0 0 20 15" version="1.1" xmlns="http://www.w3.org/2000/svg" xmlns:xlink="http://www.w3.org/1999/xlink">
<title>icon-family</title>
<desc>Created using Figma</desc>
<g id="Canvas" transform="translate(1557 1569)">
<g id="icon-family">
<g id="Vector">
<use xlink:href="#path0_fill" transform="translate(-1557 -1569)" fill="#EB5757"/>
</g>
</g>
</g>
<defs>
<path id="path0_fill" d="M 5 0C 3.03601 0 1.42857 1.60744 1.42857 3.57143C 1.42857 4.65404 1.93355 5.61591 2.70089 6.27232C 1.10335 7.11012 0 8.79676 0 10.7143L 1.42857 10.7143C 1.42857 8.74675 3.03247 7.14286 5 7.14286C 5.98796 7.14286 6.78568 7.48271 7.41071 8.10268C 7.24442 8.46407 7.14286 8.86416 7.14286 9.28571C 7.14286 10.0816 7.48233 10.7972 8.01339 11.317C 7.06283 11.9611 6.42857 13.0601 6.42857 14.2857L 7.85714 14.2857C 7.85714 13.1039 8.81818 12.1429 10 12.1429C 11.1818 12.1429 12.1429 13.1039 12.1429 14.2857L 13.5714 14.2857C 13.5714 13.0601 12.9372 11.9611 11.9866 11.317C 12.5177 10.7972 12.8571 10.0816 12.8571 9.28571C 12.8571 8.86416 12.7556 8.46407 12.5893 8.10268C 13.2143 7.48271 14.012 7.14286 15 7.14286C 16.9675 7.14286 18.5714 8.74675 18.5714 10.7143L 20 10.7143C 20 8.79676 18.8966 7.11012 17.2991 6.27232C 18.0664 5.61591 18.5714 4.65404 18.5714 3.57143C 18.5714 1.60744 16.964 0 15 0C 13.036 0 11.4286 1.60744 11.4286 3.57143C 11.4286 4.65404 11.9336 5.61591 12.7009 6.27232C 12.334 6.46619 12.0024 6.72616 11.6964 7.00893C 11.2187 6.6498 10.6391 6.42857 10 6.42857C 9.36088 6.42857 8.7813 6.6498 8.30357 7.00893C 7.99764 6.72616 7.66603 6.46619 7.29911 6.27232C 8.06645 5.61591 8.57143 4.65404 8.57143 3.57143C 8.57143 1.60744 6.96398 0 5 0ZM 5 1.42857C 6.19193 1.42857 7.14286 2.3795 7.14286 3.57143C 7.14286 4.76336 6.19193 5.71429 5 5.71429C 3.80807 5.71429 2.85714 4.76336 2.85714 3.57143C 2.85714 2.3795 3.80807 1.42857 5 1.42857ZM 15 1.42857C 16.1919 1.42857 17.1429 2.3795 17.1429 3.57143C 17.1429 4.76336 16.1919 5.71429 15 5.71429C 13.8081 5.71429 12.8571 4.76336 12.8571 3.57143C 12.8571 2.3795 13.8081 1.42857 15 1.42857ZM 10 7.85714C 10.7974 7.85714 11.4286 8.48828 11.4286 9.28571C 11.4286 10.0832 10.7974 10.7143 10 10.7143C 9.20256 10.7143 8.57143 10.0832 8.57143 9.28571C 8.57143 8.48828 9.20256 7.85714 10 7.85714Z"/>
</defs>
</svg>
