<svg width="20" height="20" viewBox="0 0 20 20" version="1.1" xmlns="http://www.w3.org/2000/svg" xmlns:xlink="http://www.w3.org/1999/xlink">
<title>icon-goal</title>
<desc>Created using Figma</desc>
<g id="Canvas" transform="translate(1397 1589)">
<g id="icon-goal">
<g id="surface1">
<g id="Vector">
<use xlink:href="#path0_fill" transform="translate(-1397 -1589)" fill="#E64A35"/>
</g>
</g>
</g>
</g>
<defs>
<path id="path0_fill" d="M 10 0C 4.48618 0 0 4.48618 0 10C 0 15.5138 4.48618 20 10 20C 15.5138 20 20 15.5138 20 10C 20 8.07692 19.4531 6.28606 18.5096 4.75962L 17.3798 5.88942C 18.0649 7.10938 18.4615 8.50361 18.4615 10C 18.4615 14.6665 14.6665 18.4615 10 18.4615C 5.33353 18.4615 1.53846 14.6665 1.53846 10C 1.53846 5.33353 5.33353 1.53846 10 1.53846C 11.4964 1.53846 12.8906 1.9351 14.1106 2.62019L 15.2404 1.49038C 13.7139 0.546875 11.9231 0 10 0ZM 18.6779 0.216346L 9.44712 9.44712C 9.30889 9.58534 9.23077 9.78666 9.23077 10C 9.23077 10.4237 9.57632 10.7692 10 10.7692C 10.2133 10.7692 10.4147 10.6911 10.5529 10.5529L 19.7837 1.32212L 18.6779 0.216346ZM 10 3.07692C 6.18389 3.07692 3.07692 6.18389 3.07692 10C 3.07692 13.8161 6.18389 16.9231 10 16.9231C 13.8161 16.9231 16.9231 13.8161 16.9231 10C 16.9231 8.93329 16.6827 7.92368 16.25 7.01923L 15.0721 8.19712C 15.2734 8.76202 15.3846 9.36599 15.3846 10C 15.3846 12.9688 12.9688 15.3846 10 15.3846C 7.03125 15.3846 4.61538 12.9688 4.61538 10C 4.61538 7.03125 7.03125 4.61538 10 4.61538C 10.634 4.61538 11.238 4.72656 11.8029 4.92788L 12.9808 3.75C 12.0763 3.31731 11.0667 3.07692 10 3.07692ZM 10 6.15385C 7.87861 6.15385 6.15385 7.87861 6.15385 10C 6.15385 12.1214 7.87861 13.8462 10 13.8462C 12.1214 13.8462 13.8462 12.1214 13.8462 10C 13.8462 9.81971 13.8221 9.64543 13.7981 9.47115L 11.6346 11.6346C 11.4303 11.8389 11.1929 12.0012 10.9375 12.1154C 10.9255 12.1214 10.9014 12.1094 10.8894 12.1154C 10.7752 12.1635 10.6731 12.2055 10.5529 12.2356C 10.5258 12.2416 10.4838 12.2536 10.4567 12.2596C 10.3065 12.2897 10.1562 12.3077 10 12.3077C 9.68149 12.3077 9.38702 12.2326 9.11058 12.1154C 8.28425 11.7638 7.69231 10.9555 7.69231 10C 7.69231 9.84375 7.71034 9.69351 7.74038 9.54327C 7.74639 9.51623 7.75841 9.47416 7.76442 9.44712C 7.79447 9.32692 7.83654 9.22476 7.88462 9.11058C 7.89063 9.09856 7.87861 9.07452 7.88462 9.0625C 7.9988 8.80409 8.16106 8.56971 8.36538 8.36538L 10.5288 6.20192C 10.3546 6.17788 10.1803 6.15385 10 6.15385Z"/>
</defs>
</svg>
