<svg width="21" height="17" viewBox="0 0 21 17" fill="none" xmlns="http://www.w3.org/2000/svg">
<path d="M0 0V11.3333H13.6719C13.3055 10.9211 13.0348 10.4368 12.8516 9.91667H2.73984C2.77812 9.80322 2.8 9.68424 2.8 9.5625C2.8 8.97591 2.32969 8.5 1.75 8.5C1.62969 8.5 1.51211 8.52214 1.4 8.56364V2.76969C1.51211 2.8112 1.62969 2.83333 1.75 2.83333C2.32969 2.83333 2.8 2.35742 2.8 1.77083C2.8 1.64909 2.77812 1.53011 2.73984 1.41667H15.4629C15.4219 1.53011 15.4 1.64909 15.4 1.77083C15.4 2.35742 15.8703 2.83333 16.45 2.83333C16.5703 2.83333 16.6879 2.8112 16.8 2.76969V4.95833H18.2V0H0ZM9.1 2.83333C7.55234 2.83333 6.3 4.10059 6.3 5.66667V6.375H6.44219C6.75664 7.58691 7.80117 8.5 9.1 8.5C9.95039 8.5 10.6914 8.12923 11.2 7.54264V4.95833H11.8043C11.5008 3.72428 10.4262 2.83333 9.1 2.83333ZM9.1 4.25C9.89844 4.25 10.5 4.85872 10.5 5.66667C10.5 6.47461 9.89844 7.08333 9.1 7.08333C8.26602 7.08333 7.7 6.51058 7.7 5.66667C7.7 4.82275 8.26602 4.25 9.1 4.25ZM4.2 4.60417C3.62031 4.60417 3.15 5.08008 3.15 5.66667C3.15 6.25326 3.62031 6.72917 4.2 6.72917C4.77969 6.72917 5.25 6.25326 5.25 5.66667C5.25 5.08008 4.77969 4.60417 4.2 4.60417ZM12.6 5.66667V7.08333H13.3V8.5C13.3 9.63444 13.8605 10.6969 14.7 11.3333C13.8605 11.9697 13.3 13.0322 13.3 14.1667V15.5833H12.6V17H21V15.5833H20.3V14.1667C20.3 13.0322 19.7395 11.9697 18.9 11.3333C19.7395 10.6969 20.3 9.63444 20.3 8.5V7.08333H21V5.66667H12.6ZM14.7 7.08333H18.9V8.5C18.9 9.70361 17.9895 10.625 16.8 10.625C15.6105 10.625 14.7 9.70361 14.7 8.5V7.08333ZM15.4 8.5C15.4 8.5 15.4 9.91667 16.8 9.91667C18.2 9.91667 18.2 8.5 18.2 8.5H15.4ZM16.8 12.0417C17.9895 12.0417 18.9 12.9631 18.9 14.1667V15.5833H18.2C18.2 14.8031 17.5711 14.1667 16.8 14.1667C16.0289 14.1667 15.4 14.8031 15.4 15.5833H14.7V14.1667C14.7 12.9631 15.6105 12.0417 16.8 12.0417Z" fill="#E74A37"/>
</svg>
