<svg width="22" height="21" viewBox="0 0 22 21" fill="none" xmlns="http://www.w3.org/2000/svg">
<path d="M15.5556 7V1.55556H4.66667V10.8889H3.11111V0H17.1111V7H15.5556ZM10.1111 9.33333H9.33333V7.77778H10.1111V8.55556V9.33333ZM10.9387 17.1111H3.11111C1.40061 17.1111 0 15.7105 0 14V11.6667H10.1111H10.8889L10.9387 17.1111ZM10.1111 11.6667H10.8889C10.8889 12.8333 11.2 13.8444 11.9 14.7778C11.3603 15.4974 11.0517 16.2633 10.9387 17.1111L10.1111 11.6667ZM6.22222 4.66667H7.77778V6.22222H6.22222V4.66667ZM1.55556 14C1.55556 14.8689 2.24219 15.5556 3.11111 15.5556H11.3264C11.056 15.0938 10.8889 14.5712 10.8889 14V13.2222H1.55556V14ZM14 4.66667V6.22222H9.33333V4.66667H14ZM7.77778 7.77778V9.33333H6.22222V7.77778H7.77778Z" fill="#E74A37"/>
<path d="M8.55556 3.11111V1.55556H9.33333V0H8.55556H0.777778H0V1.55556H0.777778V3.11111C0.777778 4.35556 1.4 5.52222 2.33333 6.22222C1.4 6.92222 0.777778 8.08889 0.777778 9.33333V10.8889H0V12.4444H0.777778H8.55556H9.33333V10.8889H8.55556V9.33333C8.55556 8.08889 7.93333 6.92222 7 6.22222C7.93333 5.52222 8.55556 4.35556 8.55556 3.11111ZM7 9.33333V10.8889H6.22222C6.22222 10.0333 5.52222 9.33333 4.66667 9.33333C3.81111 9.33333 3.11111 10.0333 3.11111 10.8889H2.33333V9.33333C2.33333 8.01111 3.34444 7 4.66667 7C5.98889 7 7 8.01111 7 9.33333ZM7 3.11111C7 4.43333 5.98889 5.44444 4.66667 5.44444C3.34444 5.44444 2.33333 4.43333 2.33333 3.11111V1.55556H7V3.11111ZM3.11111 3.11111H6.22222C6.22222 3.11111 6.22222 4.66667 4.66667 4.66667C3.11111 4.66667 3.11111 3.11111 3.11111 3.11111Z" transform="translate(11.6699 8.55554)" fill="#E74A37"/>
</svg>
