<svg width="20" height="20" viewBox="0 0 20 20" version="1.1" xmlns="http://www.w3.org/2000/svg" xmlns:xlink="http://www.w3.org/1999/xlink">
<title>icon-neurocore</title>
<desc>Created using Figma</desc>
<g id="Canvas" transform="translate(1453 1516)">
<g id="icon-neurocore">
<g id="neurocore-icon">
<g id="Vector">
<use xlink:href="#path0_fill" transform="translate(-1452 -1516)" fill="#FFFFFF"/>
</g>
</g>
</g>
</g>
<defs>
<path id="path0_fill" d="M 18 19.9437C 17.737 19.962 17.5209 19.9803 17.3049 19.9803C 16.5252 19.9803 15.7362 19.9712 14.9565 19.9895C 14.6371 19.9986 14.4868 19.8797 14.515 19.5685C 14.5244 19.4312 14.515 19.2939 14.515 19.1566C 14.515 15.9077 14.515 12.6587 14.515 9.40966C 14.515 8.40293 14.4399 7.40535 14.0923 6.43522C 13.3784 4.45837 11.913 3.36927 9.79951 3.21368C 8.90713 3.14962 7.96779 3.21368 7.11298 3.42418C 5.16854 3.91839 4.13526 5.30951 3.74073 7.14909C 3.57165 7.93617 3.52468 8.7507 3.52468 9.55609C 3.5059 12.8325 3.5059 16.109 3.52468 19.3946C 3.52468 19.8522 3.41196 20.0169 2.9235 19.9986C 2.11567 19.962 1.29844 19.9803 0.481204 19.9895C 0.152433 19.9986 0.0115315 19.898 0.0115315 19.541C 0.020925 15.7887 -0.0354369 12.0363 0.0397108 8.2931C 0.0866781 5.78542 0.90391 3.52485 2.97047 1.85917C 4.33252 0.760918 5.92941 0.239248 7.65781 0.07451C 9.6774 -0.117684 11.6594 0.0287472 13.5193 0.907349C 15.9804 2.06967 17.3049 4.05568 17.7933 6.61826C 17.9342 7.35043 17.9812 8.1009 17.9812 8.84223C 18 12.3292 17.9906 15.8253 17.9906 19.3214C 18 19.5227 18 19.7149 18 19.9437Z"/>
</defs>
</svg>
