<svg width="278" height="57" viewBox="0 0 278 57" version="1.1" xmlns="http://www.w3.org/2000/svg" xmlns:xlink="http://www.w3.org/1999/xlink">
<g id="Canvas" fill="none">
<g id="Logo">
<g id="Vector">
<path d="M 17.8433 20.3077L 17.8433 4.66154L 17.7497 4.66154L 11.1931 20.1692L 9.03875 20.1692L 2.48214 4.66154L 2.38848 4.66154L 2.38848 20.3077L 7.14613e-07 20.3077L 7.14613e-07 -3.52126e-07L 2.99731 -3.52126e-07L 10.1159 16.9385L 10.2096 16.9385L 17.2345 -3.52126e-07L 20.2318 -3.52126e-07L 20.2318 20.3077L 17.8433 20.3077Z" transform="translate(57.7918 18.3692)" fill="#474747"/>
</g>
<g id="Vector_2">
<path d="M 1.59232 20.4923L 1.59232 18.4154C 1.92015 18.4615 2.29481 18.5077 2.62264 18.5077C 4.02763 18.5077 4.82379 17.8154 5.43262 16.0154L 5.71361 15.1385L 0 0L 2.62264 0L 6.93127 12.6462L 6.9781 12.6462L 11.2867 0L 13.9094 0L 7.96159 16.0615C 6.65027 19.5692 5.43262 20.6308 2.71631 20.6308C 2.34165 20.5846 1.96698 20.5846 1.59232 20.4923Z" transform="translate(80.3184 23.5385)" fill="#474747"/>
</g>
<g id="Vector_3">
<path d="M 17.8433 20.3077L 17.8433 4.66154L 17.7497 4.66154L 11.1931 20.1692L 9.03875 20.1692L 2.48214 4.66154L 2.38848 4.66154L 2.38848 20.3077L 0 20.3077L 0 -3.52126e-07L 2.9973 -3.52126e-07L 10.0222 16.9385L 10.1159 16.9385L 17.2345 -3.52126e-07L 20.2318 -3.52126e-07L 20.2318 20.3077L 17.8433 20.3077Z" transform="translate(96.7099 18.3692)" fill="#474747"/>
</g>
<g id="Vector_4">
<path d="M 13.3942 10.9385C 12.9727 13.5231 10.3032 15.4154 7.02493 15.4154C 2.71631 15.4154 0 12.4615 0 7.75385C 0 3.04615 2.7163 3.52126e-07 6.93126 3.52126e-07C 11.0526 3.52126e-07 13.6284 2.86154 13.6284 7.43077L 13.6284 8.35385L 2.57581 8.35385L 2.57581 8.49231C 2.57581 11.3538 4.35546 13.2462 7.1186 13.2462C 9.03875 13.2462 10.5374 12.3692 11.0057 10.9385L 13.3942 10.9385ZM 2.52897 6.41538L 11.0057 6.41538C 10.9589 3.83077 9.27292 2.12308 6.88444 2.12308C 4.49596 2.12308 2.7163 3.83077 2.52897 6.41538Z" transform="translate(119.892 23.4)" fill="#474747"/>
</g>
<g id="Vector_5">
<path d="M 0 13.6615C 0 9.04615 2.71631 5.95385 6.5566 5.95385C 8.75775 5.95385 10.5374 6.87692 11.4741 8.53846L 11.5209 8.53846L 11.5209 -3.52126e-07L 14.003 -3.52126e-07L 14.003 21.1846L 11.6145 21.1846L 11.6145 18.6462L 11.5677 18.6462C 10.5842 20.4 8.80459 21.3231 6.60344 21.3231C 2.71631 21.3692 0 18.2769 0 13.6615ZM 2.52897 13.6615C 2.52897 17.0308 4.30863 19.2 7.02493 19.2C 9.74124 19.2 11.5209 16.9846 11.5209 13.6615C 11.5209 10.3385 9.69441 8.12308 7.02493 8.12308C 4.35546 8.12308 2.52897 10.2462 2.52897 13.6615Z" transform="translate(135.347 17.4462)" fill="#474747"/>
</g>
<g id="Vector_6">
<path d="M -2.85845e-06 1.56923C -2.85845e-06 0.692307 0.702488 7.04252e-07 1.59231 7.04252e-07C 2.48214 7.04252e-07 3.18464 0.692307 3.18464 1.56923C 3.18464 2.44615 2.48214 3.13846 1.59231 3.13846C 0.702488 3.09231 0.04683 2.4 -2.85845e-06 1.56923ZM 0.327833 5.53846L 2.80997 5.53846L 2.80997 20.7231L 0.327833 20.7231L 0.327833 5.53846Z" transform="translate(152.628 17.9538)" fill="#474747"/>
</g>
<g id="Vector_7">
<path d="M 11.0057 5.07692C 10.6779 3.46154 9.31974 2.16923 7.02493 2.16923C 4.35545 2.16923 2.52898 4.38461 2.52898 7.70769C 2.52898 11.1692 4.40229 13.2462 7.07176 13.2462C 9.22608 13.2462 10.6311 12.2769 11.0526 10.4308L 13.4879 10.4308C 13.0664 13.3846 10.5374 15.4154 7.02493 15.4154C 2.80997 15.4154 -5.7169e-06 12.4615 -5.7169e-06 7.70769C -5.7169e-06 3.04615 2.80997 0 7.02493 0C 10.8184 0 13.16 2.4 13.4879 5.07692L 11.0057 5.07692Z" transform="translate(158.201 23.3077)" fill="#474747"/>
</g>
<g id="Vector_8">
<path d="M 5.7169e-06 10.8923C 5.7169e-06 8.30769 2.01381 6.73846 5.76045 6.55385L 10.0691 6.32308L 10.0691 5.07692C 10.0691 3.18461 8.80459 2.16923 6.55661 2.16923C 4.77696 2.16923 3.46563 3.04615 3.1378 4.52308L 0.74932 4.52308C 0.842986 1.98461 3.32514 -3.52126e-07 6.55661 -3.52126e-07C 10.2096 -3.52126e-07 12.5512 1.89231 12.5512 4.89231L 12.5512 15.2308L 10.2096 15.2308L 10.2096 12.6L 10.1627 12.6C 9.17924 14.3538 7.25909 15.4154 5.19844 15.3692C 2.06064 15.3692 5.7169e-06 13.6154 5.7169e-06 10.8923ZM 10.0691 9.46154L 10.0691 8.21538L 6.04145 8.44615C 3.74663 8.58461 2.52898 9.41539 2.52898 10.8923C 2.52898 12.2769 3.79346 13.2 5.71361 13.2C 8.24259 13.2 10.0691 11.5846 10.0691 9.46154Z" transform="translate(173.375 23.4462)" fill="#474747"/>
</g>
<g id="Vector_9">
<path d="M -2.85845e-06 -3.52126e-07L 2.48215 -3.52126e-07L 2.48215 21.1846L -2.85845e-06 21.1846L -2.85845e-06 -3.52126e-07Z" transform="translate(189.392 17.4462)" fill="#474747"/>
</g>
<g id="Vector_10">
<path d="M 12.5044 20.3077L -5.71691e-06 20.3077L -5.71691e-06 -3.52126e-07L 2.5758 -3.52126e-07L 2.5758 18L 12.5044 18L 12.5044 20.3077Z" transform="translate(195.668 18.3692)" fill="#474747"/>
</g>
<g id="Vector_11">
<path d="M -5.7169e-06 7.70769C -5.7169e-06 3 2.76314 3.52126e-07 7.07176 3.52126e-07C 11.3804 3.52126e-07 14.1435 3 14.1435 7.70769C 14.1435 12.4154 11.3804 15.4154 7.07176 15.4154C 2.76314 15.4154 -5.7169e-06 12.3231 -5.7169e-06 7.70769ZM 11.6614 7.70769C 11.6614 4.2 9.9754 2.16923 7.1186 2.16923C 4.26179 2.16923 2.5758 4.24615 2.5758 7.70769C 2.5758 11.1692 4.30863 13.2462 7.1186 13.2462C 9.92857 13.2462 11.6614 11.1692 11.6614 7.70769Z" transform="translate(209.483 23.4)" fill="#474747"/>
</g>
<g id="Vector_12">
<path d="M 11.0057 5.07692C 10.6779 3.46154 9.31975 2.16923 7.02494 2.16923C 4.35546 2.16923 2.52898 4.38461 2.52898 7.70769C 2.52898 11.1692 4.4023 13.2462 7.07177 13.2462C 9.22608 13.2462 10.6311 12.2769 11.0526 10.4308L 13.4879 10.4308C 13.0664 13.3846 10.5374 15.4154 7.02494 15.4154C 2.80998 15.4154 2.85845e-06 12.4615 2.85845e-06 7.70769C 2.85845e-06 3.04615 2.80998 0 7.02494 0C 10.8184 0 13.16 2.4 13.4879 5.07692L 11.0057 5.07692Z" transform="translate(225.547 23.3077)" fill="#474747"/>
</g>
<g id="Vector_13">
<path d="M 9.36657 6.04615L 12.4107 6.04615L 5.66679 12.6L 12.5981 21.2308L 9.69441 21.2308L 3.93397 14.1231L 2.48213 15.4615L 2.48213 21.2308L -5.7169e-06 21.2308L -5.7169e-06 -3.52126e-07L 2.48213 -3.52126e-07L 2.48213 12.7846L 9.36657 6.04615Z" transform="translate(241.564 17.4462)" fill="#474747"/>
</g>
<g id="Vector_14">
<path d="M 13.3942 10.9385C 12.9727 13.5231 10.3032 15.4154 7.02494 15.4154C 2.71631 15.4154 5.71691e-06 12.4615 5.71691e-06 7.75385C 5.71691e-06 3.04615 2.71631 3.52126e-07 6.93127 3.52126e-07C 11.0526 3.52126e-07 13.6284 2.86154 13.6284 7.43077L 13.6284 8.35385L 2.57581 8.35385L 2.57581 8.49231C 2.57581 11.3538 4.35547 13.2462 7.11861 13.2462C 9.03876 13.2462 10.5374 12.3692 11.0057 10.9385L 13.3942 10.9385ZM 2.52896 6.41538L 11.0057 6.41538C 10.9589 3.83077 9.27292 2.12308 6.88445 2.12308C 4.49597 2.12308 2.7163 3.83077 2.52896 6.41538Z" transform="translate(254.63 23.4)" fill="#474747"/>
</g>
<g id="Vector_15">
<path d="M -5.71691e-06 0.14404L 2.34164 0.14404L 2.34164 2.59019L 2.38849 2.59019C 2.90365 0.974809 4.44914 -0.0867309 6.13512 0.00557677C 6.46295 0.00557677 6.83759 0.051731 7.16542 0.0978848L 7.16542 2.49789C 6.74392 2.35942 6.27561 2.31327 5.80728 2.35942C 3.79347 2.35942 2.48213 3.79019 2.48213 5.91327L 2.48213 15.3287L -5.71691e-06 15.3287L -5.71691e-06 0.14404Z" transform="translate(270.835 23.3483)" fill="#474747"/>
</g>
<g id="Vector_16">
<path d="M 2.90363 1.4085e-06C 4.49595 1.4085e-06 5.76045 1.06154 5.76045 2.44615C 5.76045 3.41538 5.29212 4.15384 3.79346 5.72308L 1.26448 8.35385L 1.26448 8.4L 5.99462 8.4L 5.99462 9.13846L 0.0468329 9.13846L 0.0468329 8.53846L 3.27831 5.16923C 4.58963 3.83077 4.91746 3.27692 4.91746 2.49231C 4.87063 1.47692 3.93395 0.692308 2.90363 0.738462C 1.82647 0.692308 0.889831 1.52308 0.842998 2.58462L 0.842998 2.63077L 1.14338e-05 2.63077C 1.14338e-05 1.15385 1.21764 1.4085e-06 2.90363 1.4085e-06Z" transform="translate(251.212 47.6769)" fill="#474747"/>
</g>
<g id="Vector_17">
<path d="M 0 4.61539C 0 1.8 1.26449 7.04252e-07 3.2783 7.04252e-07C 5.29212 7.04252e-07 6.5566 1.8 6.5566 4.61539C 6.5566 7.43077 5.33895 9.27692 3.2783 9.27692C 1.21765 9.27692 0 7.38462 0 4.61539ZM 5.76044 4.61539C 5.76044 2.26154 4.87061 0.738462 3.32512 0.738462C 1.77964 0.738462 0.889836 2.26154 0.889836 4.61539C 0.889836 6.96923 1.77964 8.49231 3.32512 8.49231C 4.87061 8.49231 5.76044 6.92308 5.76044 4.61539Z" transform="translate(258.283 47.7231)" fill="#474747"/>
</g>
<g id="Vector_18">
<path d="M 2.48215 0.923076C 2.24798 1.06154 0.281009 2.4 1.14338e-05 2.58461L 1.14338e-05 1.66154C 0.234176 1.52308 2.20113 0.184615 2.4353 -7.04252e-07L 3.27831 -7.04252e-07L 3.27831 8.95385L 2.4353 8.95385L 2.48215 0.923076Z" transform="translate(265.964 47.8154)" fill="#474747"/>
</g>
<g id="Vector_19">
<path d="M 4.63645 6.96923L 1.14338e-05 6.96923L 1.14338e-05 6.18462C 0.983502 4.52308 2.20116 2.76923 4.21497 -7.04252e-07L 5.47944 -7.04252e-07L 5.47944 6.18462L 6.8376 6.18462L 6.8376 6.92308L 5.47944 6.92308L 5.47944 8.95385L 4.63645 8.95385L 4.63645 6.96923ZM 0.889819 6.23077L 4.63645 6.23077L 4.63645 0.784617C 2.95047 3 1.82648 4.75385 0.889819 6.23077Z" transform="translate(271.116 47.8154)" fill="#474747"/>
</g>
<g id="Vector_20">
<path d="M 24.7746 11.3538L 11.9424 1.76063e-07L 2.71631 1.76063e-07C 3.04414 0.692308 3.37197 1.38462 3.65296 2.07692L 10.4906 2.07692L 10.4906 13.2462L 22.9949 13.2462L 22.9949 39.5538L 2.10748 39.5538L 2.10748 29.7692C 1.45182 30.9692 0.749326 32.1692 -3.57307e-07 33.2769L -3.57307e-07 41.6308L 25.1493 41.6308L 25.1493 11.6308L 24.7746 11.3538ZM 12.598 11.1231L 12.598 3.36923L 21.3558 11.1231L 12.598 11.1231Z" transform="translate(15.5954 6.27693)" fill="#6CCACC"/>
</g>
<g id="Vector_21">
<path d="M 21.871 0L 0 8.90769L 0.0936658 45.3692L 22.0115 54.1385L 21.871 0ZM 1.63915 13.6154C 1.63915 13.5231 1.68598 13.4308 1.73282 13.3846C 1.77965 13.3385 1.77965 13.2462 1.82648 13.2C 1.87332 13.1538 1.92015 13.1077 1.96698 13.1077L 17.1408 8.35385C 17.2345 8.30769 17.2813 8.30769 17.375 8.35385C 17.4687 8.35385 17.5155 8.4 17.5623 8.49231C 17.6092 8.58461 17.656 8.63077 17.7028 8.72308C 17.7497 8.81538 17.7497 8.95385 17.7497 9.04615C 17.7497 9.18462 17.7497 9.27692 17.7028 9.41538C 17.656 9.50769 17.6092 9.64615 17.5623 9.73846C 17.5155 9.83077 17.4687 9.92308 17.375 9.96923C 17.2813 10.0154 17.2345 10.0615 17.1408 10.1077L 1.92015 14.4462L 1.77965 14.4462C 1.73282 14.4462 1.68598 14.4 1.68598 14.3538C 1.63915 14.3077 1.63915 14.2615 1.59232 14.1692C 1.54549 14.0769 1.54549 14.0308 1.54549 13.9385C 1.59232 13.7538 1.59232 13.6615 1.63915 13.6154ZM 1.63915 17.0769C 1.63915 16.9846 1.68598 16.9385 1.73282 16.8462C 1.77965 16.7538 1.77965 16.7077 1.82648 16.6615C 1.87332 16.6154 1.92015 16.5692 1.96698 16.5692L 17.1877 12.8769L 17.4218 12.8769C 17.4687 12.9231 17.5623 12.9692 17.6092 13.0154C 17.656 13.1077 17.7028 13.1538 17.7497 13.2462C 17.7965 13.3385 17.7965 13.4769 17.7965 13.5692C 17.7965 13.7077 17.7965 13.8 17.7497 13.9385C 17.7028 14.0308 17.656 14.1692 17.6092 14.2615C 17.5623 14.3538 17.5155 14.4462 17.4218 14.4923C 17.3282 14.5385 17.2813 14.5846 17.1877 14.6308L 1.96698 17.8615C 1.92015 17.8615 1.87332 17.8615 1.82648 17.8154C 1.77965 17.7692 1.73282 17.7692 1.73282 17.6769C 1.73282 17.5846 1.68598 17.5385 1.63915 17.4923C 1.59232 17.4462 1.59232 17.3538 1.59232 17.2615C 1.59232 17.2154 1.63915 17.1231 1.63915 17.0769ZM 17.5623 34.0154C 17.4687 34.2923 17.3282 34.5231 17.1877 34.7538C 17.0472 34.9385 16.8598 35.0769 16.6725 35.1692C 16.4852 35.2615 16.2978 35.3077 16.1105 35.2615C 15.8763 35.2154 15.689 35.0769 15.5485 34.9385C 15.3612 34.7538 15.2207 34.5692 15.127 34.3385C 15.0334 34.1077 14.9397 33.8308 14.8929 33.5538C 14.846 33.2308 14.7992 32.9538 14.846 32.6308C 14.846 32.3077 14.9397 32.0308 15.0334 31.7538C 15.127 31.5231 15.2207 31.2923 15.3612 31.0615C 15.5017 30.8769 15.6422 30.7385 15.8295 30.6C 16.0168 30.5077 16.2042 30.4615 16.3915 30.4615C 16.5788 30.5077 16.7662 30.6 16.9535 30.7385C 17.1408 30.8769 17.2813 31.1077 17.375 31.3385C 17.5155 31.6154 17.6092 31.8923 17.656 32.1692C 17.7028 32.4923 17.7497 32.8154 17.7028 33.1385C 17.7028 33.4154 17.656 33.6923 17.5623 34.0154ZM 17.7028 18.5077L 17.5623 18.7846C 17.5155 18.8769 17.4687 18.9692 17.375 19.0154C 17.3282 19.0615 17.2345 19.1077 17.1408 19.1077L 1.92015 21.3692C 1.87332 21.3692 1.82648 21.3692 1.77965 21.3231C 1.73282 21.2769 1.68598 21.2769 1.68598 21.1846C 1.68598 21.0923 1.63915 21.0462 1.59232 21C 1.59232 20.9077 1.54549 20.8615 1.54549 20.7692C 1.54549 20.6769 1.54549 20.5846 1.59232 20.4923C 1.59232 20.4 1.63915 20.3538 1.68598 20.2615C 1.73282 20.1692 1.73282 20.1231 1.77965 20.1231C 1.82648 20.1231 1.87332 20.0769 1.92015 20.0308L 17.1408 17.3538C 17.2345 17.3538 17.2813 17.3538 17.375 17.4C 17.4687 17.4462 17.5155 17.4923 17.5623 17.5385C 17.6092 17.6308 17.656 17.7231 17.7028 17.8154C 17.7497 17.9077 17.7497 18.0462 17.7497 18.1385C 17.7497 18.2308 17.7497 18.3692 17.7028 18.5077Z" fill="#6CCACC"/>
</g>
</g>
</g>
</svg>

