<svg xmlns="http://www.w3.org/2000/svg" xmlns:xlink="http://www.w3.org/1999/xlink" width="288" height="156" viewBox="0 0 288 156">
  <defs>
    <polygon id="login-logo-a" points="0 155.388 287.511 155.388 287.511 .367 0 .367"/>
  </defs>
  <g fill="none" fill-rule="evenodd">
    <polygon fill="#FFF" points="22.502 104.428 13.33 126.88 13.208 126.88 3.913 104.428 0 104.428 0 131.346 3.119 131.346 3.119 110.607 3.241 110.607 11.801 131.162 14.613 131.162 23.175 110.607 23.297 110.607 23.297 131.346 26.415 131.346 26.415 104.428"/>
    <g transform="translate(0 .245)">
      <path fill="#FFF" d="M31.4903847,138.259068 L31.4903847,135.506127 C31.8572637,135.567304 32.4075822,135.627868 32.8356076,135.627868 C34.6700025,135.627868 35.709493,134.710221 36.5043975,132.324951 L36.8712764,131.161986 L29.4114038,111.035539 L32.8356076,111.035539 L38.4610854,127.79728 L38.5222318,127.79728 L44.1477096,111.035539 L47.5719134,111.035539 L39.8063083,132.324951 C38.0942064,136.973751 36.5043975,138.380809 32.9579006,138.380809 C32.5298752,138.380809 31.9184102,138.320245 31.4903847,138.259068 Z"/>
      <polygon fill="#FFF" points="74.11 131.101 74.11 110.362 73.987 110.362 65.427 130.918 62.614 130.918 54.054 110.362 53.931 110.362 53.931 131.101 50.813 131.101 50.813 104.184 54.726 104.184 63.898 126.635 64.02 126.635 73.315 104.184 77.228 104.184 77.228 131.101"/>
      <path fill="#FFF" d="M84.3821045 119.355294L95.4496204 119.355294C95.3884739 115.929412 93.1872 113.665882 90.0687287 113.665882 86.8891108 113.665882 84.6266904 115.990588 84.3821045 119.355294L84.3821045 119.355294zM98.5680917 125.350588C98.0177732 128.776471 94.5324229 131.284706 90.2521682 131.284706 84.6266904 131.284706 81.0801936 127.369412 81.0801936 121.129412 81.0801936 114.889412 84.6266904 110.851765 90.1298752 110.851765 95.5107669 110.851765 98.8738242 114.644706 98.8738242 120.701176L98.8738242 121.924706 84.443251 121.924706 84.443251 122.108235C84.443251 125.901176 86.7668178 128.409412 90.3744611 128.409412 92.8814675 128.409412 94.8381554 127.247059 95.4496204 125.350588L98.5680917 125.350588zM104.560448 121.068113C104.560448 125.533995 106.884015 128.409289 110.430512 128.409289 113.915862 128.409289 116.300576 125.472819 116.300576 121.068113 116.300576 116.724584 113.915862 113.726936 110.430512 113.726936 106.884015 113.726936 104.560448 116.602231 104.560448 121.068113M101.258538 121.068113C101.258538 114.950466 104.805034 110.851642 109.819047 110.851642 112.692932 110.851642 115.016499 112.075172 116.239429 114.277525L116.300576 114.277525 116.300576 103.021054 119.54134 103.021054 119.54134 131.101054 116.422869 131.101054 116.422869 127.736348 116.361722 127.736348C115.077646 130.061054 112.754079 131.284584 109.880194 131.284584 104.805034 131.284584 101.258538 127.18576 101.258538 121.068113"/>
      <mask id="login-logo-b" fill="#fff">
        <use xlink:href="#login-logo-a"/>
      </mask>
      <path fill="#FFF" d="M124.249682 131.101176L127.490446 131.101176 127.490446 110.974118 124.249682 110.974118 124.249682 131.101176zM123.821656 105.712941C123.821656 104.550588 124.738854 103.632941 125.900637 103.632941 127.06242 103.632941 127.979618 104.550588 127.979618 105.712941 127.979618 106.814118 127.06242 107.792941 125.900637 107.792941 124.738854 107.731765 123.821656 106.814118 123.821656 105.712941L123.821656 105.712941zM145.467394 117.52C145.039368 115.378824 143.26612 113.665882 140.269941 113.665882 136.784591 113.665882 134.399878 116.602353 134.399878 121.007059 134.399878 125.595294 136.845738 128.348235 140.331088 128.348235 143.143827 128.348235 144.978222 127.063529 145.529152 124.616471L148.708158 124.616471C148.157839 128.531765 144.855929 131.223529 140.269941 131.223529 134.766757 131.223529 131.097967 127.308235 131.097967 121.007059 131.097967 114.828235 134.766757 110.790588 140.269941 110.790588 145.223419 110.790588 148.280744 113.971765 148.708158 117.52L145.467394 117.52zM164.056173 123.45424L164.056173 121.802475 158.796963 122.108358C155.801396 122.291887 154.210976 123.392452 154.210976 125.350711 154.210976 127.186005 155.862543 128.409534 158.369549 128.409534 161.67146 128.470711 164.056173 126.329534 164.056173 123.45424M150.909676 125.350711C150.909676 121.924828 153.538976 119.844828 158.430696 119.600122L164.056173 119.29424 164.056173 117.642475C164.056173 115.133628 162.405218 113.788358 159.470186 113.788358 157.146619 113.788358 155.433906 114.950711 155.006492 116.908358L151.88802 116.908358C152.010313 113.543652 155.251078 110.913064 159.470186 110.913064 164.239613 110.913064 167.296938 113.421299 167.296938 117.397769L167.296938 131.101299 164.239613 131.101299 164.239613 127.61424 164.178466 127.61424C163.016683 129.877769 160.509676 131.284828 157.696938 131.284828 153.599511 131.284828 150.909676 128.960122 150.909676 125.350711" mask="url(#login-logo-b)"/>
      <polygon fill="#FFF" points="171.822 131.101 175.062 131.101 175.062 103.021 171.822 103.021" mask="url(#login-logo-b)"/>
      <polygon fill="#FFF" points="196.341 131.101 180.015 131.101 180.015 104.184 183.378 104.184 183.378 128.042 196.341 128.042" mask="url(#login-logo-b)"/>
      <path fill="#FFF" d="M213.279103 121.068113C213.279103 116.418701 211.077218 113.726936 207.347893 113.726936 203.617957 113.726936 201.416683 116.479878 201.416683 121.068113 201.416683 125.656348 203.679103 128.409289 207.347893 128.409289 211.077218 128.409289 213.279103 125.656348 213.279103 121.068113M198.053625 121.068113C198.053625 114.828113 201.661269 110.851642 207.286746 110.851642 212.911613 110.851642 216.519868 114.828113 216.519868 121.068113 216.519868 127.308113 212.911613 131.284584 207.286746 131.284584 201.661269 131.284584 198.053625 127.247548 198.053625 121.068113M233.395934 117.52C232.96852 115.378824 231.19466 113.665882 228.198482 113.665882 224.713743 113.665882 222.328418 116.602353 222.328418 121.007059 222.328418 125.595294 224.774278 128.348235 228.260239 128.348235 231.072367 128.348235 232.906762 127.063529 233.457692 124.616471L236.63731 124.616471C236.08638 128.531765 232.784469 131.223529 228.198482 131.223529 222.695297 131.223529 219.026507 127.308235 219.026507 121.007059 219.026507 114.828235 222.695297 110.790588 228.198482 110.790588 233.151959 110.790588 236.209284 113.971765 236.63731 117.52L233.395934 117.52z" mask="url(#login-logo-b)"/>
      <polygon fill="#FFF" points="252.168 110.974 256.143 110.974 247.338 119.661 256.387 131.101 252.596 131.101 245.075 121.68 243.179 123.454 243.179 131.101 239.939 131.101 239.939 103.021 243.179 103.021 243.179 119.967" mask="url(#login-logo-b)"/>
      <path fill="#FFF" d="M260.300392 119.355294L271.36852 119.355294C271.306762 115.929412 269.105488 113.665882 265.987628 113.665882 262.80801 113.665882 260.544978 115.990588 260.300392 119.355294L260.300392 119.355294zM274.48638 125.350588C273.936673 128.776471 270.451322 131.284706 266.171068 131.284706 260.544978 131.284706 256.999093 127.369412 256.999093 121.129412 256.999093 114.889412 260.544978 110.851765 266.048163 110.851765 271.429055 110.851765 274.792112 114.644706 274.792112 120.701176L274.792112 121.924706 260.36215 121.924706 260.36215 122.108235C260.36215 125.901176 262.685106 128.409412 266.293361 128.409412 268.799755 128.409412 270.757055 127.247059 271.36852 125.350588L274.48638 125.350588zM278.155292 110.973995L281.212617 110.973995 281.212617 114.216348 281.274375 114.216348C281.885839 112.136348 283.780769 110.790466 286.166094 110.790466 286.715801 110.790466 287.204973 110.851642 287.510706 110.912819L287.510706 114.094607C287.26612 113.971642 286.532362 113.910466 285.737457 113.910466 283.108769 113.910466 281.396056 115.806936 281.396056 118.621054L281.396056 131.101054 278.155292 131.101054 278.155292 110.973995zM256.32587 143.030711C258.404851 143.030711 260.056418 144.437769 260.056418 146.273064 260.056418 147.557158 259.444953 148.536593 257.487654 150.615981L254.185743 154.103652 254.185743 154.164828 260.36215 154.164828 260.36215 155.143652 252.595934 155.143652 252.595934 154.348358 256.815654 149.882475C258.527755 148.108358 258.955781 147.37424 258.955781 146.333628 258.955781 145.049534 257.793386 144.009534 256.32587 144.009534 254.797208 144.009534 253.636036 145.110099 253.636036 146.517769L252.535399 146.517769C252.535399 144.560122 254.124596 143.030711 256.32587 143.030711M269.28905 149.209289C269.28905 146.089289 268.127878 144.071078 266.109432 144.071078 264.153355 144.071078 262.930425 146.089289 262.930425 149.209289 262.930425 152.390466 264.091597 154.348113 266.109432 154.348113 268.127878 154.348113 269.28905 152.329901 269.28905 149.209289M261.768031 149.209289C261.768031 145.477525 263.418986 143.091642 266.048285 143.091642 268.739343 143.091642 270.32854 145.477525 270.32854 149.209289 270.32854 152.941666 268.739343 155.388725 266.048285 155.388725 263.418986 155.326936 261.768031 152.941666 261.768031 149.209289M275.037065 144.437647L275.037065 144.437647C274.731332 144.621176 272.16318 146.395294 271.796301 146.64L271.796301 145.416471C272.102033 145.232941 274.669575 143.458824 274.975307 143.214118L276.076555 143.214118 276.076555 155.082353 274.975307 155.082353 274.975307 144.437647 275.037065 144.437647zM279.683954 151.472941L284.575674 151.472941 284.575674 144.254118C282.3744 147.251765 280.906884 149.515294 279.683954 151.472941L279.683954 151.472941zM284.575674 152.451765L278.522782 152.451765 278.522782 151.411765C279.806247 149.209412 281.396056 146.884706 284.025967 143.214118L285.676311 143.214118 285.676311 151.411765 287.449559 151.411765 287.449559 152.390588 285.676311 152.390588 285.676311 155.082353 284.575674 155.082353 284.575674 152.451765zM153.967001 23.4307106L153.967001 13.1530635 165.401396 23.4307106 153.967001 23.4307106zM169.86509 23.7365929L153.11095 8.68718118 141.06509 8.68718118C141.493116 9.60482824 141.921141 10.5224753 142.28802 11.4401224L151.215409 11.4401224 151.215409 26.2448282 167.541524 26.2448282 167.541524 61.1154165 140.270186 61.1154165 140.270186 48.1460047C139.414135 49.7365929 138.496938 51.3271812 137.518594 52.7954165L137.518594 63.8683576 170.354262 63.8683576 170.354262 24.1036518 169.86509 23.7365929z" mask="url(#login-logo-b)"/>
      <path fill="#FFF" d="M140.269941,24.8376471 C140.208795,24.96 140.147648,25.0823529 140.086502,25.2047059 C140.025355,25.3270588 139.964209,25.3882353 139.841916,25.5105882 C139.780769,25.5717647 139.658476,25.6329412 139.536183,25.6329412 L119.663572,28.6305882 C119.602425,28.6305882 119.541279,28.6305882 119.480132,28.5694118 C119.418986,28.5082353 119.357839,28.5082353 119.357839,28.3858824 C119.357839,28.2635294 119.296693,28.2023529 119.235546,28.1411765 C119.235546,28.0188235 119.1744,27.9576471 119.1744,27.8352941 C119.1744,27.7129412 119.1744,27.5905882 119.235546,27.4682353 C119.235546,27.3458824 119.296693,27.2847059 119.357839,27.1623529 C119.418986,27.1011765 119.418986,26.9788235 119.480132,26.9788235 C119.541279,26.9176471 119.602425,26.9176471 119.663572,26.8564706 L139.536183,23.3082353 C139.658476,23.3082353 139.719623,23.3082353 139.841916,23.3694118 C139.964209,23.4305882 140.025355,23.4917647 140.086502,23.5529412 C140.147648,23.6141176 140.208795,23.7364706 140.269941,23.92 C140.331088,24.0423529 140.331088,24.2258824 140.331088,24.3482353 C140.331088,24.4705882 140.331088,24.7152941 140.269941,24.8376471 L140.269941,24.8376471 Z M140.086502,45.3929412 C139.964209,45.76 139.780769,46.0658824 139.59733,46.3717647 C139.41389,46.6164706 139.169304,46.8 138.924718,46.9223529 C138.680132,47.0447059 138.435546,47.1058824 138.190961,47.0447059 C137.946375,46.9835294 137.701789,46.8611765 137.457203,46.6164706 C137.273763,46.4329412 137.029177,46.1270588 136.906884,45.8211765 C136.784591,45.5152941 136.662298,45.1482353 136.601152,44.7811765 C136.540005,44.4141176 136.478859,43.9858824 136.540005,43.5576471 C136.540005,43.1294118 136.662298,42.7011765 136.784591,42.3952941 C136.906884,42.0282353 137.029177,41.7223529 137.212617,41.4776471 C137.396056,41.2329412 137.640642,40.9882353 137.824082,40.8658824 C138.068668,40.7435294 138.313254,40.6823529 138.557839,40.6823529 C138.802425,40.7435294 139.047011,40.8658824 139.291597,41.0494118 C139.536183,41.2329412 139.719623,41.4776471 139.841916,41.8447059 C140.025355,42.1505882 140.147648,42.5176471 140.208795,42.9458824 C140.269941,43.3741176 140.331088,43.8023529 140.269941,44.2305882 C140.331088,44.5976471 140.208795,45.0258824 140.086502,45.3929412 L140.086502,45.3929412 Z M119.296693,22.9411765 C119.296693,22.8188235 119.357839,22.7576471 119.418986,22.6352941 C119.480132,22.5741176 119.480132,22.4517647 119.541279,22.3905882 C119.602425,22.3294118 119.663572,22.2682353 119.724718,22.2682353 L139.59733,17.3741176 L139.903062,17.3741176 C139.964209,17.4352941 140.086502,17.4964706 140.147648,17.5576471 C140.208795,17.6188235 140.269941,17.7411765 140.331088,17.8635294 C140.392234,17.9858824 140.392234,18.1082353 140.392234,18.2917647 C140.392234,18.4752941 140.392234,18.5976471 140.331088,18.7811765 C140.269941,18.9035294 140.208795,19.0870588 140.147648,19.2094118 C140.086502,19.3317647 140.025355,19.4541176 139.903062,19.5152941 C139.841916,19.5764706 139.719623,19.6376471 139.59733,19.6988235 L119.724718,24.0423529 C119.663572,24.0423529 119.602425,24.0423529 119.541279,23.9811765 C119.480132,23.92 119.418986,23.92 119.418986,23.7976471 C119.357839,23.7364706 119.357839,23.6141176 119.296693,23.5529412 C119.296693,23.4305882 119.235546,23.3694118 119.235546,23.2470588 C119.235546,23.1858824 119.296693,23.0635294 119.296693,22.9411765 L119.296693,22.9411765 Z M119.296693,18.4141176 C119.296693,18.2917647 119.357839,18.1694118 119.418986,18.1082353 C119.480132,18.0470588 119.480132,17.9247059 119.541279,17.8635294 C119.602425,17.8023529 119.663572,17.7411765 119.724718,17.7411765 L139.536183,11.44 C139.658476,11.3788235 139.719623,11.3788235 139.841916,11.44 C139.964209,11.44 140.025355,11.5011765 140.086502,11.6235294 C140.147648,11.6847059 140.208795,11.8070588 140.269941,11.9294118 C140.331088,12.0517647 140.331088,12.1741176 140.331088,12.3576471 C140.331088,12.5411765 140.331088,12.6635294 140.269941,12.8470588 C140.208795,12.9694118 140.147648,13.1529412 140.086502,13.2752941 C140.025355,13.3976471 139.964209,13.52 139.841916,13.5811765 C139.780769,13.6423529 139.658476,13.7035294 139.536183,13.7647059 L119.663572,19.5152941 L119.480132,19.5152941 C119.418986,19.5152941 119.357839,19.4541176 119.357839,19.3929412 C119.296693,19.3317647 119.296693,19.2705882 119.235546,19.1482353 C119.235546,19.0258824 119.1744,18.9647059 119.1744,18.8423529 C119.235546,18.5976471 119.235546,18.4752941 119.296693,18.4141176 L119.296693,18.4141176 Z M145.71198,0.367058824 L117.156566,12.1741176 L117.278859,60.5035294 L145.895419,72.1270588 L145.71198,0.367058824 Z" mask="url(#login-logo-b)"/>
    </g>
  </g>
</svg>
