<svg xmlns="http://www.w3.org/2000/svg" width="183" height="37" viewBox="0 0 183 37">
  <g fill="#FFF">
    <g transform="translate(34.814 9.405)">
      <polygon points="12.107 14.422 12.107 3.794 12.044 3.794 7.653 14.328 6.21 14.328 1.819 3.794 1.756 3.794 1.756 14.422 .157 14.422 .157 .627 2.164 .627 6.931 12.133 6.994 12.133 11.699 .627 13.706 .627 13.706 14.422"/>
      <path d="M16.3092817,18.0897857 L16.3092817,16.6789705 C16.4974657,16.7103219 16.7797417,16.7416734 16.9992898,16.7416734 C17.9402099,16.7416734 18.4733979,16.2714017 18.88113,15.0486952 L19.069314,14.4530177 L15.2429056,4.13839118 L16.9992898,4.13839118 L19.8847781,12.728688 L19.9161421,12.728688 L22.8016304,4.13839118 L24.5580145,4.13839118 L20.5747861,15.0486952 C19.696594,17.4314053 18.88113,18.1524886 17.0620178,18.1524886 C16.8424697,18.1524886 16.5288297,18.1211371 16.3092817,18.0897857 Z"/>
      <polygon points="38.17 14.422 38.17 3.794 38.107 3.794 33.716 14.328 32.274 14.328 27.883 3.794 27.82 3.794 27.82 14.422 26.22 14.422 26.22 .627 28.228 .627 32.932 12.133 32.995 12.133 37.762 .627 39.77 .627 39.77 14.422"/>
      <path d="M50.7155933 11.4746301C50.4333172 13.2303112 48.645569 14.5157206 46.4500888 14.5157206 43.5646005 14.5157206 41.7454883 12.5092279 41.7454883 9.31138015 41.7454883 6.11353242 43.5646005 4.04433683 46.3873608 4.04433683 49.1473931 4.04433683 50.8724133 5.98812663 50.8724133 9.09192001L50.8724133 9.71894897 43.4705085 9.71894897 43.4705085 9.81300332C43.4705085 11.7567931 44.6623406 13.0422025 46.5128168 13.0422025 47.798741 13.0422025 48.8023891 12.446525 49.1160291 11.4746301L50.7155933 11.4746301zM43.4391445 8.40218814L49.1160291 8.40218814C49.0846651 6.64650704 47.955561 5.48650345 46.3559968 5.48650345 44.7250686 5.48650345 43.5646005 6.67785849 43.4391445 8.40218814zM52.0956094 9.2800287C52.0956094 6.14488387 53.9147216 4.04433683 56.4865699 4.04433683 57.960678 4.04433683 59.1525101 4.6713658 59.7797902 5.80001794L59.8111542 5.80001794 59.8111542.0313514483 61.4734464.0313514483 61.4734464 14.4216662 59.8738822 14.4216662 59.8738822 12.6973366 59.8425182 12.6973366C59.1838741 13.8886916 57.992042 14.5157206 56.5179339 14.5157206 53.9147216 14.5157206 52.0956094 12.4151735 52.0956094 9.2800287zM53.7892656 9.2800287C53.7892656 11.5686844 54.9810977 13.0422025 56.8002099 13.0422025 58.5879581 13.0422025 59.8111542 11.537333 59.8111542 9.2800287 59.8111542 7.05407587 58.5879581 5.5178549 56.8002099 5.5178549 54.9810977 5.5178549 53.7892656 6.99137297 53.7892656 9.2800287zM63.6689266 1.41081517C63.6689266.815137656 64.1393867.344865931 64.7353027.344865931 65.3312188.344865931 65.8016788.815137656 65.8016788 1.41081517 65.8016788 1.97514124 65.3312188 2.47676442 64.7353027 2.47676442 64.1393867 2.44541297 63.6689266 1.97514124 63.6689266 1.41081517zM63.8884746 4.10703973L65.5507668 4.10703973 65.5507668 14.4216662 63.8884746 14.4216662 63.8884746 4.10703973zM74.7717838 7.4616447C74.5522357 6.36434401 73.6426796 5.48650345 72.1058435 5.48650345 70.3180953 5.48650345 69.0948992 6.99137297 69.0948992 9.24867725 69.0948992 11.6000359 70.3494593 13.010851 72.1372075 13.010851 73.5799516 13.010851 74.5208717 12.3524706 74.8031478 11.0984127L76.4340759 11.0984127C76.1517999 13.1049054 74.4581437 14.4843691 72.1058435 14.4843691 69.2830832 14.4843691 67.401243 12.4778764 67.401243 9.24867725 67.401243 6.08218097 69.2830832 4.01298538 72.1058435 4.01298538 74.6463277 4.01298538 76.2145279 5.64326069 76.4340759 7.4616447L74.7717838 7.4616447zM77.5631801 11.4746301C77.5631801 9.71894897 78.9118322 8.65299973 81.4209525 8.52759394L84.3064408 8.3708367 84.3064408 7.52434759C84.3064408 6.23893821 83.4596127 5.54920635 81.9541405 5.54920635 80.7623084 5.54920635 79.8841163 6.14488387 79.6645683 7.14813021L78.0650041 7.14813021C78.1277321 5.42380056 79.7900243 4.07568828 81.9541405 4.07568828 84.4005328 4.07568828 85.9687329 5.36109766 85.9687329 7.3989418L85.9687329 14.4216662 84.4005328 14.4216662 84.4005328 12.6346337 84.3691688 12.6346337C83.7732527 13.7946373 82.4873286 14.5157206 81.0445844 14.5157206 78.9431962 14.5157206 77.5631801 13.3243655 77.5631801 11.4746301zM84.3064408 10.5027352L84.3064408 9.65624608 81.6091365 9.81300332C80.0723003 9.90705766 79.2568362 10.4713837 79.2568362 11.4746301 79.2568362 12.4151735 80.1036643 13.0422025 81.3895884 13.0422025 83.0832446 13.0735539 84.3064408 11.9762533 84.3064408 10.5027352z"/>
      <polygon points="88.29 .031 89.952 .031 89.952 14.422 88.29 14.422"/>
      <polygon points="100.867 14.422 92.492 14.422 92.492 .627 94.217 .627 94.217 12.854 100.867 12.854"/>
      <path d="M101.744827 9.2800287C101.744827 6.08218097 103.595303 4.04433683 106.480791 4.04433683 109.366279 4.04433683 111.216756 6.08218097 111.216756 9.2800287 111.216756 12.4778764 109.366279 14.5157206 106.480791 14.5157206 103.595303 14.5157206 101.744827 12.446525 101.744827 9.2800287zM109.554463 9.2800287C109.554463 6.89731863 108.425359 5.5178549 106.512155 5.5178549 104.598951 5.5178549 103.469847 6.92867007 103.469847 9.2800287 103.469847 11.6313873 104.630315 13.0422025 106.512155 13.0422025 108.425359 13.0422025 109.554463 11.6313873 109.554463 9.2800287zM119.87322 7.4616447C119.653672 6.36434401 118.744116 5.48650345 117.20728 5.48650345 115.419532 5.48650345 114.196336 6.99137297 114.196336 9.24867725 114.196336 11.6000359 115.450896 13.010851 117.238644 13.010851 118.681388 13.010851 119.622308 12.3524706 119.904584 11.0984127L121.535513 11.0984127C121.253237 13.1049054 119.55958 14.4843691 117.20728 14.4843691 114.38452 14.4843691 112.50268 12.4778764 112.50268 9.24867725 112.50268 6.08218097 114.38452 4.01298538 117.20728 4.01298538 119.747764 4.01298538 121.315965 5.64326069 121.535513 7.4616447L119.87322 7.4616447z"/>
      <polygon points="129.502 4.107 131.541 4.107 127.024 8.559 131.666 14.422 129.722 14.422 125.864 9.594 124.891 10.503 124.891 14.422 123.229 14.422 123.229 .031 124.891 .031 124.891 8.716"/>
      <path d="M140.949831 11.4746301C140.667555 13.2303112 138.879806 14.5157206 136.684326 14.5157206 133.798838 14.5157206 131.979726 12.5092279 131.979726 9.31138015 131.979726 6.11353242 133.798838 4.04433683 136.621598 4.04433683 139.38163 4.04433683 141.106651 5.98812663 141.106651 9.09192001L141.106651 9.71894897 133.704746 9.71894897 133.704746 9.81300332C133.704746 11.7567931 134.896578 13.0422025 136.747054 13.0422025 138.032978 13.0422025 139.036626 12.446525 139.350266 11.4746301L140.949831 11.4746301zM133.673382 8.40218814L139.350266 8.40218814C139.318902 6.64650704 138.189798 5.48650345 136.590234 5.48650345 134.959306 5.48650345 133.798838 6.67785849 133.673382 8.40218814zM142.831671 4.10703973L144.399871 4.10703973 144.399871 5.76866649 144.431235 5.76866649C144.744875 4.70271725 145.717159 4.01298538 146.940355 4.01298538 147.222631 4.01298538 147.473543 4.04433683 147.630363 4.07568828L147.630363 5.70596359C147.504907 5.64326069 147.128539 5.61190925 146.720807 5.61190925 145.372155 5.61190925 144.493963 6.58380414 144.493963 8.02597076L144.493963 14.4216662 142.831671 14.4216662 142.831671 4.10703973 142.831671 4.10703973z"/>
      <g transform="translate(129.533 20.378)">
        <path d="M2.10138822.156757242C3.16776433.156757242 4.01459242.877840552 4.01459242 1.818384 4.01459242 2.47676442 3.70095238 2.97838759 2.69730428 4.04433683L1.0036481 5.83136938 1.0036481 5.86272083 4.17141243 5.86272083 4.17141243 6.36434401.18818402 6.36434401.18818402 5.95677518 2.35230024 3.66811945C3.23049234 2.75892745 3.45004036 2.38271007 3.45004036 1.84973545 3.45004036 1.19135504 2.8541243.658380414 2.10138822.658380414 1.31728814.658380414.721372075 1.22270648.721372075 1.94378979L.721372075 1.94378979.156820016 1.94378979.156820016 1.94378979C.156820016.940543449.972284101.156757242 2.10138822.156757242zM4.89278451 3.32325352C4.89278451 1.41081517 5.7396126.18810869 7.08826474.18810869 8.46828088.18810869 9.28374496 1.41081517 9.28374496 3.32325352 9.28374496 5.23569187 8.46828088 6.4897498 7.08826474 6.4897498 5.7396126 6.45839835 4.89278451 5.23569187 4.89278451 3.32325352zM8.75055691 3.32325352C8.75055691 1.72432966 8.15464085.689731863 7.11962874.689731863 6.11598063.689731863 5.48870057 1.72432966 5.48870057 3.32325352 5.48870057 4.95352883 6.08461663 5.95677518 7.11962874 5.95677518 8.15464085 5.95677518 8.75055691 4.92217738 8.75055691 3.32325352zM11.6987732.877840552L11.6987732.877840552C11.5419532.971894897 10.2246651 1.8810869 10.036481 2.00649269L10.036481 1.37946373C10.1933011 1.28540938 11.5105892.37621738 11.6674092.250811586L12.2319613.250811586 12.2319613 6.33299256 11.6674092 6.33299256 11.6674092.877840552 11.6987732.877840552zM16.5915577 4.98488028L13.4865214 4.98488028 13.4865214 4.45190566C14.1451655 3.32325352 14.9606296 2.13189848 16.3092817.250811586L17.1561098.250811586 17.1561098 4.45190566 18.0656659 4.45190566 18.0656659 4.95352883 17.1561098 4.95352883 17.1561098 6.33299256 16.5915577 6.33299256 16.5915577 4.98488028 16.5915577 4.98488028zM14.0824375 4.48325711L16.5915577 4.48325711 16.5915577.783786208 16.5915577.783786208C15.4624536 2.32000717 14.7097175 3.48001076 14.0824375 4.48325711L14.0824375 4.48325711z"/>
      </g>
    </g>
    <path d="M27.1612268,12.0703076 L18.5674899,4.35785131 L12.3887813,4.35785131 C12.6083293,4.82812304 12.8278773,5.29839476 13.0160614,5.76866649 L17.5952058,5.76866649 L17.5952058,13.355717 L25.9693947,13.355717 L25.9693947,31.2260425 L11.9810492,31.2260425 L11.9810492,24.5795355 C11.5419532,25.3946731 11.0714931,26.2098108 10.5696691,26.9622455 L10.5696691,32.6368577 L27.4121388,32.6368577 L27.4121388,12.2584163 L27.1612268,12.0703076 Z M19.006586,11.9135504 L19.006586,6.64650704 L24.8716546,11.9135504 L19.006586,11.9135504 Z"/>
    <path d="M14.7724455,0.0940543449 L0.125456013,6.14488387 L0.18818402,30.912528 L14.8665375,36.8693032 L14.7724455,0.0940543449 Z M1.22319613,9.34273159 C1.22319613,9.2800287 1.25456013,9.2173258 1.28592413,9.18597435 C1.31728814,9.1546229 1.31728814,9.09192001 1.34865214,9.06056856 C1.38001614,9.02921711 1.41138015,8.99786566 1.44274415,8.99786566 L11.6046812,5.76866649 C11.6674092,5.73731504 11.6987732,5.73731504 11.7615012,5.76866649 C11.8242292,5.76866649 11.8555932,5.80001794 11.8869572,5.86272083 C11.9183212,5.89407228 11.9496852,5.95677518 11.9810492,6.01947807 C12.0124132,6.08218097 12.0124132,6.14488387 12.0124132,6.23893821 C12.0124132,6.33299256 12.0124132,6.39569545 11.9810492,6.4897498 C11.9496852,6.55245269 11.9183212,6.64650704 11.8869572,6.70920994 C11.8555932,6.77191283 11.8242292,6.83461573 11.7615012,6.86596718 C11.7301372,6.89731863 11.6674092,6.92867007 11.6046812,6.96002152 L1.41138015,9.90705766 C1.38001614,9.90705766 1.34865214,9.90705766 1.31728814,9.90705766 C1.28592413,9.90705766 1.25456013,9.87570621 1.25456013,9.84435477 C1.22319613,9.81300332 1.22319613,9.78165187 1.19183212,9.71894897 C1.19183212,9.65624608 1.16046812,9.62489463 1.16046812,9.56219173 C1.19183212,9.43678594 1.19183212,9.37408304 1.22319613,9.34273159 Z M1.22319613,11.6627388 C1.22319613,11.6000359 1.25456013,11.5686844 1.28592413,11.5059815 C1.31728814,11.4746301 1.31728814,11.4119272 1.34865214,11.3805757 C1.38001614,11.3492243 1.41138015,11.3178728 1.44274415,11.3178728 L11.6360452,8.80975697 C11.6987732,8.80975697 11.7301372,8.80975697 11.7928652,8.80975697 C11.8242292,8.84110842 11.8869572,8.87245987 11.9183212,8.90381132 C11.9496852,8.93516277 11.9810492,8.99786566 12.0124132,9.06056856 C12.0437773,9.12327146 12.0437773,9.18597435 12.0437773,9.2800287 C12.0437773,9.37408304 12.0437773,9.43678594 12.0124132,9.53084028 C11.9810492,9.59354318 11.9496852,9.68759752 11.9183212,9.75030042 C11.8869572,9.81300332 11.8555932,9.87570621 11.7928652,9.90705766 C11.7615012,9.93840911 11.6987732,9.96976056 11.6360452,10.001112 L1.44274415,12.2270648 C1.41138015,12.2270648 1.38001614,12.2270648 1.34865214,12.1957134 C1.31728814,12.1643619 1.28592413,12.1643619 1.28592413,12.101659 C1.25456013,12.0703076 1.25456013,12.0076047 1.22319613,11.9762533 C1.22319613,11.9135504 1.19183212,11.8821989 1.19183212,11.819496 C1.19183212,11.7881446 1.22319613,11.7254417 1.22319613,11.6627388 Z M11.8869572,23.1687203 C11.8242292,23.356829 11.7301372,23.5135862 11.6360452,23.6703435 C11.5419532,23.7957493 11.4164972,23.8898036 11.2910412,23.9525065 C11.1655852,24.0152094 11.0401291,24.0465608 10.9146731,24.0152094 C10.7892171,23.9838579 10.6637611,23.9211551 10.5383051,23.7957493 C10.4442131,23.7016949 10.3187571,23.5449377 10.2560291,23.3881804 C10.1933011,23.2314232 10.1305731,23.0433145 10.099209,22.8552058 C10.067845,22.6670971 10.036481,22.447637 10.067845,22.2281768 C10.067845,22.0087167 10.1305731,21.7892566 10.1933011,21.6324993 C10.2560291,21.4443906 10.3187571,21.2876334 10.4128491,21.1622276 C10.5069411,21.0368218 10.6323971,20.911416 10.7264891,20.8487131 C10.8519451,20.7860102 10.9774011,20.7546588 11.1028572,20.7546588 C11.2283132,20.7860102 11.3537692,20.8487131 11.4792252,20.9427675 C11.6046812,21.0368218 11.6987732,21.1622276 11.7615012,21.3503363 C11.8555932,21.5070935 11.9183212,21.6952022 11.9496852,21.9146624 C11.9810492,22.1341225 12.0124132,22.3535826 11.9810492,22.5730428 C12.0124132,22.7611515 11.9496852,22.9806116 11.8869572,23.1687203 Z M11.9810492,12.6346337 C11.9496852,12.6973366 11.9183212,12.7600395 11.8869572,12.8227424 C11.8555932,12.8854453 11.8242292,12.9167967 11.7615012,12.9794996 C11.7301372,13.010851 11.6674092,13.0422025 11.6046812,13.0422025 L1.41138015,14.5784235 C1.38001614,14.5784235 1.34865214,14.5784235 1.31728814,14.547072 C1.28592413,14.5157206 1.25456013,14.5157206 1.25456013,14.4530177 C1.25456013,14.3903148 1.22319613,14.3589633 1.19183212,14.3276119 C1.19183212,14.264909 1.16046812,14.2335575 1.16046812,14.1708546 C1.16046812,14.1081517 1.16046812,14.0454488 1.19183212,13.9827459 C1.19183212,13.920043 1.22319613,13.8886916 1.25456013,13.8259887 C1.28592413,13.7946373 1.28592413,13.7319344 1.31728814,13.7319344 C1.34865214,13.7005829 1.38001614,13.7005829 1.41138015,13.6692315 L11.6046812,11.8508475 C11.6674092,11.8508475 11.6987732,11.8508475 11.7615012,11.8821989 C11.8242292,11.9135504 11.8555932,11.9449018 11.8869572,11.9762533 C11.9183212,12.0076047 11.9496852,12.0703076 11.9810492,12.1643619 C12.0124132,12.2270648 12.0124132,12.3211192 12.0124132,12.3838221 C12.0124132,12.446525 12.0124132,12.5719308 11.9810492,12.6346337 Z"/>
  </g>
</svg>
