<svg width="200" height="200" viewBox="0 0 200 200" version="1.1" xmlns="http://www.w3.org/2000/svg" xmlns:xlink="http://www.w3.org/1999/xlink">
<title>icon-empty-history</title>
<desc>Created using Figma</desc>
<g id="Canvas" transform="translate(-2587 1464)">
<g id="icon-empty-history">
<g id="icons8-Family">
<g id="surface1">
<g id="Vector">
<use xlink:href="#path0_fill" transform="translate(2587 -1435)" fill="#000000" fill-opacity="0.2"/>
</g>
</g>
</g>
</g>
</g>
<defs>
<path id="path0_fill" d="M 50 0C 30.3571 0 14.2857 16.0875 14.2857 35.75C 14.2857 46.5867 19.3359 56.2225 27.0089 62.7859C 11.0212 71.1648 0 88.0623 0 107.25L 14.2857 107.25C 14.2857 87.5596 30.3292 71.5 50 71.5C 59.8772 71.5 67.8571 74.9074 74.1071 81.1078C 72.433 84.7387 71.4286 88.7326 71.4286 92.95C 71.4286 100.91 74.8326 108.088 80.1339 113.283C 70.6194 119.735 64.2857 130.739 64.2857 143L 78.5714 143C 78.5714 131.158 88.1696 121.55 100 121.55C 111.83 121.55 121.429 131.158 121.429 143L 135.714 143C 135.714 130.739 129.381 119.735 119.866 113.283C 125.167 108.088 128.571 100.91 128.571 92.95C 128.571 88.7326 127.567 84.7387 125.893 81.1078C 132.143 74.9074 140.123 71.5 150 71.5C 169.671 71.5 185.714 87.5596 185.714 107.25L 200 107.25C 200 88.0623 188.979 71.1648 172.991 62.7859C 180.664 56.2225 185.714 46.5867 185.714 35.75C 185.714 16.0875 169.643 0 150 0C 130.357 0 114.286 16.0875 114.286 35.75C 114.286 46.5867 119.336 56.2225 127.009 62.7859C 123.326 64.7131 120.033 67.3385 116.964 70.1594C 112.193 66.5564 106.39 64.35 100 64.35C 93.6105 64.35 87.8069 66.5564 83.0357 70.1594C 79.9665 67.3385 76.6741 64.7131 72.9911 62.7859C 80.6641 56.2225 85.7143 46.5867 85.7143 35.75C 85.7143 16.0875 69.6429 0 50 0ZM 50 14.3C 61.9141 14.3 71.4286 23.824 71.4286 35.75C 71.4286 47.676 61.9141 57.2 50 57.2C 38.0859 57.2 28.5714 47.676 28.5714 35.75C 28.5714 23.824 38.0859 14.3 50 14.3ZM 150 14.3C 161.914 14.3 171.429 23.824 171.429 35.75C 171.429 47.676 161.914 57.2 150 57.2C 138.086 57.2 128.571 47.676 128.571 35.75C 128.571 23.824 138.086 14.3 150 14.3ZM 100 78.65C 107.98 78.65 114.286 84.9621 114.286 92.95C 114.286 100.938 107.98 107.25 100 107.25C 92.0201 107.25 85.7143 100.938 85.7143 92.95C 85.7143 84.9621 92.0201 78.65 100 78.65Z"/>
</defs>
</svg>
