<svg width="200" height="200" viewBox="0 0 200 200" version="1.1" xmlns="http://www.w3.org/2000/svg" xmlns:xlink="http://www.w3.org/1999/xlink">
<title>icon-empty-sp02</title>
<desc>Created using Figma</desc>
<g id="Canvas" transform="translate(-4806 1233)">
<g id="icon-empty-sp02">
<g id="Group">
<g id="Group">
<g id="Group">
<g id="Group">
<g id="surface1">
<g id="Vector">
<use xlink:href="#path0_fill" transform="translate(4831 -1233)" fill="#000000" fill-opacity="0.2"/>
</g>
</g>
</g>
<g id="Group">
<g id="IOS copy">
<g id="Vector">
<use xlink:href="#path1_fill" transform="translate(4894 -1145.04)" fill="#000000" fill-opacity="0.2"/>
</g>
</g>
</g>
</g>
</g>
</g>
</g>
</g>
<defs>
<path id="path0_fill" d="M 100.141 76.5583C 95.7549 68.4771 90.5981 60.0816 85.3125 52.2976C 74.2383 35.9683 66.9101 27.3797 63 22.5383C 59.0899 27.3797 51.7617 35.9683 40.6875 52.2976C 33.7968 62.4453 27.125 73.6324 22.0937 83.8074C 17.0625 93.9825 14 103.392 14 108.972C 14 131.499 29.3274 150.561 50.0838 156.254C 51.0275 161.538 52.5691 166.622 54.6353 171.433C 23.9257 167.301 0 140.765 0 108.972C 0 99.1521 3.9375 88.5394 9.40625 77.4617C 14.875 66.384 22.2032 54.9234 29.3125 44.4201C 43.5312 23.4409 57.5312 6.56455 57.5312 6.56455L 63 0L 68.4687 6.56455C 68.4687 6.56455 82.4687 23.4409 96.6875 44.4201C 103.076 53.8585 109.641 64.0698 114.875 74.0817C 109.804 74.3802 104.873 75.2251 100.141 76.5583L 100.141 76.5583ZM 51.2532 126.384C 50.02 131.105 49.2703 136.016 49.0606 141.06C 36.7048 135.636 28 123.254 28 108.972L 42 108.972C 42 116.217 45.6711 122.608 51.2532 126.384Z"/>
<path id="path1_fill" d="M 56 112.035C 25.2 112.035 0 86.8271 0 56.0175C 0 25.2079 25.2 0 56 0C 86.8 0 112 25.2079 112 56.0175C 112 86.8271 86.8 112.035 56 112.035ZM 56 14.0044C 32.9 14.0044 14 32.9103 14 56.0175C 14 79.1247 32.9 98.0306 56 98.0306C 79.1 98.0306 98 79.1247 98 56.0175C 98 32.9103 79.1 14.0044 56 14.0044ZM 81.9 39.9125L 72.1 30.1094L 56 46.2144L 39.9 30.1094L 30.1 39.9125L 46.2 56.0175L 30.1 72.1225L 39.9 81.9256L 56 65.8206L 72.1 81.9256L 81.9 72.1225L 65.8 56.0175L 81.9 39.9125Z"/>
</defs>
</svg>
