<svg width="200" height="201" viewBox="0 0 200 201" version="1.1" xmlns="http://www.w3.org/2000/svg" xmlns:xlink="http://www.w3.org/1999/xlink">
<title>icon-empty-appointment</title>
<desc>Created using Figma</desc>
<g id="Canvas" transform="translate(-3702 1227)">
<g id="icon-empty-appointment">
<g id="Group">
<g id="Group">
<g id="Group">
<g id="Group">
<g id="surface1">
<g id="Vector">
<use xlink:href="#path0_fill" transform="translate(3708 -1227)" fill="#000000" fill-opacity="0.2"/>
</g>
</g>
</g>
<g id="Group">
<g id="IOS copy">
<g id="Vector">
<use xlink:href="#path1_fill" transform="translate(3790 -1138)" fill="#000000" fill-opacity="0.2"/>
</g>
</g>
</g>
</g>
</g>
</g>
</g>
</g>
<defs>
<path id="path0_fill" d="M 118.545 77.3314L 118.545 66.5217L 133.364 66.5217L 133.364 74.2825C 128.257 74.7943 123.3 75.8289 118.545 77.3314L 118.545 77.3314ZM 67.0522 155.217C 67.5652 160.311 68.6023 165.257 70.1084 170L 1.31612e-14 170L 1.31612e-14 7.3913L 29.6364 7.3913L 29.6364 0L 44.4545 0L 44.4545 7.3913L 118.545 7.3913L 118.545 0L 133.364 0L 133.364 7.3913L 163 7.3913L 163 77.3314C 158.246 75.8289 153.288 74.7942 148.182 74.2825L 148.182 51.7391L 14.8182 51.7391L 14.8182 155.217L 67.0522 155.217ZM 70.1084 125.652C 68.6023 130.395 67.5651 135.341 67.0522 140.435L 59.2727 140.435L 59.2727 125.652L 70.1084 125.652ZM 59.2727 110.87L 59.2727 96.087L 74.0909 96.087L 74.0909 110.87L 59.2727 110.87ZM 14.8182 36.9565L 148.182 36.9565L 148.182 22.1739L 133.364 22.1739L 133.364 29.5652L 118.545 29.5652L 118.545 22.1739L 44.4545 22.1739L 44.4545 29.5652L 29.6364 29.5652L 29.6364 22.1739L 14.8182 22.1739L 14.8182 36.9565ZM 74.0909 66.5217L 74.0909 81.3043L 59.2727 81.3043L 59.2727 66.5217L 74.0909 66.5217ZM 103.727 66.5217L 103.727 81.3043L 88.9091 81.3043L 88.9091 66.5217L 103.727 66.5217ZM 44.4545 125.652L 44.4545 140.435L 29.6364 140.435L 29.6364 125.652L 44.4545 125.652ZM 44.4545 96.087L 44.4545 110.87L 29.6364 110.87L 29.6364 96.087L 44.4545 96.087Z"/>
<path id="path1_fill" d="M 56 112C 25.2 112 0 86.8 0 56C 0 25.2 25.2 0 56 0C 86.8 0 112 25.2 112 56C 112 86.8 86.8 112 56 112ZM 56 14C 32.9 14 14 32.9 14 56C 14 79.1 32.9 98 56 98C 79.1 98 98 79.1 98 56C 98 32.9 79.1 14 56 14ZM 81.9 39.9L 72.1 30.1L 56 46.2L 39.9 30.1L 30.1 39.9L 46.2 56L 30.1 72.1L 39.9 81.9L 56 65.8L 72.1 81.9L 81.9 72.1L 65.8 56L 81.9 39.9Z"/>
</defs>
</svg>
