<svg width="21" height="20" viewBox="0 0 21 20" version="1.1" xmlns="http://www.w3.org/2000/svg" xmlns:xlink="http://www.w3.org/1999/xlink">
<title>icon-edit-white</title>
<desc>Created using Figma</desc>
<g id="Canvas" transform="translate(1207 1325)">
<g id="icon-edit-white">
<g id="Vector">
<use xlink:href="#path0_fill" transform="translate(-1207 -1325)" fill="#FFFFFF"/>
</g>
</g>
</g>
<defs>
<path id="path0_fill" fill-rule="evenodd" d="M 18.8109 0.994152C 19.2008 1.35803 19.4932 1.73814 19.6881 2.1345C 19.883 2.53087 19.987 2.93047 20 3.33333C 20.013 3.76219 19.922 4.18128 19.7271 4.59064C 19.5321 5 19.2463 5.39961 18.8694 5.78947C 18.6875 5.98441 17.9597 6.71214 16.6862 7.97271C 15.4126 9.23327 14.0383 10.5945 12.5634 12.0565C 11.0884 13.5185 9.7336 14.8603 8.49902 16.0819C 7.26445 17.3034 6.58864 17.9727 6.47168 18.0897C 6.4327 18.1287 6.39045 18.1611 6.34497 18.1871C 6.29948 18.2131 6.25083 18.2326 6.19885 18.2456C 6.01691 18.2976 5.63351 18.4178 5.04871 18.6062C 4.46391 18.7947 3.8629 18.9864 3.24561 19.1813C 2.62833 19.3762 2.07281 19.5549 1.57898 19.7173C 1.08515 19.8798 0.831727 19.961 0.818727 19.961C 0.792737 19.974 0.763448 19.9838 0.730958 19.9903C 0.698468 19.9968 0.662771 20 0.623781 20C 0.545811 20 0.467874 19.9838 0.389894 19.9513C 0.311924 19.9188 0.246928 19.87 0.194948 19.8051C 0.103978 19.7271 0.0455225 19.6296 0.0195325 19.5127C -0.0064575 19.3957 -0.0064575 19.2788 0.0195325 19.1618C 0.0325325 19.1488 0.110469 18.9051 0.253419 18.4308C 0.396369 17.9565 0.56205 17.4074 0.75049 16.7836C 0.93892 16.1598 1.12083 15.5523 1.29627 14.961C 1.4717 14.3697 1.59188 13.9441 1.65686 13.6842C 1.68285 13.6322 1.70887 13.5835 1.73486 13.538C 1.76085 13.4925 1.79341 13.4503 1.8324 13.4113L 7.87525 7.36842C 9.39573 5.84795 10.8025 4.43795 12.0956 3.1384C 13.3886 1.83885 14.0805 1.1501 14.1715 1.07212C 14.3015 0.94217 14.5809 0.730996 15.0098 0.438596C 15.4386 0.146197 15.965 0 16.5887 0C 16.9916 0 17.3782 0.0844696 17.7485 0.253411C 18.1189 0.422353 18.473 0.669264 18.8109 0.994152ZM 13.9766 3.06043C 13.3658 3.65822 12.5861 4.43144 11.6375 5.38012C 10.6888 6.32879 9.71089 7.30994 8.70374 8.32359C 7.69659 9.33724 6.73164 10.3054 5.80896 11.2281L 3.6062 13.4308C 3.86611 13.5348 4.15524 13.6842 4.47363 13.8791C 4.79202 14.0741 5.11371 14.334 5.4386 14.6589C 5.69851 14.9318 5.91624 15.2079 6.09168 15.4873C 6.26712 15.7667 6.40678 16.0234 6.51074 16.2573C 7.05655 15.7115 7.78756 14.987 8.70374 14.0838C 9.61993 13.1806 10.5783 12.232 11.579 11.2378C 12.5796 10.2437 13.551 9.27876 14.4932 8.34308C 15.4353 7.4074 16.2118 6.64068 16.8226 6.04288C 16.8096 5.93892 16.7348 5.69526 16.5984 5.31189C 16.4619 4.92852 16.1988 4.54191 15.809 4.15205C 15.4191 3.77518 15.0553 3.50877 14.7174 3.35283C 14.3795 3.19688 14.1325 3.09942 13.9766 3.06043ZM 2.74854 14.4834C 2.60559 14.9643 2.40735 15.601 2.15393 16.3938C 1.90052 17.1865 1.68292 17.8752 1.50098 18.46C 2.11177 18.2651 2.82001 18.0312 3.62573 17.7583C 4.43145 17.4854 5.04869 17.2775 5.47754 17.1345C 5.41256 16.9396 5.3086 16.6992 5.16565 16.4133C 5.0227 16.1274 4.81477 15.848 4.54187 15.575C 4.17799 15.2112 3.83368 14.948 3.50879 14.7856C 3.1839 14.6231 2.93047 14.5224 2.74854 14.4834ZM 17.9532 4.89279C 18.2132 4.63288 18.408 4.37297 18.538 4.11306C 18.6679 3.85315 18.7329 3.60624 18.7329 3.37232C 18.7329 3.1384 18.6648 2.89799 18.5283 2.65107C 18.3919 2.40416 18.1936 2.15725 17.9337 1.91033C 17.7258 1.7024 17.5082 1.54646 17.2808 1.4425C 17.0533 1.33853 16.8227 1.28655 16.5887 1.28655C 16.1859 1.28655 15.8382 1.39051 15.5458 1.59844C 15.2534 1.80637 15.0942 1.92982 15.0682 1.96881L 14.9707 2.06628C 15.2176 2.17024 15.4905 2.31644 15.7894 2.50487C 16.0883 2.69331 16.3938 2.94347 16.7057 3.25536C 17.0046 3.55426 17.2449 3.85965 17.4269 4.17154C 17.6088 4.48343 17.7453 4.76933 17.8363 5.02924C 17.8623 5.00325 17.8851 4.97726 17.9045 4.95127C 17.924 4.92528 17.9402 4.90578 17.9532 4.89279Z"/>
</defs>
</svg>
