<svg width="21" height="21" viewBox="0 0 21 21" version="1.1" xmlns="http://www.w3.org/2000/svg" xmlns:xlink="http://www.w3.org/1999/xlink">
<title>icon-MasterCard</title>
<desc>Created using Figma</desc>
<g id="Canvas" transform="translate(-4601 -1372)">
<g id="icon-MasterCard">
<g id="icons8-mastercard">
<g id="surface1">
<g id="Vector">
<use xlink:href="#path0_fill" transform="translate(4601 1375)" fill="#52CACD"/>
</g>
</g>
</g>
</g>
</g>
<defs>
<path id="path0_fill" d="M 2.25 0C 1.0166 0 0 1.0166 0 2.25L 0 12.75C 0 13.9834 1.0166 15 2.25 15L 18.75 15C 19.9834 15 21 13.9834 21 12.75L 21 2.25C 21 1.0166 19.9834 0 18.75 0L 2.25 0ZM 2.25 1.5L 18.75 1.5C 19.1748 1.5 19.5 1.8252 19.5 2.25L 19.5 12.75C 19.5 13.1748 19.1748 13.5 18.75 13.5L 2.25 13.5C 1.8252 13.5 1.5 13.1748 1.5 12.75L 1.5 2.25C 1.5 1.8252 1.8252 1.5 2.25 1.5ZM 7.5 2.25C 4.6084 2.25 2.25 4.6084 2.25 7.5C 2.25 10.3916 4.6084 12.75 7.5 12.75C 8.61328 12.75 9.64746 12.4102 10.5 11.8125C 11.3496 12.4072 12.3838 12.75 13.5 12.75C 16.3916 12.75 18.75 10.3916 18.75 7.5C 18.75 4.6084 16.3916 2.25 13.5 2.25C 12.3838 2.25 11.3496 2.59277 10.5 3.1875C 9.64746 2.58984 8.61328 2.25 7.5 2.25ZM 7.5 3.75C 8.46094 3.75 9.32227 4.12207 9.98438 4.71094C 9.67676 5.09473 9.4248 5.52832 9.25781 6L 10.9219 6C 11.0273 6.24023 11.127 6.48926 11.1797 6.75L 9.07031 6.75C 9.0293 6.99316 9 7.24219 9 7.5C 9 7.75781 9.0293 8.00684 9.07031 8.25L 11.1797 8.25C 11.127 8.51074 11.0273 8.75977 10.9219 9L 9.25781 9C 9.4248 9.47168 9.67676 9.90527 9.98438 10.2891C 9.32227 10.8779 8.46094 11.25 7.5 11.25C 5.41992 11.25 3.75 9.58008 3.75 7.5C 3.75 5.41992 5.41992 3.75 7.5 3.75ZM 13.5 3.75C 15.5801 3.75 17.25 5.41992 17.25 7.5C 17.25 9.58008 15.5801 11.25 13.5 11.25C 12.8145 11.25 12.1787 11.0566 11.625 10.7344C 12.3311 9.84082 12.75 8.72168 12.75 7.5C 12.75 6.27832 12.3311 5.15918 11.625 4.26562C 12.1787 3.94336 12.8145 3.75 13.5 3.75Z"/>
</defs>
</svg>
