<svg width="20" height="20" viewBox="0 0 20 20" version="1.1" xmlns="http://www.w3.org/2000/svg" xmlns:xlink="http://www.w3.org/1999/xlink">
<title>icon-schedule</title>
<desc>Created using Figma</desc>
<g id="Canvas" transform="translate(1125 1334)">
<g id="icon-schedule">
<g id="icons8-Schedule">
<g id="surface1">
<g id="Vector">
<use xlink:href="#path0_fill" transform="translate(-1125 -1334)" fill="#FFFFFF"/>
</g>
</g>
</g>
</g>
</g>
<defs>
<path id="path0_fill" d="M 6.15385 0C 2.76442 0 0 2.84505 0 6.33333C 0 8.66813 1.24099 10.703 3.07692 11.8008L 3.07692 19L 20 19L 20 3.16667L 16.1538 3.16667L 16.1538 2.375L 14.6154 2.375L 14.6154 3.16667L 11.4663 3.16667C 10.3996 1.27718 8.42248 0 6.15385 0ZM 6.15385 1.58333C 8.71094 1.58333 10.7692 3.70166 10.7692 6.33333C 10.7692 8.96501 8.71094 11.0833 6.15385 11.0833C 3.59675 11.0833 1.53846 8.96501 1.53846 6.33333C 1.53846 3.70166 3.59675 1.58333 6.15385 1.58333ZM 5.38462 3.16667L 5.38462 6.77865L 4.0625 8.13932L 5.16827 9.27734L 6.70673 7.69401L 6.92308 7.44661L 6.92308 3.16667L 5.38462 3.16667ZM 12.0913 4.75L 14.6154 4.75L 14.6154 5.54167L 16.1538 5.54167L 16.1538 4.75L 18.4615 4.75L 18.4615 6.33333L 12.3077 6.33333C 12.3077 5.78288 12.2206 5.26025 12.0913 4.75ZM 12.0913 7.91667L 18.4615 7.91667L 18.4615 17.4167L 4.61538 17.4167L 4.61538 12.444C 5.11118 12.577 5.61899 12.6667 6.15385 12.6667C 9.00841 12.6667 11.4002 10.638 12.0913 7.91667ZM 12.3077 11.0833L 12.3077 12.6667L 13.8462 12.6667L 13.8462 11.0833L 12.3077 11.0833ZM 15.3846 11.0833L 15.3846 12.6667L 16.9231 12.6667L 16.9231 11.0833L 15.3846 11.0833ZM 6.15385 14.25L 6.15385 15.8333L 7.69231 15.8333L 7.69231 14.25L 6.15385 14.25ZM 9.23077 14.25L 9.23077 15.8333L 10.7692 15.8333L 10.7692 14.25L 9.23077 14.25ZM 12.3077 14.25L 12.3077 15.8333L 13.8462 15.8333L 13.8462 14.25L 12.3077 14.25ZM 15.3846 14.25L 15.3846 15.8333L 16.9231 15.8333L 16.9231 14.25L 15.3846 14.25Z"/>
</defs>
</svg>
