<svg width="20" height="20" viewBox="0 0 20 20" version="1.1" xmlns="http://www.w3.org/2000/svg" xmlns:xlink="http://www.w3.org/1999/xlink">
<title>icon-sign-out</title>
<desc>Created using Figma</desc>
<g id="Canvas" transform="translate(1284 1381)">
<g id="icon-sign-out">
<g id="icon-sign-out">
<g id="Group">
<g id="Vector">
<use xlink:href="#path0_fill" transform="matrix(-1 1.22465e-16 -1.22465e-16 -1 -1265 -1361)" fill="#FFFFFF"/>
</g>
</g>
</g>
</g>
</g>
<defs>
<path id="path0_fill" d="M 0 0L 0 0.769231L 0 19.2308L 0 20L 0.753968 20L 12.8175 20L 13.5714 20L 13.5714 19.2308L 13.5714 16.9231L 13.5714 16.1779L 13.5714 15.5288L 12.7468 14.7115L 12.1106 14.0385L 12.0635 14.0385L 12.0635 16.1779L 12.0635 16.9231L 12.0635 18.4615L 1.50794 18.4615L 1.50794 1.53846L 12.0635 1.53846L 12.0635 3.87019L 12.0635 6.00962L 12.7468 5.28846L 13.5714 4.47115L 13.5714 2.98077L 13.5714 0.769231L 13.5714 0L 12.8175 0L 0.753968 0L 0 0ZM 13.8306 6.37019L 12.7468 7.47596L 14.4668 9.23077L 5.27778 9.23077L 5.27778 10.7692L 14.4668 10.7692L 12.7468 12.524L 13.8306 13.6298L 16.8465 10.5529L 17.3648 10L 16.8465 9.44711L 13.8306 6.37019Z"/>
</defs>
</svg>
