<svg width="200" height="200" viewBox="0 0 200 200" version="1.1" xmlns="http://www.w3.org/2000/svg" xmlns:xlink="http://www.w3.org/1999/xlink">
<title>icon-empty-login</title>
<desc>Created using Figma</desc>
<g id="Canvas" transform="translate(-3207 631)">
<g id="icon-empty-login">
<g id="Group">
<g id="Group">
<g id="Group">
<g id="Group">
<g id="surface1">
<g id="Vector">
<use xlink:href="#path0_fill" transform="translate(3207 -597)" fill="#000000" fill-opacity="0.2"/>
</g>
</g>
</g>
<g id="Group">
<g id="IOS copy">
<g id="Vector">
<use xlink:href="#path1_fill" transform="translate(3296.66 -541.667)" fill="#000000" fill-opacity="0.2"/>
</g>
</g>
</g>
</g>
</g>
</g>
</g>
</g>
<defs>
<path id="path0_fill" d="M 89.7478 69.1664C 89.7169 69.1666 89.6861 69.1667 89.6552 69.1667C 82.0312 69.1667 75.8621 62.9795 75.8621 55.3333C 75.8621 47.6872 82.0312 41.5 89.6552 41.5C 97.2791 41.5 103.448 47.6872 103.448 55.3333C 103.448 55.3643 103.448 55.3953 103.448 55.4262C 98.2697 59.3433 93.6536 63.9729 89.7479 69.1663L 89.7478 69.1664ZM 121.083 45.7499C 123.592 43.1297 127.122 41.5 131.034 41.5C 132.515 41.5 133.941 41.7334 135.278 42.1656C 130.365 42.8557 125.614 44.07 121.083 45.7499L 121.083 45.7499ZM 165.517 44.6989L 165.517 13.8333L 13.7931 13.8333L 13.7931 96.8333L 77.2572 96.8333C 76.3426 101.306 75.8621 105.933 75.8621 110.667L 0 110.667L 0 0L 179.31 0L 179.31 50.8286C 174.985 48.3049 170.365 46.2392 165.517 44.6989ZM 62.069 55.3333C 62.069 62.9795 55.8998 69.1667 48.2759 69.1667C 40.6519 69.1667 34.4828 62.9795 34.4828 55.3333C 34.4828 47.6872 40.6519 41.5 48.2759 41.5C 55.8998 41.5 62.069 47.6872 62.069 55.3333Z"/>
<path id="path1_fill" d="M 55.1724 110.667C 24.8276 110.667 0 85.7667 0 55.3333C 0 24.9 24.8276 0 55.1724 0C 85.5172 0 110.345 24.9 110.345 55.3333C 110.345 85.7667 85.5172 110.667 55.1724 110.667ZM 55.1724 13.8333C 32.4138 13.8333 13.7931 32.5083 13.7931 55.3333C 13.7931 78.1583 32.4138 96.8333 55.1724 96.8333C 77.931 96.8333 96.5517 78.1583 96.5517 55.3333C 96.5517 32.5083 77.931 13.8333 55.1724 13.8333ZM 80.6897 39.425L 71.0345 29.7417L 55.1724 45.65L 39.3103 29.7417L 29.6552 39.425L 45.5172 55.3333L 29.6552 71.2417L 39.3103 80.925L 55.1724 65.0167L 71.0345 80.925L 80.6897 71.2417L 64.8276 55.3333L 80.6897 39.425Z"/>
</defs>
</svg>
