<svg xmlns="http://www.w3.org/2000/svg" width="20" height="20" viewBox="0 0 20 20">
  <path fill="#F0396F" d="M4.5,0 C3.12919183,0 2,1.12919183 2,2.5 L2,17.5 C2,18.8708083 3.12919183,20 4.5,20 L17.8333333,20 L18.6666667,20 L18.6666667,19.1666667 L18.6666667,0.833333333 L18.6666667,0 L17.8333333,0 L4.5,0 Z M4.5,1.66666667 L17,1.66666667 L17,15 L4.5,15 C4.20584742,15 3.92979842,15.06103 3.66666667,15.15625 L3.66666667,2.5 C3.66666667,2.0291415 4.0291415,1.66666667 4.5,1.66666667 Z M9.5,5 L9.5,7.5 L7,7.5 L7,9.16666667 L9.5,9.16666667 L9.5,11.6666667 L11.1666667,11.6666667 L11.1666667,9.16666667 L13.6666667,9.16666667 L13.6666667,7.5 L11.1666667,7.5 L11.1666667,5 L9.5,5 Z M4.5,16.6666667 L17,16.6666667 L17,18.3333333 L4.5,18.3333333 C4.0291415,18.3333333 3.66666667,17.9708583 3.66666667,17.5 C3.66666667,17.0291417 4.0291415,16.6666667 4.5,16.6666667 Z"/>
</svg>
