<svg width="200" height="200" viewBox="0 0 200 200" version="1.1" xmlns="http://www.w3.org/2000/svg" xmlns:xlink="http://www.w3.org/1999/xlink">
<title>icon-empty-allergies</title>
<desc>Created using Figma</desc>
<g id="Canvas" transform="translate(-2143 1561)">
<g id="icon-empty-allergies">
<g id="icons8-Sneeze">
<g id="surface1">
<g id="Vector">
<use xlink:href="#path0_fill" transform="translate(2147 -1561)" fill="#000000" fill-opacity="0.2"/>
</g>
</g>
</g>
</g>
</g>
<defs>
<path id="path0_fill" d="M 17.4548 0C 11.5015 0 5.64163 0.593752 0 1.75L 3.17927 17.4375C 7.76114 16.5 12.5612 16 17.4548 16C 48.063 16 65.4866 24.2812 75.6789 34.9062C 85.8401 45.5312 89.2687 59.3125 89.2687 72L 89.2687 74.4062L 112.833 109.844C 113.737 111.156 113.269 112.5 111.711 113L 89.2687 120.156L 89.2687 144C 89.2687 149.25 86.37 155.531 81.6323 160.281C 76.8634 165.063 70.6295 168 65.3307 168L 49.3721 168L 49.3721 200L 65.3307 200L 65.3307 184C 75.9906 184 85.7154 178.875 92.9155 171.594C 100.147 164.313 105.227 154.625 105.227 144L 105.227 131.844L 116.573 128.25C 127.825 124.656 132.656 110.781 126.111 100.938L 104.729 68.8125C 104.168 53.9063 99.9598 37.1875 87.1492 23.8125C 73.4659 9.53125 51.0241 0 17.4548 0ZM 65.3307 80C 60.9359 80 57.3514 83.5938 57.3514 88C 57.3514 92.4062 60.9359 96 65.3307 96C 69.7256 96 73.3101 92.4062 73.3101 88C 73.3101 83.5938 69.7256 80 65.3307 80ZM 185.021 112C 180.626 112 177.041 115.594 177.041 120C 177.041 124.406 180.626 128 185.021 128C 189.416 128 193 124.406 193 120C 193 115.594 189.416 112 185.021 112ZM 161.083 128C 156.688 128 153.103 131.594 153.103 136C 153.103 140.406 156.688 144 161.083 144C 165.478 144 169.062 140.406 169.062 136C 169.062 131.594 165.478 128 161.083 128ZM 137.145 144C 132.75 144 129.165 147.594 129.165 152C 129.165 156.406 132.75 160 137.145 160C 141.54 160 145.124 156.406 145.124 152C 145.124 147.594 141.54 144 137.145 144ZM 185.021 144C 180.626 144 177.041 147.594 177.041 152C 177.041 156.406 180.626 160 185.021 160C 189.416 160 193 156.406 193 152C 193 147.594 189.416 144 185.021 144ZM 161.083 160C 156.688 160 153.103 163.594 153.103 168C 153.103 172.406 156.688 176 161.083 176C 165.478 176 169.062 172.406 169.062 168C 169.062 163.594 165.478 160 161.083 160ZM 185.021 176C 180.626 176 177.041 179.594 177.041 184C 177.041 188.406 180.626 192 185.021 192C 189.416 192 193 188.406 193 184C 193 179.594 189.416 176 185.021 176Z"/>
</defs>
</svg>
