<svg xmlns="http://www.w3.org/2000/svg" width="20" height="20" viewBox="0 0 20 20">
  <path fill="#F05452" d="M1.75,0 C1.15194496,0 0.56645832,0.06047496 0,0.175 L0.31718752,1.74218752 C0.7795292,1.64871248 1.25845504,1.6 1.75,1.6 C4.81897608,1.6 6.56668,2.42874952 7.5859376,3.49062496 C8.6051944,4.55250056 8.95,5.930612 8.95,7.2 L8.95,7.4421872 L11.3140624,10.9828128 C11.4030168,11.1160528 11.3549984,11.2495296 11.2015624,11.2984376 L8.95,12.0156248 L8.95,14.4 C8.95,14.9237112 8.6580448,15.5530296 8.1828128,16.0296872 C7.7075808,16.5063448 7.0809336,16.8 6.55,16.8 L4.95,16.8 L4.95,20 L6.55,20 L6.55,18.4 C7.6190664,18.4 8.5924192,17.8863176 9.3171872,17.1593752 C10.0419552,16.4324328 10.55,15.4618888 10.55,14.4 L10.55,13.1843752 L11.6875,12.8234376 C12.8140648,12.4643448 13.300396,11.0773096 12.6437504,10.0937504 L10.5,6.8812496 C10.4449888,5.38961432 10.0225,3.7199148 8.7390624,2.38281248 C7.36672,0.953088 5.114624,0 1.75,0 Z M6.55,8 C6.1081722,8 5.75,8.3581722 5.75,8.8 C5.75,9.2418278 6.1081722,9.6 6.55,9.6 C6.9918278,9.6 7.35,9.2418278 7.35,8.8 C7.35,8.3581722 6.9918278,8 6.55,8 Z M18.55,11.2 C18.1081722,11.2 17.75,11.5581722 17.75,12 C17.75,12.4418278 18.1081722,12.8 18.55,12.8 C18.9918278,12.8 19.35,12.4418278 19.35,12 C19.35,11.5581722 18.9918278,11.2 18.55,11.2 Z M16.15,12.8 C15.7081722,12.8 15.35,13.1581722 15.35,13.6 C15.35,14.0418278 15.7081722,14.4 16.15,14.4 C16.5918278,14.4 16.95,14.0418278 16.95,13.6 C16.95,13.1581722 16.5918278,12.8 16.15,12.8 Z M13.75,14.4 C13.3081722,14.4 12.95,14.7581722 12.95,15.2 C12.95,15.6418278 13.3081722,16 13.75,16 C14.1918278,16 14.55,15.6418278 14.55,15.2 C14.55,14.7581722 14.1918278,14.4 13.75,14.4 Z M18.55,14.4 C18.1081722,14.4 17.75,14.7581722 17.75,15.2 C17.75,15.6418278 18.1081722,16 18.55,16 C18.9918278,16 19.35,15.6418278 19.35,15.2 C19.35,14.7581722 18.9918278,14.4 18.55,14.4 Z M16.15,16 C15.7081722,16 15.35,16.3581722 15.35,16.8 C15.35,17.2418278 15.7081722,17.6 16.15,17.6 C16.5918278,17.6 16.95,17.2418278 16.95,16.8 C16.95,16.3581722 16.5918278,16 16.15,16 Z M18.55,17.6 C18.1081722,17.6 17.75,17.9581722 17.75,18.4 C17.75,18.8418278 18.1081722,19.2 18.55,19.2 C18.9918278,19.2 19.35,18.8418278 19.35,18.4 C19.35,17.9581722 18.9918278,17.6 18.55,17.6 Z"/>
</svg>
