<svg width="21" height="21" viewBox="0 0 21 21" version="1.1" xmlns="http://www.w3.org/2000/svg" xmlns:xlink="http://www.w3.org/1999/xlink">
<title>icon-Visa</title>
<desc>Created using Figma</desc>
<g id="Canvas" transform="translate(-4490 -1372)">
<g id="icon-Visa">
<g id="icons8-Visa (3)">
<g id="surface1">
<g id="Vector">
<use xlink:href="#path0_fill" transform="translate(4490 1375)" fill="#52CACD"/>
</g>
</g>
</g>
</g>
</g>
<defs>
<path id="path0_fill" d="M 2.25 0C 1.0166 0 0 1.0166 0 2.25L 0 12.75C 0 13.9834 1.0166 15 2.25 15L 18.75 15C 19.9834 15 21 13.9834 21 12.75L 21 2.25C 21 1.0166 19.9834 0 18.75 0L 2.25 0ZM 2.25 1.5L 18.75 1.5C 19.1748 1.5 19.5 1.8252 19.5 2.25L 19.5 12.75C 19.5 13.1748 19.1748 13.5 18.75 13.5L 2.25 13.5C 1.8252 13.5 1.5 13.1748 1.5 12.75L 1.5 2.25C 1.5 1.8252 1.8252 1.5 2.25 1.5ZM 13.0547 4.78125C 11.6104 4.78125 10.8516 5.49316 10.8516 6.39844C 10.8516 8.0332 12.7734 7.80762 12.7734 8.64844C 12.7734 8.79199 12.6533 9.11719 11.8594 9.11719C 11.0654 9.11719 10.5469 8.83594 10.5469 8.83594L 10.3125 9.91406C 10.3125 9.91406 10.8047 10.2188 11.7891 10.2188C 12.7734 10.2188 14.1562 9.46289 14.1562 8.36719C 14.1562 7.04883 12.2344 6.96094 12.2344 6.375C 12.2344 6.07617 12.4893 5.83594 13.1719 5.83594C 13.6172 5.83594 14.1094 6.1875 14.1094 6.1875L 14.3438 5.03906C 14.3438 5.03906 13.6904 4.78125 13.0547 4.78125ZM 6.89062 4.875L 5.625 8.57812C 5.625 8.57812 5.56055 8.25879 5.53125 8.0625C 4.81641 6.45703 3.65625 5.85938 3.65625 5.85938L 4.75781 10.0547L 6.25781 10.0547L 8.36719 4.875L 6.89062 4.875ZM 8.90625 4.875L 8.08594 10.0547L 9.46875 10.0547L 10.2891 4.875L 8.90625 4.875ZM 16.3594 4.875L 14.1094 10.0547L 15.4688 10.0547L 15.75 9.32812L 17.4844 9.32812L 17.625 10.0547L 18.8672 10.0547L 17.8125 4.875L 16.3594 4.875ZM 2.13281 4.89844C 2.13281 4.89844 4.83105 5.72461 5.46094 7.75781L 4.99219 5.41406C 4.99219 5.41406 4.78711 4.89844 4.24219 4.89844L 2.13281 4.89844ZM 16.875 6.375L 17.2734 8.32031L 16.1484 8.32031L 16.875 6.375Z"/>
</defs>
</svg>
