<svg width="200" height="200" viewBox="0 0 200 200" version="1.1" xmlns="http://www.w3.org/2000/svg" xmlns:xlink="http://www.w3.org/1999/xlink">
<title>icon-empty-ccm</title>
<desc>Created using Figma</desc>
<g id="Canvas" transform="translate(-3468 390)">
<g id="icon-empty-ccm">
<g id="Group">
<g id="Group">
<g id="Group">
<g id="Group">
<g id="surface1">
<g id="Vector">
<use xlink:href="#path0_fill" transform="translate(3468 -377)" fill="#000000" fill-opacity="0.2"/>
</g>
</g>
</g>
<g id="Group">
<g id="IOS copy">
<g id="Vector">
<use xlink:href="#path1_fill" transform="translate(3561.33 -296.857)" fill="#000000" fill-opacity="0.2"/>
</g>
</g>
</g>
</g>
</g>
</g>
</g>
</g>
<defs>
<path id="path0_fill" d="M 92.1547 95.2412L 68.5416 71.5859L 78.1249 61.9855L 99.9999 83.8995L 148.542 35.2712L 158.125 44.8716L 135.268 67.7693C 117.54 70.8617 102.158 81.0321 92.1547 95.2412L 92.1547 95.2412ZM 81.9181 149.457L 16.4583 83.6908C 16.4583 83.6908 12.3437 79.8559 8.33333 73.8817C 4.32293 67.9075 0 59.6376 0 50.0893C 0 22.7228 22.4219 0 50 0C 72.8906 0 87.6302 13.8007 93.3333 19.6183C 99.0365 13.8007 113.776 0 136.667 0C 164.245 0 186.667 22.7228 186.667 50.0893C 186.667 59.9629 182.255 68.6196 178 74.673C 173.845 72.4393 169.431 70.634 164.817 69.3172C 168.476 64.3358 173.333 56.5131 173.333 50.0893C 173.333 30.0275 156.953 13.3571 136.667 13.3571C 116.745 13.3571 98.3333 32.7667 98.3333 32.7667L 93.3333 38.4018L 88.3333 32.7667C 88.3333 32.7667 69.9219 13.3571 50 13.3571C 29.7135 13.3571 13.3333 30.0275 13.3333 50.0893C 13.3333 55.2548 16.1458 61.542 19.375 66.3683C 22.6042 71.1946 25.8333 74.2991 25.8333 74.2991L 80.1741 128.737C 80.0587 130.334 79.9999 131.946 79.9999 133.571C 79.9999 139.04 80.6649 144.361 81.918 149.457L 81.9181 149.457Z"/>
<path id="path1_fill" d="M 53.3333 106.857C 24 106.857 0 82.8143 0 53.4286C 0 24.0429 24 0 53.3333 0C 82.6667 0 106.667 24.0429 106.667 53.4286C 106.667 82.8143 82.6667 106.857 53.3333 106.857ZM 53.3333 13.3571C 31.3333 13.3571 13.3333 31.3893 13.3333 53.4286C 13.3333 75.4679 31.3333 93.5 53.3333 93.5C 75.3333 93.5 93.3333 75.4679 93.3333 53.4286C 93.3333 31.3893 75.3333 13.3571 53.3333 13.3571ZM 78 38.0679L 68.6667 28.7179L 53.3333 44.0786L 38 28.7179L 28.6667 38.0679L 44 53.4286L 28.6667 68.7893L 38 78.1393L 53.3333 62.7786L 68.6667 78.1393L 78 68.7893L 62.6667 53.4286L 78 38.0679Z"/>
</defs>
</svg>
