<svg width="21" height="21" viewBox="0 0 21 21" version="1.1" xmlns="http://www.w3.org/2000/svg" xmlns:xlink="http://www.w3.org/1999/xlink">
<title>icon-account-history</title>
<desc>Created using Figma</desc>
<g id="Canvas" transform="translate(-2604 71)">
<g id="icon-account-history">
<g id="Group">
<g id="Group">
<g id="Group">
<g id="Group">
<g id="surface1">
<g id="Vector">
<use xlink:href="#path0_fill" transform="translate(2604 -71)" fill="#52CACD"/>
</g>
</g>
</g>
<g id="Group">
<g id="IOS copy">
<g id="Vector">
<use xlink:href="#path1_fill" transform="translate(2615.67 -62.4444)" fill="#52CACD"/>
</g>
</g>
</g>
</g>
</g>
</g>
</g>
</g>
<defs>
<path id="path0_fill" d="M 15.5556 7L 15.5556 1.55556L 4.66667 1.55556L 4.66667 10.8889L 3.11111 10.8889L 3.11111 0L 17.1111 0L 17.1111 7L 15.5556 7ZM 10.1111 9.33333L 9.33333 9.33333L 9.33333 7.77778L 10.1111 7.77778L 10.1111 8.55556L 10.1111 9.33333ZM 10.9387 17.1111L 3.11111 17.1111C 1.40061 17.1111 0 15.7105 0 14L 0 11.6667L 10.1111 11.6667L 10.8889 11.6667L 10.9387 17.1111ZM 10.1111 11.6667L 10.8889 11.6667C 10.8889 12.8333 11.2 13.8444 11.9 14.7778C 11.3603 15.4974 11.0517 16.2633 10.9387 17.1111L 10.1111 11.6667ZM 6.22222 4.66667L 7.77778 4.66667L 7.77778 6.22222L 6.22222 6.22222L 6.22222 4.66667ZM 1.55556 14C 1.55556 14.8689 2.24219 15.5556 3.11111 15.5556L 11.3264 15.5556C 11.056 15.0938 10.8889 14.5712 10.8889 14L 10.8889 13.2222L 1.55556 13.2222L 1.55556 14ZM 14 4.66667L 14 6.22222L 9.33333 6.22222L 9.33333 4.66667L 14 4.66667ZM 7.77778 7.77778L 7.77778 9.33333L 6.22222 9.33333L 6.22222 7.77778L 7.77778 7.77778Z"/>
<path id="path1_fill" d="M 8.55556 3.11111L 8.55556 1.55556L 9.33333 1.55556L 9.33333 0L 8.55556 0L 0.777778 0L 0 0L 0 1.55556L 0.777778 1.55556L 0.777778 3.11111C 0.777778 4.35556 1.4 5.52222 2.33333 6.22222C 1.4 6.92222 0.777778 8.08889 0.777778 9.33333L 0.777778 10.8889L 0 10.8889L 0 12.4444L 0.777778 12.4444L 8.55556 12.4444L 9.33333 12.4444L 9.33333 10.8889L 8.55556 10.8889L 8.55556 9.33333C 8.55556 8.08889 7.93333 6.92222 7 6.22222C 7.93333 5.52222 8.55556 4.35556 8.55556 3.11111ZM 7 9.33333L 7 10.8889L 6.22222 10.8889C 6.22222 10.0333 5.52222 9.33333 4.66667 9.33333C 3.81111 9.33333 3.11111 10.0333 3.11111 10.8889L 2.33333 10.8889L 2.33333 9.33333C 2.33333 8.01111 3.34444 7 4.66667 7C 5.98889 7 7 8.01111 7 9.33333ZM 7 3.11111C 7 4.43333 5.98889 5.44444 4.66667 5.44444C 3.34444 5.44444 2.33333 4.43333 2.33333 3.11111L 2.33333 1.55556L 7 1.55556L 7 3.11111ZM 3.11111 3.11111L 6.22222 3.11111C 6.22222 3.11111 6.22222 4.66667 4.66667 4.66667C 3.11111 4.66667 3.11111 3.11111 3.11111 3.11111Z"/>
</defs>
</svg>
