<svg xmlns="http://www.w3.org/2000/svg" xmlns:xlink="http://www.w3.org/1999/xlink" width="19" height="21" viewBox="0 0 19 21">
  <defs>
    <path id="icon-user-a" d="M8.77344877,0 C5.39203177,0 2.63203463,2.73124656 2.63203463,6.07744108 C2.63203463,8.16881271 3.71218655,10.0296184 5.34632035,11.1238877 C2.21671106,12.4520977 0,15.5246166 0,19.1005291 L1.75468975,19.1005291 C1.75468975,16.5910894 3.09378712,14.4061035 5.0995671,13.1858766 C5.6878321,14.6156927 7.12469754,15.6277056 8.77344877,15.6277056 C10.4222,15.6277056 11.8590654,14.6156927 12.4473304,13.1858766 C14.4531102,14.4061035 15.7922078,16.5910894 15.7922078,19.1005291 L17.5468975,19.1005291 C17.5468975,15.5246166 15.3301866,12.4520977 12.2005772,11.1238877 C13.834711,10.0296184 14.9148629,8.16881271 14.9148629,6.07744108 C14.9148629,2.73124656 12.1548658,0 8.77344877,0 Z M8.77344877,1.73641174 C11.2065612,1.73641174 13.1601732,3.66967327 13.1601732,6.07744108 C13.1601732,8.48520863 11.2065612,10.4184704 8.77344877,10.4184704 C6.3403363,10.4184704 4.38672439,8.48520863 4.38672439,6.07744108 C4.38672439,3.66967327 6.3403363,1.73641174 8.77344877,1.73641174 Z M8.77344877,12.1548822 C9.49277506,12.1548822 10.1772085,12.2559925 10.8297258,12.4533279 C10.5263268,13.2898851 9.73032321,13.8912939 8.77344877,13.8912939 C7.81657434,13.8912939 7.02057074,13.2898851 6.71717172,12.4533279 C7.36968907,12.2559925 8.05412248,12.1548822 8.77344877,12.1548822 Z"/>
  </defs>
  <g fill="none" fill-rule="evenodd" transform="translate(.952 .952)">
    <use fill="#FFF" fill-rule="nonzero" xlink:href="#icon-user-a"/>
  </g>
</svg>
