<svg xmlns="http://www.w3.org/2000/svg" width="20" height="20" viewBox="0 0 20 20">
  <path fill="#F05452" d="M8.66666667,0 C8.23148167,0 7.7829425,0.154557917 7.46875,0.46875 C7.1545575,0.782942083 7,1.2314815 7,1.66666667 L7,2.5 L2,2.5 L2,4.16666667 L2.83333333,4.16666667 L2.83333333,17.5 C2.83333333,18.8712125 3.96212125,20 5.33333333,20 L15.3333333,20 C16.7045458,20 17.8333333,18.8712125 17.8333333,17.5 L17.8333333,4.16666667 L18.6666667,4.16666667 L18.6666667,2.5 L13.6666667,2.5 L13.6666667,1.66666667 C13.6666667,1.2314815 13.5121092,0.782942083 13.1979167,0.46875 C12.8837242,0.154557917 12.435185,0 12,0 L8.66666667,0 Z M8.66666667,1.66666667 L12,1.66666667 L12,2.5 L8.66666667,2.5 L8.66666667,1.66666667 Z M4.5,4.16666667 L16.1666667,4.16666667 L16.1666667,17.5 C16.1666667,17.9621208 15.7954542,18.3333333 15.3333333,18.3333333 L5.33333333,18.3333333 C4.8712125,18.3333333 4.5,17.9621208 4.5,17.5 L4.5,4.16666667 Z M6.16666667,6.66666667 L6.16666667,15.8333333 L7.83333333,15.8333333 L7.83333333,6.66666667 L6.16666667,6.66666667 Z M9.5,6.66666667 L9.5,15.8333333 L11.1666667,15.8333333 L11.1666667,6.66666667 L9.5,6.66666667 Z M12.8333333,6.66666667 L12.8333333,15.8333333 L14.5,15.8333333 L14.5,6.66666667 L12.8333333,6.66666667 Z"/>
</svg>
