<svg xmlns="http://www.w3.org/2000/svg" width="20" height="21" viewBox="0 0 20 21">
  <path fill="#474747" fill-rule="evenodd" d="M1108.79138,2.2246208 C1109.18125,2.58849526 1109.47365,2.96860842 1109.66858,3.36497167 C1109.86351,3.76133493 1109.96747,4.16094107 1109.98047,4.56380208 C1109.99346,4.99265413 1109.9025,5.41175325 1109.70756,5.82111202 C1109.51263,6.2304708 1109.22673,6.63007694 1108.84986,7.01994243 C1108.66793,7.21487518 1107.94019,7.94261319 1106.66663,9.2031783 C1105.39307,10.4637434 1104.01881,11.8250034 1102.54382,13.286999 C1101.06883,14.7489946 1099.71407,16.0907615 1098.47949,17.3123401 C1097.24492,18.5339187 1096.56916,19.2031777 1096.4522,19.3201374 C1096.41322,19.3591239 1096.37098,19.3916122 1096.3255,19.4176033 C1096.28001,19.4435943 1096.23128,19.4630873 1096.1793,19.4760828 C1095.99736,19.5280649 1095.614,19.6482716 1095.0292,19.8367066 C1094.4444,20.0251416 1093.84337,20.2168226 1093.22608,20.4117553 C1092.6088,20.606688 1092.05325,20.7853737 1091.55942,20.9478177 C1091.06559,21.1102616 1090.81218,21.1914824 1090.79918,21.1914824 C1090.77319,21.2044779 1090.74395,21.2142244 1090.71146,21.2207222 C1090.67897,21.2272199 1090.64324,21.2304688 1090.60425,21.2304688 C1090.52628,21.2304688 1090.44831,21.2142246 1090.37033,21.1817358 C1090.29236,21.149247 1090.22738,21.1005146 1090.1754,21.035537 C1090.08443,20.9575639 1090.02595,20.860099 1089.99996,20.7431393 C1089.97397,20.6261797 1089.97397,20.5092218 1089.99996,20.3922621 C1090.01296,20.3792666 1090.09093,20.1356043 1090.23388,19.661268 C1090.37683,19.1869316 1090.54252,18.6378793 1090.73096,18.0140945 C1090.91939,17.3903097 1091.10133,16.7827784 1091.27677,16.1914824 C1091.4522,15.6001864 1091.57241,15.1745896 1091.63739,14.9146793 C1091.66338,14.8626972 1091.68937,14.8139648 1091.71536,14.7684804 C1091.74135,14.7229961 1091.77384,14.6807613 1091.81283,14.6417748 L1097.85571,8.5988898 C1099.37619,7.07841436 1100.78293,5.66842197 1102.07599,4.36887031 C1103.36904,3.06931865 1104.06104,2.38056661 1104.15201,2.30259351 C1104.28196,2.17263834 1104.56136,1.96146436 1104.99022,1.66906524 C1105.41907,1.37666612 1105.94538,1.23046875 1106.56916,1.23046875 C1106.97202,1.23046875 1107.35863,1.31493834 1107.72901,1.48388006 C1108.09938,1.65282177 1108.4535,1.89973288 1108.79138,2.2246208 Z M1103.95708,4.2908976 C1103.34629,4.88869136 1102.56657,5.661913 1101.6179,6.61058571 C1100.66922,7.55925842 1099.69132,8.5404052 1098.68417,9.55405549 C1097.67702,10.5677058 1096.71212,11.5358572 1095.78944,12.4585389 L1093.58671,14.661268 C1093.84662,14.7652321 1094.13576,14.9146783 1094.45415,15.1096111 C1094.77254,15.3045438 1095.09418,15.5644502 1095.41907,15.8893381 C1095.67898,16.162244 1095.89665,16.4383946 1096.07209,16.7177982 C1096.24753,16.9972018 1096.38723,17.2538594 1096.49119,17.4877787 C1097.037,16.941967 1097.76799,16.2174778 1098.68417,15.3142894 C1099.60036,14.411101 1100.55876,13.4624425 1101.55942,12.4682855 C1102.56007,11.4741285 1103.53147,10.5092259 1104.47365,9.57354867 C1105.41582,8.63787148 1106.19229,7.8711475 1106.80308,7.27335374 C1106.79009,7.16938961 1106.71536,6.92572733 1106.57891,6.54235959 C1106.44246,6.15899185 1106.1793,5.77238103 1105.78944,5.38251553 C1105.39957,5.00564555 1105.0357,4.73924146 1104.69782,4.58329526 C1104.35993,4.42734906 1104.11302,4.32988415 1103.95708,4.2908976 Z M1092.72901,15.7138995 C1092.58606,16.1947337 1092.38788,16.8315044 1092.13446,17.6242309 C1091.88105,18.4169574 1091.66338,19.1057095 1091.48144,19.6905077 C1092.09223,19.495575 1092.80048,19.2616592 1093.6062,18.9887534 C1094.41192,18.7158475 1095.0292,18.5079224 1095.45805,18.3649717 C1095.39307,18.1700389 1095.28911,17.9296255 1095.14616,17.6437241 C1095.00321,17.3578227 1094.79528,17.0784233 1094.52238,16.8055175 C1094.1585,16.441643 1093.81413,16.1784878 1093.48924,16.0160438 C1093.16435,15.8535998 1092.91094,15.7528861 1092.72901,15.7138995 Z M1107.93369,6.12325627 C1108.1936,5.86334594 1108.38853,5.60343951 1108.51848,5.34352918 C1108.64844,5.08361885 1108.71341,4.83670774 1108.71341,4.60278844 C1108.71341,4.36886914 1108.64519,4.12845569 1108.50873,3.88154087 C1108.37228,3.63462606 1108.1741,3.38771495 1107.91419,3.14080013 C1107.70626,2.93287187 1107.48859,2.77692801 1107.26117,2.67296388 C1107.03375,2.56899974 1106.80308,2.51701846 1106.56916,2.51701846 C1106.1663,2.51701846 1105.81868,2.62098103 1105.52628,2.8289093 C1105.23388,3.03683756 1105.07469,3.16029312 1105.04869,3.19927967 L1104.95123,3.29674555 C1105.19814,3.40070969 1105.47105,3.54690705 1105.76994,3.73534204 C1106.06884,3.92377703 1106.37423,4.17393698 1106.68612,4.48582937 C1106.98502,4.78472625 1107.22543,5.09011631 1107.40737,5.40200871 C1107.58931,5.71390111 1107.72576,5.99979818 1107.81673,6.25970852 C1107.84272,6.23371748 1107.86546,6.20772684 1107.88495,6.18173581 C1107.90445,6.15574477 1107.92069,6.13625179 1107.93369,6.12325627 Z" transform="translate(-1090 -1)"/>
</svg>
