<svg width="20" height="20" viewBox="0 0 20 20" version="1.1" xmlns="http://www.w3.org/2000/svg" xmlns:xlink="http://www.w3.org/1999/xlink">
<title>icon-date-white</title>
<desc>Created using Figma</desc>
<g id="Canvas" transform="translate(1284 1416)">
<g id="icon-date-white">
<g id="icons8-Calendar (2)">
<g id="surface1">
<g id="Vector">
<use xlink:href="#path0_fill" transform="translate(-1284 -1416)" fill="#FFFFFF"/>
</g>
</g>
</g>
</g>
</g>
<defs>
<path id="path0_fill" d="M 3.45455 0L 3.45455 0.869565L 0 0.869565L 0 20L 19 20L 19 0.869565L 15.5455 0.869565L 15.5455 0L 13.8182 0L 13.8182 0.869565L 5.18182 0.869565L 5.18182 0L 3.45455 0ZM 1.72727 2.6087L 3.45455 2.6087L 3.45455 3.47826L 5.18182 3.47826L 5.18182 2.6087L 13.8182 2.6087L 13.8182 3.47826L 15.5455 3.47826L 15.5455 2.6087L 17.2727 2.6087L 17.2727 4.34783L 1.72727 4.34783L 1.72727 2.6087ZM 1.72727 6.08696L 17.2727 6.08696L 17.2727 18.2609L 1.72727 18.2609L 1.72727 6.08696ZM 6.90909 7.82609L 6.90909 9.56522L 8.63636 9.56522L 8.63636 7.82609L 6.90909 7.82609ZM 10.3636 7.82609L 10.3636 9.56522L 12.0909 9.56522L 12.0909 7.82609L 10.3636 7.82609ZM 13.8182 7.82609L 13.8182 9.56522L 15.5455 9.56522L 15.5455 7.82609L 13.8182 7.82609ZM 3.45455 11.3043L 3.45455 13.0435L 5.18182 13.0435L 5.18182 11.3043L 3.45455 11.3043ZM 6.90909 11.3043L 6.90909 13.0435L 8.63636 13.0435L 8.63636 11.3043L 6.90909 11.3043ZM 10.3636 11.3043L 10.3636 13.0435L 12.0909 13.0435L 12.0909 11.3043L 10.3636 11.3043ZM 13.8182 11.3043L 13.8182 13.0435L 15.5455 13.0435L 15.5455 11.3043L 13.8182 11.3043ZM 3.45455 14.7826L 3.45455 16.5217L 5.18182 16.5217L 5.18182 14.7826L 3.45455 14.7826ZM 6.90909 14.7826L 6.90909 16.5217L 8.63636 16.5217L 8.63636 14.7826L 6.90909 14.7826ZM 10.3636 14.7826L 10.3636 16.5217L 12.0909 16.5217L 12.0909 14.7826L 10.3636 14.7826Z"/>
</defs>
</svg>
