<svg width="20" height="20" viewBox="0 0 20 20" version="1.1" xmlns="http://www.w3.org/2000/svg" xmlns:xlink="http://www.w3.org/1999/xlink">
<title>icon-message</title>
<desc>Created using Figma</desc>
<g id="Canvas" transform="translate(1182 1382)">
<g id="icon-message">
<g id="icons8-New Message">
<g id="surface1">
<g id="Vector">
<use xlink:href="#path0_fill" transform="translate(-1182 -1381)" fill="#FFFFFF"/>
</g>
</g>
</g>
</g>
</g>
<defs>
<path id="path0_fill" d="M 0 0L 0 12.24L 9.00862 12.24C 9.35345 14.9148 11.6783 17 14.4828 17C 17.5216 17 20 14.5562 20 11.56C 20 9.84672 19.1918 8.33 17.931 7.33125L 17.931 0L 0 0ZM 2.97414 1.36L 14.9569 1.36L 8.96552 5.29125L 2.97414 1.36ZM 1.37931 1.955L 8.57759 6.69375L 8.96552 6.9275L 9.35345 6.69375L 16.5517 1.955L 16.5517 6.52375C 15.9106 6.26344 15.2182 6.12 14.4828 6.12C 11.6783 6.12 9.35345 8.20516 9.00862 10.88L 1.37931 10.88L 1.37931 1.955ZM 14.4828 7.48C 16.7753 7.48 18.6207 9.29953 18.6207 11.56C 18.6207 13.8205 16.7753 15.64 14.4828 15.64C 12.1902 15.64 10.3448 13.8205 10.3448 11.56C 10.3448 9.29953 12.1902 7.48 14.4828 7.48ZM 13.7931 8.84L 13.7931 10.88L 11.7241 10.88L 11.7241 12.24L 13.7931 12.24L 13.7931 14.28L 15.1724 14.28L 15.1724 12.24L 17.2414 12.24L 17.2414 10.88L 15.1724 10.88L 15.1724 8.84L 13.7931 8.84Z"/>
</defs>
</svg>
