<svg width="20" height="20" viewBox="0 0 20 20" version="1.1" xmlns="http://www.w3.org/2000/svg" xmlns:xlink="http://www.w3.org/1999/xlink">
<title>icon-view-details</title>
<desc>Created using Figma</desc>
<g id="Canvas" transform="translate(1207 1353)">
<g id="icon-view-details">
<g id="icons8-View Details">
<g id="Group">
<g id="Group">
<g id="Group">
<g id="Group">
<g id="surface1">
<g id="Vector">
<use xlink:href="#path0_fill" transform="translate(-1205 -1353)" fill="#474747"/>
</g>
</g>
</g>
<g id="Group">
<g id="IOS copy">
<g id="Vector">
<use xlink:href="#path1_fill" transform="translate(-1197.63 -1342.94)" fill="#474747"/>
</g>
</g>
</g>
</g>
</g>
</g>
</g>
</g>
</g>
<defs>
<path id="path0_fill" d="M 7.01982 17.2824L 0 17.2824L 0 1.63042L 4.82986 1.63042L 6.81597 0.256208L 7.22222 0L 7.62847 0.256208L 9.61458 1.63042L 14.4444 1.63042L 14.4444 8.42415C 14.1232 8.35877 13.7912 8.32447 13.4514 8.32447C 13.2994 8.32447 13.1489 8.33132 13 8.34475L 13 3.12109L 9.1632 3.12109L 8.98264 3.00463L 7.22222 1.79346L 5.46181 3.00463L 5.28125 3.12109L 1.44444 3.12109L 1.44444 15.7917L 8.46426 15.7917L 7.01982 17.2824ZM 9.19936 10.5744L 5.77778 10.5744L 5.77778 9.08374L 10.7883 9.08374C 10.167 9.4651 9.62548 9.97425 9.19936 10.5744L 9.19936 10.5744ZM 8.18497 13.5557L 5.77778 13.5557L 5.77778 12.0651L 8.44965 12.0651C 8.29604 12.5379 8.20439 13.0383 8.18497 13.5557ZM 11.5556 6.10241L 11.5556 7.59308L 5.77778 7.59308L 5.77778 6.10241L 11.5556 6.10241ZM 4.33333 6.10241L 4.33333 7.59308L 2.88889 7.59308L 2.88889 6.10241L 4.33333 6.10241ZM 4.33333 9.08374L 4.33333 10.5744L 2.88889 10.5744L 2.88889 9.08374L 4.33333 9.08374ZM 4.33333 12.0651L 4.33333 13.5557L 2.88889 13.5557L 2.88889 12.0651L 4.33333 12.0651Z"/>
<path id="path1_fill" d="M 5.76216 -2.9706e-07C 3.65406 -2.9706e-07 1.8973 1.81297 1.8973 3.98854C 1.8973 4.85877 2.17838 5.58395 2.6 6.23663L 5.03845e-07 8.91982L 0.983783 9.93509L 3.58378 7.25189C 4.21622 7.687 4.98919 7.97707 5.76216 7.97707C 7.87027 7.97707 9.62703 6.1641 9.62703 3.98854C 9.62703 1.81297 7.87027 -2.9706e-07 5.76216 -2.9706e-07ZM 5.76216 6.5267C 4.42703 6.5267 3.3027 5.3664 3.3027 3.98854C 3.3027 2.61068 4.42703 1.45037 5.76216 1.45037C 7.0973 1.45037 8.22163 2.61068 8.22163 3.98854C 8.22163 5.3664 7.0973 6.5267 5.76216 6.5267Z"/>
</defs>
</svg>
