<svg width="200" height="200" viewBox="0 0 200 200" version="1.1" xmlns="http://www.w3.org/2000/svg" xmlns:xlink="http://www.w3.org/1999/xlink">
<title>icon-empty-goals</title>
<desc>Created using Figma</desc>
<g id="Canvas" transform="translate(-7621 2347)">
<g id="icon-empty-goals">
<g id="Group">
<g id="Group">
<g id="Group">
<g id="Group">
<g id="surface1">
<g id="Vector">
<use xlink:href="#path0_fill" transform="translate(7621 -2347)" fill="#000000" fill-opacity="0.2"/>
</g>
</g>
</g>
<g id="Group">
<g id="IOS copy">
<g id="Vector">
<use xlink:href="#path1_fill" transform="translate(7710.65 -2257.34)" fill="#000000" fill-opacity="0.2"/>
</g>
</g>
</g>
</g>
</g>
</g>
</g>
</g>
<defs>
<path id="path0_fill" d="M 79.5492 122.628C 65.4481 118.301 55.1724 105.159 55.1724 89.6552C 55.1724 70.6358 70.6358 55.1724 89.6552 55.1724C 91.2716 55.1724 92.8341 55.3879 94.3966 55.6035L 75 75C 73.1681 76.8319 71.7134 78.9332 70.6897 81.25C 70.6358 81.3577 70.7435 81.5733 70.6897 81.681C 70.2586 82.7048 69.8814 83.6207 69.6121 84.6983C 69.5582 84.9408 69.4504 85.3179 69.3966 85.5603C 69.1272 86.9073 68.9655 88.2543 68.9655 89.6552C 68.9655 98.222 74.2726 105.469 81.681 108.621C 82.896 109.136 84.1499 109.56 85.4488 109.859C 83.0686 113.875 81.0838 118.15 79.5492 122.629L 79.5492 122.628ZM 164.731 78.8077C 163.366 69.482 160.272 60.7312 155.819 52.8017L 165.948 42.6724C 173.657 55.1441 178.413 69.5847 179.196 85.097C 174.67 82.4755 169.822 80.3534 164.731 78.8077L 164.731 78.8077ZM 85.0972 179.196C 37.7722 176.814 0 137.561 0 89.6552C 0 40.2209 40.2209 0 89.6552 0C 106.897 0 122.953 4.90303 136.638 13.3621L 126.509 23.4914C 115.571 17.3491 103.071 13.7931 89.6552 13.7931C 47.8179 13.7931 13.7931 47.8179 13.7931 89.6552C 13.7931 127.812 42.0943 159.47 78.812 164.745C 80.3574 169.832 82.478 174.674 85.0971 179.196L 85.0972 179.196ZM 136.07 76.4195C 135.787 75.4311 135.473 74.4549 135.129 73.4914L 145.69 62.931C 147.676 67.0839 149.211 71.484 150.235 76.0736C 148.45 75.9335 146.647 75.8621 144.828 75.8621C 141.863 75.8621 138.94 76.0517 136.07 76.4195ZM 76.0728 150.226C 48.3652 144.012 27.5862 119.205 27.5862 89.6552C 27.5862 55.4418 55.4418 27.5862 89.6552 27.5862C 99.2188 27.5862 108.27 29.7414 116.379 33.6207L 105.819 44.181C 100.754 42.3761 95.3394 41.3793 89.6552 41.3793C 63.0388 41.3793 41.3793 63.0388 41.3793 89.6552C 41.3793 111.683 56.2148 130.316 76.4175 136.086C 76.051 138.95 75.8621 141.868 75.8621 144.828C 75.8621 146.644 75.9332 148.444 76.0728 150.226ZM 177.371 11.8534L 94.6121 94.6121C 93.3728 95.8513 91.5679 96.5517 89.6552 96.5517C 85.8567 96.5517 82.7586 93.4537 82.7586 89.6552C 82.7586 87.7425 83.459 85.9375 84.6983 84.6983L 167.457 1.93966L 177.371 11.8534Z"/>
<path id="path1_fill" d="M 55.1724 110.345C 24.8276 110.345 0 85.5172 0 55.1724C 0 24.8276 24.8276 0 55.1724 0C 85.5172 0 110.345 24.8276 110.345 55.1724C 110.345 85.5172 85.5172 110.345 55.1724 110.345ZM 55.1724 13.7931C 32.4138 13.7931 13.7931 32.4138 13.7931 55.1724C 13.7931 77.931 32.4138 96.5517 55.1724 96.5517C 77.931 96.5517 96.5517 77.931 96.5517 55.1724C 96.5517 32.4138 77.931 13.7931 55.1724 13.7931ZM 80.6897 39.3103L 71.0345 29.6552L 55.1724 45.5172L 39.3103 29.6552L 29.6552 39.3103L 45.5172 55.1724L 29.6552 71.0345L 39.3103 80.6897L 55.1724 64.8276L 71.0345 80.6897L 80.6897 71.0345L 64.8276 55.1724L 80.6897 39.3103Z"/>
</defs>
</svg>
