<svg width="21" height="21" viewBox="0 0 21 21" version="1.1" xmlns="http://www.w3.org/2000/svg" xmlns:xlink="http://www.w3.org/1999/xlink">
<title>icon-American-Express</title>
<desc>Created using Figma</desc>
<g id="Canvas" transform="translate(-4573 -1372)">
<g id="icon-American-Express">
<g id="icons8-american-express">
<g id="surface1">
<g id="Vector">
<use xlink:href="#path0_fill" transform="translate(4573 1375)" fill="#52CACD"/>
</g>
</g>
</g>
</g>
</g>
<defs>
<path id="path0_fill" d="M 2.25 0C 1.0166 0 0 1.0166 0 2.25L 0 12.75C 0 13.9834 1.0166 15 2.25 15L 18.75 15C 19.9834 15 21 13.9834 21 12.75L 21 2.25C 21 1.0166 19.9834 0 18.75 0L 2.25 0ZM 2.25 1.5L 18.75 1.5C 19.1748 1.5 19.5 1.8252 19.5 2.25L 19.5 12.75C 19.5 13.1748 19.1748 13.5 18.75 13.5L 2.25 13.5C 1.8252 13.5 1.5 13.1748 1.5 12.75L 1.5 2.25C 1.5 1.8252 1.8252 1.5 2.25 1.5ZM 3.79688 5.4375L 2.25 9.5625L 3.1875 9.5625L 3.49219 8.625L 5.25 8.625L 5.55469 9.5625L 7.3125 9.5625L 7.3125 6.46875L 8.4375 9.5625L 9.25781 9.5625L 10.4062 6.5625L 10.4062 9.5625L 11.2266 9.5625L 11.2266 5.4375L 9.89062 5.4375L 8.85938 8.22656L 7.82812 5.4375L 6.375 5.4375L 6.375 9.35156L 4.92188 5.4375L 3.79688 5.4375ZM 12.3516 5.4375L 12.3516 9.5625L 15.6562 9.5625L 16.6875 8.22656L 17.7188 9.5625L 18.75 9.5625L 17.2031 7.5L 18.75 5.4375L 17.625 5.4375L 16.5938 6.67969L 15.75 5.4375L 12.3516 5.4375ZM 4.3125 6.25781L 4.82812 7.71094L 3.79688 7.71094L 4.3125 6.25781ZM 13.1719 6.375L 15.2344 6.375L 16.0781 7.5L 15.1406 8.74219L 13.1719 8.74219L 13.1719 7.92188L 15.0469 7.92188L 15.0469 7.07812L 13.1719 7.07812L 13.1719 6.375Z"/>
</defs>
</svg>
