<svg width="20" height="20" viewBox="0 0 20 20" version="1.1" xmlns="http://www.w3.org/2000/svg" xmlns:xlink="http://www.w3.org/1999/xlink">
<title>icon-connect-practice</title>
<desc>Created using Figma</desc>
<g id="Canvas" transform="translate(1284 1325)">
<g id="icon-connect-practice">
<g id="surface1">
<g id="Vector">
<use xlink:href="#path0_fill" transform="translate(-1284 -1325)" fill="#FFFFFF"/>
</g>
</g>
</g>
</g>
<defs>
<path id="path0_fill" d="M 18.8698 0L 16.7813 2.08845L 16.4373 1.7199C 15.6726 0.95516 14.6683 0.565111 13.6609 0.565111C 12.6536 0.565111 11.6493 0.95516 10.8845 1.7199L 10.3194 2.26044L 9.60688 2.97297L 8.99263 2.35872L 7.86241 3.48894L 10.0491 5.67568L 7.86241 7.86241L 8.99263 8.99263L 11.1794 6.8059L 13.1941 8.82064L 11.0074 11.0074L 12.1376 12.1376L 14.3243 9.95086L 16.5111 12.1376L 17.6413 11.0074L 17.027 10.3931L 18.2801 9.11548C 19.8096 7.586 19.8096 5.09214 18.2801 3.56265L 17.9115 3.21867L 20 1.13022L 18.8698 0ZM 13.6609 2.13759C 14.2629 2.13759 14.8679 2.36179 15.3317 2.82555L 17.1744 4.6683C 18.102 5.59582 18.102 7.08231 17.1744 8.00983L 16.9779 8.18182L 15.8968 9.2629L 10.7371 4.10319L 11.9902 2.82555C 12.4539 2.36179 13.059 2.13759 13.6609 2.13759ZM 3.48894 7.86241L 2.35872 8.99263L 2.97297 9.60688L 1.7199 10.8845C 0.190418 12.414 0.190418 14.9079 1.7199 16.4373L 2.06388 16.8059L 0 18.8698L 1.13022 20L 3.1941 17.9361L 3.56265 18.2801C 5.09214 19.8096 7.586 19.8096 9.11548 18.2801L 10.3931 17.027L 11.0074 17.6413L 12.1376 16.5111L 3.48894 7.86241ZM 4.10319 10.7371L 9.2629 15.8968L 8.00983 17.1744C 7.08231 18.102 5.59582 18.102 4.6683 17.1744L 4.49631 16.9779L 2.82555 15.3317C 1.89803 14.4042 1.89803 12.9177 2.82555 11.9902L 4.10319 10.7371Z"/>
</defs>
</svg>
