<svg width="200" height="200" viewBox="0 0 200 200" version="1.1" xmlns="http://www.w3.org/2000/svg" xmlns:xlink="http://www.w3.org/1999/xlink">
<title>icon-empty-blood</title>
<desc>Created using Figma</desc>
<g id="Canvas" transform="translate(-4530 1233)">
<g id="icon-empty-blood">
<g id="Group">
<g id="Group">
<g id="Group">
<g id="Group">
<g id="surface1">
<g id="Vector">
<use xlink:href="#path0_fill" transform="translate(4530 -1233)" fill="#000000" fill-opacity="0.2"/>
</g>
</g>
</g>
<g id="Group">
<g id="IOS copy">
<g id="Vector">
<use xlink:href="#path1_fill" transform="translate(4619.65 -1143.34)" fill="#000000" fill-opacity="0.2"/>
</g>
</g>
</g>
</g>
</g>
</g>
</g>
</g>
<defs>
<path id="path0_fill" d="M 89.7479 103.448C 89.717 103.448 89.6861 103.448 89.6552 103.448C 88.4699 103.448 87.3115 103.314 86.2069 103.017L 73.9224 115.302C 77.5054 122.98 76.1315 132.489 69.8276 138.793L 60.1293 129.095C 62.8233 126.401 62.7155 122.144 60.1293 119.397L 60.1293 119.181C 57.3815 116.433 52.9634 116.433 50.2155 119.181L 40.5172 109.483C 44.5312 105.469 49.8653 103.448 55.1724 103.448C 58.1897 103.448 61.2069 104.095 64.0086 105.388L 76.2931 93.1035C 75.9968 91.9989 75.8621 90.8405 75.8621 89.6552C 75.8621 82.1121 82.1121 75.8621 89.6552 75.8621C 90.8405 75.8621 91.9989 75.9968 93.1035 76.2931L 119.181 50.2155L 129.095 60.1293L 103.017 86.2069C 103.314 87.3115 103.448 88.4699 103.448 89.6552C 103.448 89.6861 103.448 89.717 103.448 89.7478C 98.2697 93.6535 93.6535 98.2697 89.7478 103.448L 89.7479 103.448ZM 164.752 78.8143C 159.51 41.9986 127.946 13.7931 89.6552 13.7931C 47.6832 13.7931 13.7931 47.6832 13.7931 89.6552C 13.7931 127.946 41.9986 159.51 78.8143 164.752C 80.3595 169.836 82.4793 174.676 85.0972 179.196C 37.7722 176.814 0 137.561 0 89.6552C 0 40.2209 40.2209 0 89.6552 0C 137.561 0 176.814 37.7721 179.196 85.0972C 174.676 82.4793 169.836 80.3595 164.752 78.8143Z"/>
<path id="path1_fill" d="M 55.1724 110.345C 24.8276 110.345 0 85.5172 0 55.1724C 0 24.8276 24.8276 0 55.1724 0C 85.5172 0 110.345 24.8276 110.345 55.1724C 110.345 85.5172 85.5172 110.345 55.1724 110.345ZM 55.1724 13.7931C 32.4138 13.7931 13.7931 32.4138 13.7931 55.1724C 13.7931 77.931 32.4138 96.5517 55.1724 96.5517C 77.931 96.5517 96.5517 77.931 96.5517 55.1724C 96.5517 32.4138 77.931 13.7931 55.1724 13.7931ZM 80.6897 39.3103L 71.0345 29.6552L 55.1724 45.5172L 39.3103 29.6552L 29.6552 39.3103L 45.5172 55.1724L 29.6552 71.0345L 39.3103 80.6897L 55.1724 64.8276L 71.0345 80.6897L 80.6897 71.0345L 64.8276 55.1724L 80.6897 39.3103Z"/>
</defs>
</svg>
