<svg xmlns="http://www.w3.org/2000/svg" width="21" height="21" viewBox="0 0 21 21">
  <path fill="#52CACD" d="M12.9230769,0 C8.47188219,0 4.84615385,3.62572851 4.84615385,8.07692308 C4.84615385,10.0113381 5.52376795,11.782701 6.66346154,13.1754808 L0.227163462,19.6117788 L1.38822115,20.7728365 L7.82451923,14.3365385 C9.217299,15.4762319 10.9886619,16.1538462 12.9230769,16.1538462 C17.3742717,16.1538462 21,12.5281178 21,8.07692308 C21,3.62572851 17.3742717,0 12.9230769,0 Z M12.9230769,1.61538462 C16.5012532,1.61538462 19.3846154,4.49874713 19.3846154,8.07692308 C19.3846154,11.6550993 16.5012532,14.5384615 12.9230769,14.5384615 C9.34490065,14.5384615 6.46153846,11.6550993 6.46153846,8.07692308 C6.46153846,4.49874713 9.34490065,1.61538462 12.9230769,1.61538462 Z"/>
</svg>
