<svg width="200" height="200" viewBox="0 0 200 200" version="1.1" xmlns="http://www.w3.org/2000/svg" xmlns:xlink="http://www.w3.org/1999/xlink">
<title>icon-empty-document</title>
<desc>Created using Figma</desc>
<g id="Canvas" transform="translate(-2842 1461)">
<g id="icon-empty-document">
<g id="surface1">
<g id="Vector">
<use xlink:href="#path0_fill" transform="translate(2842 -1461)" fill="#000000" fill-opacity="0.2"/>
</g>
</g>
</g>
</g>
<defs>
<path id="path0_fill" d="M 85.7143 0L 85.7143 35.7143L 100 50L 100 14.2857L 150 14.2857L 150 50L 185.714 50L 185.714 142.857L 128.571 142.857L 128.571 157.143L 200 157.143L 200 39.8438L 198.41 37.9464L 164.09 1.70201L 162.305 0L 85.7143 0ZM 165.709 20.7589L 180.357 36.2723L 165.709 36.2723L 165.709 20.7589ZM 0 42.8571L 0 200L 114.286 200L 114.286 82.7009L 112.695 80.8036L 78.5714 42.8571L 0 42.8571ZM 14.2857 57.1429L 64.2857 57.1429L 64.2857 92.8571L 100 92.8571L 100 185.714L 14.2857 185.714L 14.2857 57.1429ZM 79.9944 63.6161L 94.6429 79.1295L 79.9944 79.1295L 79.9944 63.6161ZM 128.571 71.4286L 128.571 85.7143L 171.429 85.7143L 171.429 71.4286L 128.571 71.4286ZM 128.571 100L 128.571 114.286L 171.429 114.286L 171.429 100L 128.571 100ZM 28.5714 114.286L 28.5714 128.571L 85.7143 128.571L 85.7143 114.286L 28.5714 114.286ZM 28.5714 142.857L 28.5714 157.143L 85.7143 157.143L 85.7143 142.857L 28.5714 142.857Z"/>
</defs>
</svg>
