<svg width="200" height="200" viewBox="0 0 200 200" version="1.1" xmlns="http://www.w3.org/2000/svg" xmlns:xlink="http://www.w3.org/1999/xlink">
<title>icon-not-found</title>
<desc>Created using Figma</desc>
<g id="Canvas" transform="translate(-2484 1859)">
<g id="icon-not-found">
<g id="surface1">
<g id="Vector">
<use xlink:href="#path0_fill" transform="translate(2484 -1859)" fill="#000000" fill-opacity="0.2"/>
</g>
</g>
</g>
</g>
<defs>
<path id="path0_fill" d="M 122.2 0C 79.3192 0 44.4005 34.9187 44.4005 77.7997C 44.4005 96.4595 51.0257 113.569 62.027 127.002L -9.01031e-08 188.999L 11.0014 200L 72.998 137.973C 86.4306 148.974 103.54 155.599 122.2 155.599C 165.081 155.599 200 120.681 200 77.7997C 200 34.9187 165.081 0 122.2 0ZM 122.2 15.5599C 156.663 15.5599 184.44 43.3369 184.44 77.7997C 184.44 112.263 156.663 140.04 122.2 140.04C 87.7374 140.04 59.9605 112.263 59.9605 77.7997C 59.9605 43.3369 87.7374 15.5599 122.2 15.5599ZM 98.8604 54.4598C 94.5753 54.4598 91.0804 57.9547 91.0804 62.2398C 91.0804 66.5248 94.5753 70.0198 98.8604 70.0198C 103.145 70.0198 106.64 66.5248 106.64 62.2398C 106.64 57.9547 103.145 54.4598 98.8604 54.4598ZM 145.54 54.4598C 141.255 54.4598 137.76 57.9547 137.76 62.2398C 137.76 66.5248 141.255 70.0198 145.54 70.0198C 149.825 70.0198 153.32 66.5248 153.32 62.2398C 153.32 57.9547 149.825 54.4598 145.54 54.4598ZM 122.2 85.5797C 105.03 85.5797 93.7547 95.2743 93.7547 95.2743C 91.5666 97.0369 90.5334 99.8936 91.05 102.69C 91.5362 105.455 93.542 107.765 96.2164 108.646C 98.8907 109.558 101.869 108.92 103.966 107.005C 103.966 107.005 110.652 101.14 122.2 101.14C 133.749 101.14 140.435 107.005 140.435 107.005C 142.532 108.92 145.51 109.558 148.184 108.646C 150.859 107.765 152.864 105.455 153.351 102.69C 153.867 99.8936 152.834 97.0369 150.646 95.2743C 150.646 95.2743 139.371 85.5797 122.2 85.5797Z"/>
</defs>
</svg>
