<svg width="21" height="21" viewBox="0 0 21 21" version="1.1" xmlns="http://www.w3.org/2000/svg" xmlns:xlink="http://www.w3.org/1999/xlink">
<title>icon-payments</title>
<desc>Created using Figma</desc>
<g id="Canvas" transform="translate(-2553 649)">
<g id="icon-payments">
<g id="icons8-Payment History (1)">
<g id="surface1">
<g id="Vector">
<use xlink:href="#path0_fill" transform="translate(2553 -647)" fill="#52CACD"/>
</g>
</g>
</g>
</g>
</g>
<defs>
<path id="path0_fill" d="M 0 0L 0 11.3333L 13.6719 11.3333C 13.3055 10.9211 13.0348 10.4368 12.8516 9.91667L 2.73984 9.91667C 2.77812 9.80322 2.8 9.68424 2.8 9.5625C 2.8 8.97591 2.32969 8.5 1.75 8.5C 1.62969 8.5 1.51211 8.52214 1.4 8.56364L 1.4 2.76969C 1.51211 2.8112 1.62969 2.83333 1.75 2.83333C 2.32969 2.83333 2.8 2.35742 2.8 1.77083C 2.8 1.64909 2.77812 1.53011 2.73984 1.41667L 15.4629 1.41667C 15.4219 1.53011 15.4 1.64909 15.4 1.77083C 15.4 2.35742 15.8703 2.83333 16.45 2.83333C 16.5703 2.83333 16.6879 2.8112 16.8 2.76969L 16.8 4.95833L 18.2 4.95833L 18.2 0L 0 0ZM 9.1 2.83333C 7.55234 2.83333 6.3 4.10059 6.3 5.66667L 6.3 6.375L 6.44219 6.375C 6.75664 7.58691 7.80117 8.5 9.1 8.5C 9.95039 8.5 10.6914 8.12923 11.2 7.54264L 11.2 4.95833L 11.8043 4.95833C 11.5008 3.72428 10.4262 2.83333 9.1 2.83333ZM 9.1 4.25C 9.89844 4.25 10.5 4.85872 10.5 5.66667C 10.5 6.47461 9.89844 7.08333 9.1 7.08333C 8.26602 7.08333 7.7 6.51058 7.7 5.66667C 7.7 4.82275 8.26602 4.25 9.1 4.25ZM 4.2 4.60417C 3.62031 4.60417 3.15 5.08008 3.15 5.66667C 3.15 6.25326 3.62031 6.72917 4.2 6.72917C 4.77969 6.72917 5.25 6.25326 5.25 5.66667C 5.25 5.08008 4.77969 4.60417 4.2 4.60417ZM 12.6 5.66667L 12.6 7.08333L 13.3 7.08333L 13.3 8.5C 13.3 9.63444 13.8605 10.6969 14.7 11.3333C 13.8605 11.9697 13.3 13.0322 13.3 14.1667L 13.3 15.5833L 12.6 15.5833L 12.6 17L 21 17L 21 15.5833L 20.3 15.5833L 20.3 14.1667C 20.3 13.0322 19.7395 11.9697 18.9 11.3333C 19.7395 10.6969 20.3 9.63444 20.3 8.5L 20.3 7.08333L 21 7.08333L 21 5.66667L 12.6 5.66667ZM 14.7 7.08333L 18.9 7.08333L 18.9 8.5C 18.9 9.70361 17.9895 10.625 16.8 10.625C 15.6105 10.625 14.7 9.70361 14.7 8.5L 14.7 7.08333ZM 15.4 8.5C 15.4 8.5 15.4 9.91667 16.8 9.91667C 18.2 9.91667 18.2 8.5 18.2 8.5L 15.4 8.5ZM 16.8 12.0417C 17.9895 12.0417 18.9 12.9631 18.9 14.1667L 18.9 15.5833L 18.2 15.5833C 18.2 14.8031 17.5711 14.1667 16.8 14.1667C 16.0289 14.1667 15.4 14.8031 15.4 15.5833L 14.7 15.5833L 14.7 14.1667C 14.7 12.9631 15.6105 12.0417 16.8 12.0417Z"/>
</defs>
</svg>
