<svg width="21" height="21" viewBox="0 0 21 21" version="1.1" xmlns="http://www.w3.org/2000/svg" xmlns:xlink="http://www.w3.org/1999/xlink">
<title>icon-add</title>
<desc>Created using Figma</desc>
<g id="Canvas" transform="translate(1259 1353)">
<g id="icon-add">
<g id="surface1">
<g id="Vector">
<use xlink:href="#path0_fill" transform="translate(-1259 -1353)" fill="#FFFFFF"/>
</g>
</g>
</g>
</g>
<defs>
<path id="path0_fill" d="M 10.5 0C 4.71049 0 0 4.71049 0 10.5C 0 16.2895 4.71049 21 10.5 21C 16.2895 21 21 16.2895 21 10.5C 21 4.71049 16.2895 0 10.5 0ZM 10.5 1.61538C 15.4156 1.61538 19.3846 5.58444 19.3846 10.5C 19.3846 15.4156 15.4156 19.3846 10.5 19.3846C 5.58444 19.3846 1.61538 15.4156 1.61538 10.5C 1.61538 5.58444 5.58444 1.61538 10.5 1.61538ZM 9.69231 6.46154L 9.69231 9.69231L 6.46154 9.69231L 6.46154 11.3077L 9.69231 11.3077L 9.69231 14.5385L 11.3077 14.5385L 11.3077 11.3077L 14.5385 11.3077L 14.5385 9.69231L 11.3077 9.69231L 11.3077 6.46154L 9.69231 6.46154Z"/>
</defs>
</svg>
