<svg xmlns="http://www.w3.org/2000/svg" xmlns:xlink="http://www.w3.org/1999/xlink" width="17" height="20" viewBox="0 0 17 20">
  <defs>
    <path id="icon-connect-a" d="M7.17362637,0 L7.17362637,1.6 L5.57948718,1.6 L5.57948718,3.2 L7.17362637,3.2 L7.17362637,4.8 L8.76776557,4.8 L8.76776557,3.2 L10.3619048,3.2 L10.3619048,1.6 L8.76776557,1.6 L8.76776557,0 L7.17362637,0 Z M0,1.6 L0,2.4 L0,19.2 L0,20 L0.797069597,20 L6.37655678,20 L7.17362637,20 L7.17362637,19.2 L7.17362637,17.6 L8.76776557,17.6 L8.76776557,19.2 L8.76776557,20 L9.56483516,20 L15.1443223,20 L15.9413919,20 L15.9413919,19.2 L15.9413919,2.4 L15.9413919,1.6 L15.1443223,1.6 L11.956044,1.6 L11.956044,3.2 L14.3472527,3.2 L14.3472527,18.4 L10.3619048,18.4 L10.3619048,16.8 L10.3619048,16 L9.56483516,16 L6.37655678,16 L5.57948718,16 L5.57948718,16.8 L5.57948718,18.4 L1.59413919,18.4 L1.59413919,3.2 L3.98534799,3.2 L3.98534799,1.6 L0.797069597,1.6 L0,1.6 Z M3.98534799,6.4 L3.98534799,8 L5.57948718,8 L5.57948718,6.4 L3.98534799,6.4 Z M7.17362637,6.4 L7.17362637,8 L8.76776557,8 L8.76776557,6.4 L7.17362637,6.4 Z M10.3619048,6.4 L10.3619048,8 L11.956044,8 L11.956044,6.4 L10.3619048,6.4 Z M3.98534799,9.6 L3.98534799,11.2 L5.57948718,11.2 L5.57948718,9.6 L3.98534799,9.6 Z M7.17362637,9.6 L7.17362637,11.2 L8.76776557,11.2 L8.76776557,9.6 L7.17362637,9.6 Z M10.3619048,9.6 L10.3619048,11.2 L11.956044,11.2 L11.956044,9.6 L10.3619048,9.6 Z M3.98534799,12.8 L3.98534799,14.4 L5.57948718,14.4 L5.57948718,12.8 L3.98534799,12.8 Z M7.17362637,12.8 L7.17362637,14.4 L8.76776557,14.4 L8.76776557,12.8 L7.17362637,12.8 Z M10.3619048,12.8 L10.3619048,14.4 L11.956044,14.4 L11.956044,12.8 L10.3619048,12.8 Z"/>
  </defs>
  <g fill="none" fill-rule="evenodd" transform="translate(.905)">
    <use fill="#FFF" fill-rule="nonzero" xlink:href="#icon-connect-a"/>
  </g>
</svg>
