<svg width="21" height="21" viewBox="0 0 21 21" version="1.1" xmlns="http://www.w3.org/2000/svg" xmlns:xlink="http://www.w3.org/1999/xlink">
<title>icon-checkbox-unchecked-grey</title>
<desc>Created using Figma</desc>
<g id="Canvas" transform="translate(1407 1242)">
<g id="icon-checkbox-unchecked-grey">
<g id="icon--checkbox-unchecked">
<mask id="mask0_outline_ins">
<use xlink:href="#path0_fill" fill="white" transform="translate(-1407 -1242)"/>
</mask>
<g mask="url(#mask0_outline_ins)">
<use xlink:href="#path1_stroke_2x" transform="translate(-1407 -1242)" fill="#474747"/>
</g>
</g>
</g>
</g>
<defs>
<path id="path0_fill" d="M 0 0L 21 0L 21 21L 0 21L 0 0Z"/>
<path id="path1_stroke_2x" d="M 0 0L 0 -1L -1 -1L -1 0L 0 0ZM 21 0L 22 0L 22 -1L 21 -1L 21 0ZM 21 21L 21 22L 22 22L 22 21L 21 21ZM 0 21L -1 21L -1 22L 0 22L 0 21ZM 0 1L 21 1L 21 -1L 0 -1L 0 1ZM 20 0L 20 21L 22 21L 22 0L 20 0ZM 21 20L 0 20L 0 22L 21 22L 21 20ZM 1 21L 1 0L -1 0L -1 21L 1 21Z"/>
</defs>
</svg>
