<svg width="200" height="194" viewBox="0 0 200 194" version="1.1" xmlns="http://www.w3.org/2000/svg" xmlns:xlink="http://www.w3.org/1999/xlink">
<title>icon-empty-chart</title>
<desc>Created using Figma</desc>
<g id="Canvas" transform="translate(-3483 1082)">
<g id="icon-empty-chart">
<g id="Group">
<g id="Group">
<g id="Group">
<g id="Group">
<g id="surface1">
<g id="Vector">
<use xlink:href="#path0_fill" transform="matrix(6.1428e-17 -1 1 6.10373e-17 3483 -928.66)" fill="#000000" fill-opacity="0.2"/>
</g>
</g>
</g>
<g id="Group">
<g id="IOS copy">
<g id="Vector">
<use xlink:href="#path1_fill" transform="matrix(6.1428e-17 -1 1 6.10373e-17 3556.83 -894.56)" fill="#000000" fill-opacity="0.2"/>
</g>
</g>
</g>
</g>
</g>
</g>
</g>
</g>
<defs>
<path id="path0_fill" d="M 0 63.2997L 0 0L 153.34 0L 153.34 72.9007L 151.38 75.0899L 139.4 87.1306L 139.4 182.142L 67.9407 182.142C 72.5325 178.028 76.5839 173.316 79.9704 168.131L 125.46 168.131L 125.46 87.1306L 113.48 75.0899L 111.52 72.9007L 111.52 14.011L 13.94 14.011L 13.94 60.2461C 9.13231 60.7848 4.46819 61.8202 0 63.2997ZM 125.46 66.9899L 132.43 73.9953L 139.4 66.9899L 139.4 14.011L 125.46 14.011L 125.46 66.9899Z"/>
<path id="path1_fill" d="M 55.76 112.088C 25.092 112.088 -1.62455e-07 86.8679 -1.62455e-07 56.0438C -1.62455e-07 25.2197 25.092 -1.55639e-06 55.76 -1.55639e-06C 86.428 -1.55639e-06 111.52 25.2197 111.52 56.0438C 111.52 86.8679 86.428 112.088 55.76 112.088L 55.76 112.088ZM 55.76 14.011C 32.759 14.011 13.94 32.9257 13.94 56.0438C 13.94 79.1619 32.759 98.0767 55.76 98.0767C 78.761 98.0767 97.58 79.1619 97.58 56.0438C 97.58 32.9257 78.761 14.011 55.76 14.011ZM 81.549 39.9312L 71.791 30.1236L 55.76 46.2361L 39.729 30.1236L 29.971 39.9312L 46.002 56.0438L 29.971 72.1564L 39.729 81.9641L 55.76 65.8515L 71.791 81.9641L 81.549 72.1564L 65.518 56.0438L 81.549 39.9312Z"/>
</defs>
</svg>
