<svg width="20" height="20" viewBox="0 0 20 20" version="1.1" xmlns="http://www.w3.org/2000/svg" xmlns:xlink="http://www.w3.org/1999/xlink">
<title>icons8-advertisement-page</title>
<desc>Created using Figma</desc>
<g id="Canvas" transform="translate(-654 236)">
<g id="icons8-advertisement-page">
<g id="Group">
<g id="Group">
<g id="Group">
<g id="surface1">
<g id="Vector">
<use xlink:href="#path0_fill" transform="matrix(0.7 0 0 0.7 654 -235.231)" fill="#474747"/>
</g>
</g>
</g>
</g>
</g>
</g>
</g>
<defs>
<path id="path0_fill" d="M 1.90939 0L 1.90939 21.089L 4.13123 18.95L 4.13123 8.55592L 26.3496 8.55592L 26.3496 23.5288L 8.81791 23.5288L 6.59608 25.6678L 28.5714 25.6678L 28.5714 0L 1.90939 0ZM 4.13123 2.13898L 26.3496 2.13898L 26.3496 6.41694L 4.13123 6.41694L 4.13123 2.13898ZM 5.24214 3.20847L 5.24214 5.34745L 7.46398 5.34745L 7.46398 3.20847L 5.24214 3.20847ZM 8.5749 3.20847L 8.5749 5.34745L 10.7967 5.34745L 10.7967 3.20847L 8.5749 3.20847ZM 11.9077 3.20847L 11.9077 5.34745L 14.1295 5.34745L 14.1295 3.20847L 11.9077 3.20847ZM 6.31835 13.9034L 6.31835 16.0424L 10.276 16.0424L -7.44779e-08 25.9351L 1.59694 27.4725L 11.8729 17.5797L 11.8729 21.3898L 14.0948 21.3898L 14.0948 13.9034L 6.31835 13.9034Z"/>
</defs>
</svg>
