<svg xmlns="http://www.w3.org/2000/svg" xmlns:xlink="http://www.w3.org/1999/xlink" width="44" height="45" viewBox="0 0 44 45">
  <defs>
    <path id="icon-appoinments-sm-a" d="M7.82608696,0 L7.82608696,1.95652174 L1.95652174,1.95652174 L0,1.95652174 L0,3.91304348 L0,43.0434783 L0,45 L1.95652174,45 L41.0869565,45 L43.0434783,45 L43.0434783,43.0434783 L43.0434783,3.91304348 L43.0434783,1.95652174 L41.0869565,1.95652174 L35.2173913,1.95652174 L35.2173913,0 L31.3043478,0 L31.3043478,1.95652174 L11.7391304,1.95652174 L11.7391304,0 L7.82608696,0 Z M3.91304348,5.86956522 L7.82608696,5.86956522 L7.82608696,7.82608696 L11.7391304,7.82608696 L11.7391304,5.86956522 L31.3043478,5.86956522 L31.3043478,7.82608696 L35.2173913,7.82608696 L35.2173913,5.86956522 L39.1304348,5.86956522 L39.1304348,9.7826087 L3.91304348,9.7826087 L3.91304348,5.86956522 Z M3.91304348,13.6956522 L39.1304348,13.6956522 L39.1304348,41.0869565 L3.91304348,41.0869565 L3.91304348,13.6956522 Z M15.6521739,17.6086957 L15.6521739,21.5217391 L19.5652174,21.5217391 L19.5652174,17.6086957 L15.6521739,17.6086957 Z M23.4782609,17.6086957 L23.4782609,21.5217391 L27.3913043,21.5217391 L27.3913043,17.6086957 L23.4782609,17.6086957 Z M31.3043478,17.6086957 L31.3043478,21.5217391 L35.2173913,21.5217391 L35.2173913,17.6086957 L31.3043478,17.6086957 Z M7.82608696,25.4347826 L7.82608696,29.3478261 L11.7391304,29.3478261 L11.7391304,25.4347826 L7.82608696,25.4347826 Z M15.6521739,25.4347826 L15.6521739,29.3478261 L19.5652174,29.3478261 L19.5652174,25.4347826 L15.6521739,25.4347826 Z M23.4782609,25.4347826 L23.4782609,29.3478261 L27.3913043,29.3478261 L27.3913043,25.4347826 L23.4782609,25.4347826 Z M31.3043478,25.4347826 L31.3043478,29.3478261 L35.2173913,29.3478261 L35.2173913,25.4347826 L31.3043478,25.4347826 Z M7.82608696,33.2608696 L7.82608696,37.173913 L11.7391304,37.173913 L11.7391304,33.2608696 L7.82608696,33.2608696 Z M15.6521739,33.2608696 L15.6521739,37.173913 L19.5652174,37.173913 L19.5652174,33.2608696 L15.6521739,33.2608696 Z M23.4782609,33.2608696 L23.4782609,37.173913 L27.3913043,37.173913 L27.3913043,33.2608696 L23.4782609,33.2608696 Z"/>
  </defs>
  <g fill="none" fill-rule="evenodd">
    <mask id="icon-appoinments-sm-b" fill="#fff">
      <use xlink:href="#icon-appoinments-sm-a"/>
    </mask>
    <use fill="#99C13D" fill-rule="nonzero" xlink:href="#icon-appoinments-sm-a"/>
    <g fill="#F0396F" mask="url(#icon-appoinments-sm-b)">
      <rect width="45" height="45" transform="translate(-1)"/>
    </g>
  </g>
</svg>
