<svg width="20" height="20" viewBox="0 0 20 20" version="1.1" xmlns="http://www.w3.org/2000/svg" xmlns:xlink="http://www.w3.org/1999/xlink">
<title>icon-add-family</title>
<desc>Created using Figma</desc>
<g id="Canvas" transform="translate(31 1699)">
<g id="icon-add-family">
<g id="surface1">
<g id="Vector">
<use xlink:href="#path0_fill" transform="translate(-31 -1699)" fill="#FFFFFF"/>
</g>
</g>
</g>
</g>
<defs>
<path id="path0_fill" d="M 7.14286 0C 4.38895 0 2.14286 2.24609 2.14286 5C 2.14286 6.72154 3.02176 8.25056 4.35268 9.15179C 1.80525 10.2455 0 12.7734 0 15.7143L 1.42857 15.7143C 1.42857 12.5502 3.97879 10 7.14286 10C 8.125 10 9.04018 10.2567 9.84375 10.692C 9.05134 11.6741 8.57143 12.9297 8.57143 14.2857C 8.57143 17.433 11.1384 20 14.2857 20C 17.433 20 20 17.433 20 14.2857C 20 11.1384 17.433 8.57143 14.2857 8.57143C 13.0385 8.57143 11.8778 8.98158 10.9375 9.66518C 10.6222 9.46708 10.279 9.29966 9.93304 9.15179C 11.264 8.25056 12.1429 6.72154 12.1429 5C 12.1429 2.24609 9.89676 0 7.14286 0ZM 7.14286 1.42857C 9.12388 1.42857 10.7143 3.01897 10.7143 5C 10.7143 6.98103 9.12388 8.57143 7.14286 8.57143C 5.16183 8.57143 3.57143 6.98103 3.57143 5C 3.57143 3.01897 5.16183 1.42857 7.14286 1.42857ZM 14.2857 10C 16.6602 10 18.5714 11.9113 18.5714 14.2857C 18.5714 16.6602 16.6602 18.5714 14.2857 18.5714C 11.9113 18.5714 10 16.6602 10 14.2857C 10 11.9113 11.9113 10 14.2857 10ZM 13.5714 11.4286L 13.5714 13.5714L 11.4286 13.5714L 11.4286 15L 13.5714 15L 13.5714 17.1429L 15 17.1429L 15 15L 17.1429 15L 17.1429 13.5714L 15 13.5714L 15 11.4286L 13.5714 11.4286Z"/>
</defs>
</svg>
