<svg width="200" height="200" viewBox="0 0 200 200" version="1.1" xmlns="http://www.w3.org/2000/svg" xmlns:xlink="http://www.w3.org/1999/xlink">
<title>icon-empty-security</title>
<desc>Created using Figma</desc>
<g id="Canvas" transform="translate(207 462)">
<g id="icon-empty-security">
<g id="Group">
<g id="Group">
<g id="Group">
<g id="Group">
<g id="surface1">
<g id="Vector">
<use xlink:href="#path0_fill" transform="translate(-200 -462)" fill="#000000" fill-opacity="0.2"/>
</g>
</g>
</g>
<g id="Group">
<g id="IOS copy">
<g id="Vector">
<use xlink:href="#path1_fill" transform="translate(-121.37 -376.286)" fill="#000000" fill-opacity="0.2"/>
</g>
</g>
</g>
</g>
</g>
</g>
</g>
</g>
<defs>
<path id="path0_fill" d="M 138.139 71.4661C 140.542 60.493 142.101 48.2272 142.488 34.5424C 128.024 33.0356 116.883 28.7109 108.451 24.135C 98.3987 18.6941 91.1389 14.2856 78.6297 14.2856C 66.1204 14.2856 58.9164 18.6941 48.8922 24.135C 40.4596 28.7109 29.2906 33.0356 14.7989 34.5424C 16.1392 82.7009 32.1387 113.337 48.2779 131.892C 54.2105 138.712 59.7544 143.741 64.4783 147.415C 64.9178 154.303 66.3459 160.934 68.6215 167.167C 61.2163 162.915 49.2235 154.749 37.4999 141.267C 18.6242 119.559 9.70742e-08 83.7053 9.70742e-08 28.5714L 9.70742e-08 21.4286L 7.14815 21.4286C 23.4549 21.4286 32.3621 16.8526 42.0792 11.5792C 51.7683 6.30578 62.5463 9.70023e-08 78.6297 9.70023e-08C 94.713 9.70023e-08 105.519 6.30578 115.264 11.5792C 124.981 16.8526 133.888 21.4286 150.111 21.4286L 157.259 21.4286L 157.259 28.5714C 157.259 45.2535 155.566 60.1651 152.684 73.4509C 147.995 72.3065 143.13 71.6274 138.139 71.4661L 138.139 71.4661ZM 88.3679 89.5461C 78.8387 98.029 71.5772 109.008 67.6392 121.428L 64.3333 121.428L 69.7224 83.7332C 62.0995 80.2734 57.1851 72.6562 57.1851 64.2856C 57.1851 52.4553 66.7905 42.8571 78.6296 42.8571C 90.4687 42.8571 100.074 52.4553 100.074 64.2856C 100.074 72.6561 95.1597 80.2734 87.5368 83.7332L 88.3679 89.5461Z"/>
<path id="path1_fill" d="M 57.1852 114.286C 25.7333 114.286 0 88.5714 0 57.1429C 0 25.7143 25.7333 0 57.1852 0C 88.6371 0 114.37 25.7143 114.37 57.1429C 114.37 88.5714 88.6371 114.286 57.1852 114.286ZM 57.1852 14.2857C 33.5963 14.2857 14.2963 33.5714 14.2963 57.1429C 14.2963 80.7143 33.5963 100 57.1852 100C 80.7741 100 100.074 80.7143 100.074 57.1429C 100.074 33.5714 80.7741 14.2857 57.1852 14.2857ZM 83.6334 40.7143L 73.626 30.7143L 57.1852 47.1429L 40.7445 30.7143L 30.737 40.7143L 47.1778 57.1429L 30.737 73.5714L 40.7445 83.5714L 57.1852 67.1429L 73.626 83.5714L 83.6334 73.5714L 67.1926 57.1429L 83.6334 40.7143Z"/>
</defs>
</svg>
