<svg width="70" height="70" viewBox="0 0 70 70" version="1.1" xmlns="http://www.w3.org/2000/svg" xmlns:xlink="http://www.w3.org/1999/xlink">
<title>icon-provider</title>
<desc>Created using Figma</desc>
<g id="Canvas" transform="translate(-788 2382)">
<g id="icon-provider">
<g id="Ellipse">
<use xlink:href="#path0_fill" transform="translate(788 -2382)" fill="#F05452"/>
</g>
<g id="icons8-medical-doctor">
<g id="surface1">
<g id="Vector">
<use xlink:href="#path1_fill" transform="translate(807 -2367)" fill="#FFFFFF"/>
</g>
</g>
</g>
</g>
</g>
<defs>
<path id="path0_fill" d="M 70 35C 70 54.33 54.33 70 35 70C 15.67 70 0 54.33 0 35C 0 15.67 15.67 0 35 0C 54.33 0 70 15.67 70 35Z"/>
<path id="path1_fill" d="M 6.65 0L 6.4 1.35417L 4.8 10.7292L 4.8 16.6667L 4.95 16.6667C 5.4125 19.987 7.19375 22.8841 9.75 24.6875C 4.04375 27.2396 0 33.138 0 40L 3.2 40C 3.2 35.7812 5.075 32.0247 8 29.5833L 8 30.6771L 8.45 31.1979L 14.85 37.8646L 16 39.0104L 17.15 37.8646L 23.55 31.1979L 24 30.6771L 24 29.5833C 26.925 32.0247 28.8 35.7812 28.8 40L 32 40C 32 33.138 27.9562 27.2396 22.25 24.6875C 24.8062 22.8841 26.5875 19.987 27.05 16.6667L 27.2 16.6667L 27.2 10.7292L 25.6 1.35417L 25.35 0L 6.65 0ZM 9.35 3.33333L 22.65 3.33333L 24 11.3021L 24 13.3333L 8 13.3333L 8 11.3021L 9.35 3.33333ZM 14.4 5L 14.4 6.66667L 12.8 6.66667L 12.8 10L 14.4 10L 14.4 11.6667L 17.6 11.6667L 17.6 10L 19.2 10L 19.2 6.66667L 17.6 6.66667L 17.6 5L 14.4 5ZM 8.15 16.6667L 23.85 16.6667C 23.1062 20.4753 19.8812 23.3333 16 23.3333C 12.1188 23.3333 8.89375 20.4753 8.15 16.6667ZM 16 26.6667C 17.6938 26.6667 19.3188 26.9857 20.8 27.6042L 20.8 29.2708L 16 34.2708L 11.2 29.2708L 11.2 27.6042C 12.6812 26.9857 14.3062 26.6667 16 26.6667Z"/>
</defs>
</svg>
