<svg xmlns="http://www.w3.org/2000/svg" width="20" height="20" viewBox="0 0 20 20">
  <path fill="#52CACD" d="M5,3 C3.03601493,3 1.42857143,4.6074435 1.42857143,6.57142857 C1.42857143,7.654035 1.93355436,8.61590571 2.70089286,9.27232143 C1.103352,10.11012 0,11.7967629 0,13.7142857 L1.42857143,13.7142857 C1.42857143,11.7467536 3.0324675,10.1428571 5,10.1428571 C5.98796429,10.1428571 6.78567857,10.4827057 7.41071429,11.1026786 C7.24442,11.464075 7.14285714,11.8641636 7.14285714,12.2857143 C7.14285714,13.0815907 7.48232929,13.7971871 8.01339286,14.3169643 C7.06283,14.961115 6.42857143,16.060065 6.42857143,17.2857143 L7.85714286,17.2857143 C7.85714286,16.1038964 8.81818214,15.1428571 10,15.1428571 C11.1818179,15.1428571 12.1428571,16.1038964 12.1428571,17.2857143 L13.5714286,17.2857143 C13.5714286,16.060065 12.93717,14.961115 11.9866071,14.3169643 C12.5176707,13.7971871 12.8571429,13.0815907 12.8571429,12.2857143 C12.8571429,11.8641636 12.75558,11.464075 12.5892857,11.1026786 C13.2143214,10.4827057 14.0120357,10.1428571 15,10.1428571 C16.9675321,10.1428571 18.5714286,11.7467536 18.5714286,13.7142857 L20,13.7142857 C20,11.7967629 18.8966479,10.11012 17.2991071,9.27232143 C18.0664457,8.61590571 18.5714286,7.654035 18.5714286,6.57142857 C18.5714286,4.6074435 16.963985,3 15,3 C13.036015,3 11.4285714,4.6074435 11.4285714,6.57142857 C11.4285714,7.654035 11.9335543,8.61590571 12.7008929,9.27232143 C12.3339686,9.46619286 12.0023579,9.72616 11.6964286,10.0089286 C11.2187,9.649805 10.6391179,9.42857143 10,9.42857143 C9.36088214,9.42857143 8.7813,9.649805 8.30357143,10.0089286 C7.99764214,9.72616 7.66603143,9.46619286 7.29910714,9.27232143 C8.06644571,8.61590571 8.57142857,7.654035 8.57142857,6.57142857 C8.57142857,4.6074435 6.963985,3 5,3 Z M5,4.42857143 C6.19192786,4.42857143 7.14285714,5.37950079 7.14285714,6.57142857 C7.14285714,7.76335643 6.19192786,8.71428571 5,8.71428571 C3.80807221,8.71428571 2.85714286,7.76335643 2.85714286,6.57142857 C2.85714286,5.37950079 3.80807221,4.42857143 5,4.42857143 Z M15,4.42857143 C16.1919279,4.42857143 17.1428571,5.37950079 17.1428571,6.57142857 C17.1428571,7.76335643 16.1919279,8.71428571 15,8.71428571 C13.8080721,8.71428571 12.8571429,7.76335643 12.8571429,6.57142857 C12.8571429,5.37950079 13.8080721,4.42857143 15,4.42857143 Z M10,10.8571429 C10.7974386,10.8571429 11.4285714,11.4882757 11.4285714,12.2857143 C11.4285714,13.0831529 10.7974386,13.7142857 10,13.7142857 C9.20256143,13.7142857 8.57142857,13.0831529 8.57142857,12.2857143 C8.57142857,11.4882757 9.20256143,10.8571429 10,10.8571429 Z"/>
</svg>
