<svg width="25" height="25" viewBox="0 0 25 25" version="1.1" xmlns="http://www.w3.org/2000/svg" xmlns:xlink="http://www.w3.org/1999/xlink">
<title>icon-map-marker</title>
<desc>Created using Figma</desc>
<g id="Canvas" transform="translate(-9542 1025)">
<g id="icon-map-marker">
<g id="icons8-Marker (1)">
<g id="surface1">
<g id="Vector">
<use xlink:href="#path0_fill" transform="matrix(-1 0 0 1 9563 -1025)" fill="#52CACD"/>
</g>
</g>
</g>
</g>
</g>
<defs>
<path id="path0_fill" d="M 8.5 0C 3.81836 0 0 3.77848 0 8.41121C 0 9.72547 0.538629 11.2332 1.2691 12.8797C 1.99957 14.5261 2.94032 16.2748 3.89583 17.903C 5.80686 21.1631 7.73264 23.8902 7.73264 23.8902L 8.5 25L 9.26736 23.8902C 9.26736 23.8902 11.1931 21.1631 13.1042 17.903C 14.0597 16.2748 15.0004 14.5261 15.7309 12.8797C 16.4614 11.2332 17 9.72547 17 8.41121C 17 3.77848 13.1816 0 8.5 0ZM 8.5 1.86916C 12.1634 1.86916 15.1111 4.78607 15.1111 8.41121C 15.1111 9.15961 14.7053 10.5761 14.0191 12.1203C 13.3329 13.6646 12.3848 15.3768 11.4514 16.9685C 9.96832 19.502 9.04601 20.8419 8.5 21.6414C 7.95399 20.8419 7.03168 19.502 5.54861 16.9685C 4.61523 15.3768 3.6671 13.6646 2.9809 12.1203C 2.29471 10.5761 1.88889 9.15961 1.88889 8.41121C 1.88889 4.78607 4.83659 1.86916 8.5 1.86916ZM 8.5 6.54206C 7.45595 6.54206 6.61111 7.37807 6.61111 8.41121C 6.61111 9.44436 7.45595 10.2804 8.5 10.2804C 9.54405 10.2804 10.3889 9.44436 10.3889 8.41121C 10.3889 7.37807 9.54405 6.54206 8.5 6.54206Z"/>
</defs>
</svg>
