<svg width="175" height="200" viewBox="0 0 175 200" version="1.1" xmlns="http://www.w3.org/2000/svg" xmlns:xlink="http://www.w3.org/1999/xlink">
<title>icons8-test-tube</title>
<desc>Created using Figma</desc>
<g id="Canvas" transform="translate(-2956 354)">
<g id="icons8-test-tube">
<g id="Group">
<g id="subtracted icon">
<g id="surface1 1">
<g id="Vector">
<use xlink:href="#path0_fill" transform="translate(2956 -354)" fill="#000000" fill-opacity="0.2"/>
</g>
</g>
</g>
<g id="Group">
<g id="IOS copy">
<g id="Vector">
<use xlink:href="#path1_fill" transform="translate(3031 -254)" fill="#000000" fill-opacity="0.2"/>
</g>
</g>
</g>
</g>
</g>
</g>
<defs>
<path id="path0_fill" d="M 87.5 6.25C 87.5 9.69238 84.6924 12.5 81.25 12.5C 77.8076 12.5 75 9.69238 75 6.25C 75 2.80762 77.8076 0 81.25 0C 84.6924 0 87.5 2.80762 87.5 6.25ZM 68.75 25L 112.5 25L 112.5 37.5L 106.25 37.5L 106.25 85.3516L 109.446 89.4719C 105.169 90.5777 101.066 92.128 97.189 94.07L 93.75 89.6484L 93.75 37.5L 56.25 37.5L 56.25 89.6484L 38.4766 112.5L 75.0837 112.5C 72.1809 116.349 69.711 120.54 67.7484 125L 28.7109 125L 15.0391 142.578C 13.3545 144.751 12.5 147.461 12.5 150.195C 12.5 157.104 17.8955 162.5 24.8047 162.5L 63.7643 162.5C 64.6553 166.845 66.0008 171.029 67.7484 175L 24.8047 175C 11.1572 175 -8.45884e-15 163.843 -8.45884e-15 150.195C -8.45884e-15 144.678 1.87988 139.331 5.27344 134.961L 43.75 85.3516L 43.75 37.5L 37.5 37.5L 37.5 25L 56.25 25C 56.25 21.5576 59.0576 18.75 62.5 18.75C 65.9424 18.75 68.75 21.5576 68.75 25L 68.75 25ZM 87.5 68.75C 87.5 72.1924 84.6924 75 81.25 75C 77.8076 75 75 72.1924 75 68.75C 75 65.3076 77.8076 62.5 81.25 62.5C 84.6924 62.5 87.5 65.3076 87.5 68.75Z"/>
<path id="path1_fill" d="M 50 100C 22.5 100 0 77.5 0 50C 0 22.5 22.5 0 50 0C 77.5 0 100 22.5 100 50C 100 77.5 77.5 100 50 100ZM 50 12.5C 29.375 12.5 12.5 29.375 12.5 50C 12.5 70.625 29.375 87.5 50 87.5C 70.625 87.5 87.5 70.625 87.5 50C 87.5 29.375 70.625 12.5 50 12.5ZM 73.125 35.625L 64.375 26.875L 50 41.25L 35.625 26.875L 26.875 35.625L 41.25 50L 26.875 64.375L 35.625 73.125L 50 58.75L 64.375 73.125L 73.125 64.375L 58.75 50L 73.125 35.625Z"/>
</defs>
</svg>
