<svg width="21" height="21" viewBox="0 0 21 21" version="1.1" xmlns="http://www.w3.org/2000/svg" xmlns:xlink="http://www.w3.org/1999/xlink">
<title>icon-radio-checked-disabled</title>
<desc>Created using Figma</desc>
<g id="Canvas" transform="translate(1189 1242)">
<g id="icon-radio-checked-disabled">
<g id="Group">
<g id="Vector">
<use xlink:href="#path0_fill" transform="translate(-1189 -1242)" fill="#CCD2D9"/>
</g>
<g id="Vector">
<use xlink:href="#path1_stroke" transform="translate(-1188.5 -1241.5)" fill="#CCD2D9"/>
</g>
<g id="Group">
<g id="Vector">
<use xlink:href="#path2_fill" transform="translate(-1184 -1236)" fill="#FFFFFF"/>
</g>
</g>
</g>
</g>
</g>
<defs>
<path id="path0_fill" d="M 10.5 21C 16.299 21 21 16.299 21 10.5C 21 4.70101 16.299 0 10.5 0C 4.70101 0 0 4.70101 0 10.5C 0 16.299 4.70101 21 10.5 21Z"/>
<path id="path1_stroke" d="M 19.5 10C 19.5 15.2467 15.2467 19.5 10 19.5L 10 20.5C 15.799 20.5 20.5 15.799 20.5 10L 19.5 10ZM 10 19.5C 4.75329 19.5 0.5 15.2467 0.5 10L -0.5 10C -0.5 15.799 4.20101 20.5 10 20.5L 10 19.5ZM 0.5 10C 0.5 4.75329 4.75329 0.5 10 0.5L 10 -0.5C 4.20101 -0.5 -0.5 4.20101 -0.5 10L 0.5 10ZM 10 0.5C 15.2467 0.5 19.5 4.75329 19.5 10L 20.5 10C 20.5 4.20101 15.799 -0.5 10 -0.5L 10 0.5Z"/>
<path id="path2_fill" d="M 10.915 0L 3.66 7.255L 0.603 4.198L 0 4.801L 3.358 8.16L 3.66 8.448L 3.962 8.16L 11.518 0.603L 10.915 0Z"/>
</defs>
</svg>
