<svg width="200" height="200" viewBox="0 0 200 200" version="1.1" xmlns="http://www.w3.org/2000/svg" xmlns:xlink="http://www.w3.org/1999/xlink">
<title>icon-empty-education</title>
<desc>Created using Figma</desc>
<g id="Canvas" transform="translate(-3582 1272)">
<g id="icon-empty-education">
<g id="Group">
<g id="Group">
<g id="Group">
<g id="Group">
<g id="surface1">
<g id="Vector">
<use xlink:href="#path0_fill" transform="translate(3596 -1272)" fill="#000000" fill-opacity="0.2"/>
</g>
</g>
</g>
<g id="Group">
<g id="IOS copy">
<g id="Vector">
<use xlink:href="#path1_fill" transform="translate(3667.54 -1186.29)" fill="#000000" fill-opacity="0.2"/>
</g>
</g>
</g>
</g>
</g>
</g>
</g>
</g>
<defs>
<path id="path0_fill" d="M 57.2308 142.857L 21.4615 142.857C 17.4095 142.857 14.3077 145.954 14.3077 150C 14.3077 154.046 17.4095 157.143 21.4615 157.143L 58.678 157.143C 59.6978 162.108 61.2379 166.89 63.2381 171.429L 21.4615 171.429C 9.69682 171.429 0 161.747 0 150L 0 21.4286C 0 9.68193 9.69682 0 21.4615 0L 143.077 0L 143.077 72.8736C 138.451 71.9263 133.665 71.4286 128.769 71.4286L 128.769 14.2857L 21.4615 14.2857C 17.4095 14.2857 14.3077 17.3828 14.3077 21.4286L 14.3077 129.911C 16.5712 129.102 18.9465 128.571 21.4615 128.571L 58.678 128.571C 57.7292 133.191 57.2308 137.969 57.2308 142.857L 57.2308 142.857ZM 114.462 35.7143L 114.462 50L 35.7692 50L 35.7692 35.7143L 114.462 35.7143Z"/>
<path id="path1_fill" d="M 57.2308 114.286C 25.7538 114.286 0 88.5714 0 57.1429C 0 25.7143 25.7538 0 57.2308 0C 88.7077 0 114.462 25.7143 114.462 57.1429C 114.462 88.5714 88.7077 114.286 57.2308 114.286ZM 57.2308 14.2857C 33.6231 14.2857 14.3077 33.5714 14.3077 57.1429C 14.3077 80.7143 33.6231 100 57.2308 100C 80.8385 100 100.154 80.7143 100.154 57.1429C 100.154 33.5714 80.8385 14.2857 57.2308 14.2857ZM 83.7 40.7143L 73.6846 30.7143L 57.2308 47.1429L 40.7769 30.7143L 30.7615 40.7143L 47.2154 57.1429L 30.7615 73.5714L 40.7769 83.5714L 57.2308 67.1429L 73.6846 83.5714L 83.7 73.5714L 67.2462 57.1429L 83.7 40.7143Z"/>
</defs>
</svg>
