<svg width="21" height="21" viewBox="0 0 21 21" version="1.1" xmlns="http://www.w3.org/2000/svg" xmlns:xlink="http://www.w3.org/1999/xlink">
<title>icon-JCB</title>
<desc>Created using Figma</desc>
<g id="Canvas" transform="translate(-4546 -1372)">
<g id="icon-JCB">
<g id="icon-JCB">
<g id="surface1">
<g id="Vector">
<use xlink:href="#path0_fill" transform="translate(4546 1375)" fill="#52CACD"/>
</g>
</g>
</g>
</g>
</g>
<defs>
<path id="path0_fill" d="M 2.25 0C 1.0166 0 0 1.0166 0 2.25L 0 12.75C 0 13.9834 1.0166 15 2.25 15L 18.75 15C 19.9834 15 21 13.9834 21 12.75L 21 2.25C 21 1.0166 19.9834 0 18.75 0L 2.25 0ZM 2.25 1.5L 18.75 1.5C 19.1748 1.5 19.5 1.8252 19.5 2.25L 19.5 12.75C 19.5 13.1748 19.1748 13.5 18.75 13.5L 2.25 13.5C 1.8252 13.5 1.5 13.1748 1.5 12.75L 1.5 2.25C 1.5 1.8252 1.8252 1.5 2.25 1.5ZM 4.61719 3.75C 3.69727 3.75 3 4.33301 3 5.34375L 3 11.25L 5.95312 11.25C 6.67383 11.25 7.5 10.5791 7.5 9.70312L 7.5 3.75L 4.61719 3.75ZM 9.86719 3.75C 8.9502 3.75 8.25 4.33594 8.25 5.34375L 8.25 11.2031L 11.2031 11.2031C 11.9209 11.2031 12.75 10.5293 12.75 9.65625L 12.75 3.75L 9.86719 3.75ZM 15.1172 3.75C 14.2002 3.75 13.5 4.33594 13.5 5.34375L 13.5 11.2031L 16.4297 11.2031C 17.1445 11.2031 18 10.5293 18 9.65625L 18 3.75L 15.1172 3.75ZM 10.0312 6L 12.1875 6L 12.1875 6.46875C 11.6719 6.34863 11.168 6.28125 10.9219 6.28125C 10.3828 6.28125 9.96094 6.74414 9.96094 7.3125C 9.96094 7.88086 10.3828 8.32031 10.9219 8.32031C 11.168 8.32031 11.6719 8.27637 12.1875 8.15625L 12.1875 8.60156L 10.0312 8.60156C 9.36035 8.60156 8.78906 8.02148 8.78906 7.3125C 8.78906 6.60352 9.36035 6 10.0312 6ZM 14.1328 6L 16.8984 6C 17.2354 6 17.5078 6.2959 17.5078 6.63281C 17.5078 6.9668 17.2822 7.28906 16.9453 7.28906C 17.3262 7.28906 17.625 7.58789 17.625 7.92188C 17.625 8.25879 17.3262 8.57812 16.9453 8.57812L 14.1328 8.57812L 14.1328 6ZM 5.60156 6.02344L 6.89062 6.02344L 6.89062 7.47656C 6.89062 8.28516 5.85059 8.71875 5.08594 8.71875C 4.25391 8.71875 3.50977 8.22363 3.35156 7.59375L 3.91406 7.59375C 3.98145 7.97754 4.35352 8.25 4.78125 8.25C 5.25293 8.25 5.60156 7.9043 5.60156 7.47656L 5.60156 6.02344ZM 15.1875 6.25781L 15.1875 7.125L 16.0781 7.125C 16.3008 7.125 16.5 6.92578 16.5 6.70312C 16.5 6.48047 16.3008 6.25781 16.0781 6.25781L 15.1875 6.25781ZM 15.1875 7.45312L 15.1875 8.32031L 16.1016 8.32031C 16.3271 8.32031 16.5234 8.12109 16.5234 7.89844C 16.5234 7.67285 16.3271 7.45312 16.1016 7.45312L 15.1875 7.45312Z"/>
</defs>
</svg>
