<svg width="200" height="200" viewBox="0 0 200 200" version="1.1" xmlns="http://www.w3.org/2000/svg" xmlns:xlink="http://www.w3.org/1999/xlink">
<title>icon-not-connected</title>
<desc>Created using Figma</desc>
<g id="Canvas" transform="translate(-3978 1233)">
<g id="icon-not-connected">
<g id="Group">
<g id="Group">
<g id="Group">
<g id="Group">
<g id="surface1">
<g id="Vector">
<use xlink:href="#path0_fill" transform="translate(3978 -1233)" fill="#000000" fill-opacity="0.2"/>
</g>
</g>
</g>
<g id="Group">
<g id="IOS copy">
<g id="Vector">
<use xlink:href="#path1_fill" transform="translate(4055.95 -1155.05)" fill="#000000" fill-opacity="0.2"/>
</g>
</g>
</g>
</g>
</g>
</g>
</g>
</g>
<defs>
<path id="path0_fill" d="M 135.199 62.7867C 135.553 56.5108 133.315 50.1207 128.486 45.292L 110.608 27.4136C 106.109 22.9142 100.238 20.739 94.3981 20.739C 88.5579 20.739 82.6877 22.9142 78.1883 27.4136L 66.031 39.8093L 99.8101 73.5884C 95.3172 76.2966 91.1223 79.4542 87.2888 82.998L 38.1407 33.8498L 49.1061 22.8844L 55.0656 28.8439L 61.9786 21.9309L 67.4613 16.6865C 74.8809 9.26696 84.6246 5.48272 94.3981 5.48272C 104.172 5.48272 113.915 9.26696 121.335 16.6865L 124.672 20.2622L 144.934 0L 155.9 10.9654L 135.638 31.2277L 139.213 34.565C 147.149 42.5004 150.841 53.1117 150.289 63.5368C 146.595 62.9816 142.817 62.6937 138.975 62.6937C 137.709 62.6937 136.45 62.725 135.199 62.7867ZM 63.5368 150.289C 53.1117 150.841 42.5004 147.149 34.565 139.213L 30.9893 135.876L 10.9654 155.9L 0 144.934L 20.0238 124.911L 16.6865 121.335C 1.84746 106.496 1.84746 82.3004 16.6865 67.4613L 21.9309 61.9786L 28.8439 55.0656L 22.8844 49.1061L 33.8498 38.1407L 82.998 87.2888C 79.4543 91.1224 76.2966 95.3172 73.5884 99.8101L 39.8093 66.031L 27.4136 78.1883C 18.4148 87.1872 18.4148 101.609 27.4136 110.608L 45.292 128.486C 50.1207 133.315 56.5109 135.553 62.7867 135.199C 62.7249 136.45 62.6937 137.709 62.6937 138.975C 62.6937 142.817 62.9816 146.595 63.5368 150.289Z"/>
<path id="path1_fill" d="M 61.025 122.05C 27.4613 122.05 0 94.5888 0 61.025C 0 27.4613 27.4613 0 61.025 0C 94.5888 0 122.05 27.4613 122.05 61.025C 122.05 94.5888 94.5888 122.05 61.025 122.05ZM 61.025 15.2563C 35.8522 15.2563 15.2563 35.8522 15.2563 61.025C 15.2563 86.1979 35.8522 106.794 61.025 106.794C 86.1979 106.794 106.794 86.1979 106.794 61.025C 106.794 35.8522 86.1979 15.2563 61.025 15.2563ZM 89.2491 43.4804L 78.5697 32.801L 61.025 50.3457L 43.4804 32.801L 32.801 43.4804L 50.3457 61.025L 32.801 78.5697L 43.4804 89.2491L 61.025 71.7044L 78.5697 89.2491L 89.2491 78.5697L 71.7044 61.025L 89.2491 43.4804Z"/>
</defs>
</svg>
