<svg width="21" height="21" viewBox="0 0 21 21" version="1.1" xmlns="http://www.w3.org/2000/svg" xmlns:xlink="http://www.w3.org/1999/xlink">
<title>icon-Diners-Club</title>
<desc>Created using Figma</desc>
<g id="Canvas" transform="translate(-4629 -1372)">
<g id="icon-Diners-Club">
<g id="icons8-diners-club">
<g id="surface1">
<g id="Vector">
<use xlink:href="#path0_fill" transform="translate(4629 1375)" fill="#52CACD"/>
</g>
</g>
</g>
</g>
</g>
<defs>
<path id="path0_fill" d="M 2.25 0C 1.0166 0 0 1.0166 0 2.25L 0 12.75C 0 13.9834 1.0166 15 2.25 15L 18.75 15C 19.9834 15 21 13.9834 21 12.75L 21 2.25C 21 1.0166 19.9834 0 18.75 0L 2.25 0ZM 2.25 1.5L 18.75 1.5C 19.1748 1.5 19.5 1.8252 19.5 2.25L 19.5 12.75C 19.5 13.1748 19.1748 13.5 18.75 13.5L 2.25 13.5C 1.8252 13.5 1.5 13.1748 1.5 12.75L 1.5 2.25C 1.5 1.8252 1.8252 1.5 2.25 1.5ZM 9.75 3C 7.27441 3 5.25 5.02441 5.25 7.5C 5.25 9.97559 7.27441 12 9.75 12L 11.25 12C 13.7344 12 15.75 9.98438 15.75 7.5C 15.75 5.01562 13.7344 3 11.25 3L 9.75 3ZM 9.75 4.5C 11.417 4.5 12.75 5.83301 12.75 7.5C 12.75 9.16699 11.417 10.5 9.75 10.5C 8.08301 10.5 6.75 9.16699 6.75 7.5C 6.75 5.83301 8.08301 4.5 9.75 4.5ZM 9.14062 5.74219C 8.41113 6 7.875 6.68262 7.875 7.5C 7.875 8.31738 8.41113 9 9.14062 9.25781L 9.14062 5.74219ZM 10.3594 5.74219L 10.3594 9.25781C 11.0889 9 11.625 8.31738 11.625 7.5C 11.625 6.68262 11.0889 6 10.3594 5.74219Z"/>
</defs>
</svg>
