<svg width="200" height="200" viewBox="0 0 200 200" version="1.1" xmlns="http://www.w3.org/2000/svg" xmlns:xlink="http://www.w3.org/1999/xlink">
<title>icon-empty-medication</title>
<desc>Created using Figma</desc>
<g id="Canvas" transform="translate(-1902 1532)">
<g id="icon-empty-medication">
<g id="Group">
<g id="Group">
<g id="Group">
<g id="Group">
<g id="surface1">
<g id="Vector">
<use xlink:href="#path0_fill" transform="translate(1902 -1532)" fill="#000000" fill-opacity="0.2"/>
</g>
</g>
</g>
<g id="Group">
<g id="IOS copy">
<g id="Vector">
<use xlink:href="#path1_fill" transform="translate(1987.66 -1446.29)" fill="#000000" fill-opacity="0.2"/>
</g>
</g>
</g>
</g>
</g>
</g>
</g>
</g>
<defs>
<path id="path0_fill" d="M 152.211 72.0459C 160.529 57.2423 158.37 38.3008 145.732 25.6696C 138.112 18.0524 128.202 14.2857 118.264 14.2857C 108.326 14.2857 98.4158 18.0524 90.7949 25.6696L 63.3261 53.125L 97.7529 87.5349C 93.9939 90.6037 90.5503 94.0456 87.48 97.8028L 53.0533 63.3929L 25.5845 90.8482C 10.3427 106.11 10.3427 130.525 25.5845 145.759C 38.2417 158.387 57.1902 160.547 71.9842 152.24C 72.6382 157.166 73.7995 161.938 75.4134 166.501C 55.7604 175.494 31.668 171.929 15.5349 155.804C -5.17831 135.1 -5.17831 101.283 15.5349 80.5804L 80.522 15.625C 90.8787 5.27343 104.641 0 118.264 0C 131.886 0 145.425 5.27343 155.782 15.625C 171.915 31.7501 175.482 55.8308 166.484 75.4742C 161.917 73.8604 157.141 72.6994 152.211 72.0459L 152.211 72.0459Z"/>
<path id="path1_fill" d="M 57.1708 114.286C 25.7268 114.286 0 88.5714 0 57.1429C 0 25.7143 25.7268 0 57.1708 0C 88.6147 0 114.342 25.7143 114.342 57.1429C 114.342 88.5714 88.6147 114.286 57.1708 114.286ZM 57.1708 14.2857C 33.5878 14.2857 14.2927 33.5714 14.2927 57.1429C 14.2927 80.7143 33.5878 100 57.1708 100C 80.7537 100 100.049 80.7143 100.049 57.1429C 100.049 33.5714 80.7537 14.2857 57.1708 14.2857ZM 83.6123 40.7143L 73.6074 30.7143L 57.1708 47.1429L 40.7342 30.7143L 30.7293 40.7143L 47.1659 57.1429L 30.7293 73.5714L 40.7342 83.5714L 57.1708 67.1429L 73.6074 83.5714L 83.6123 73.5714L 67.1757 57.1429L 83.6123 40.7143Z"/>
</defs>
</svg>
