<svg width="20" height="20" viewBox="0 0 20 20" version="1.1" xmlns="http://www.w3.org/2000/svg" xmlns:xlink="http://www.w3.org/1999/xlink">
<title>icon-download</title>
<desc>Created using Figma</desc>
<g id="Canvas" transform="translate(1137 1339)">
<g id="icon-download">
<g id="icons8-Download from the Cloud">
<g id="surface1">
<g id="Vector">
<use xlink:href="#path0_fill" transform="translate(-1137 -1336)" fill="#FFFFFF"/>
</g>
</g>
</g>
</g>
</g>
<defs>
<path id="path0_fill" d="M 10 0C 7.42676 0 5.40039 1.99112 5.11719 4.53409C 3.99658 4.7255 3.08838 5.50107 2.71484 6.58239C 1.17676 7.0348 0 8.43182 0 10.1818C 0 12.2972 1.67236 14 3.75 14L 16.25 14C 18.3276 14 20 12.2972 20 10.1818C 20 9.06072 19.4653 8.05895 18.6914 7.35795C 18.5474 5.12074 16.7944 3.33842 14.5898 3.22159C 13.8379 1.35724 12.1118 0 10 0ZM 10 1.27273C 11.7261 1.27273 13.1079 2.39879 13.5938 3.99716L 13.7305 4.45455L 14.375 4.45455C 16.0962 4.45455 17.5 5.88388 17.5 7.63636L 17.5 7.95455L 17.7539 8.15341C 18.3447 8.60334 18.75 9.37642 18.75 10.1818C 18.75 11.631 17.6733 12.7273 16.25 12.7273L 3.75 12.7273C 2.32666 12.7273 1.25 11.631 1.25 10.1818C 1.25 8.89666 2.15576 7.89986 3.30078 7.69602L 3.71094 7.61648L 3.78906 7.19886C 3.97705 6.34126 4.72168 5.72727 5.625 5.72727L 6.25 5.72727L 6.25 5.09091C 6.25 2.94567 7.89307 1.27273 10 1.27273ZM 9.375 4.45455L 9.375 8.63068L 7.94922 7.17898L 7.05078 8.09375L 9.55078 10.6392L 10 11.0767L 10.4492 10.6392L 12.9492 8.09375L 12.0508 7.17898L 10.625 8.63068L 10.625 4.45455L 9.375 4.45455Z"/>
</defs>
</svg>
