<svg width="21" height="20" viewBox="0 0 21 20" version="1.1" xmlns="http://www.w3.org/2000/svg" xmlns:xlink="http://www.w3.org/1999/xlink">
<title>icon-statement-history</title>
<desc>Created using Figma</desc>
<g id="Canvas" transform="translate(-2604 140)">
<g id="icon-statement-history">
<g id="Group">
<g id="Group">
<g id="Group">
<g id="Group">
<g id="surface1">
<g id="Vector">
<use xlink:href="#path0_fill" transform="translate(2604 -140)" fill="#52CACD"/>
</g>
</g>
</g>
<g id="Group">
<g id="IOS copy">
<g id="Vector">
<use xlink:href="#path1_fill" transform="translate(2616 -131.852)" fill="#52CACD"/>
</g>
</g>
</g>
</g>
</g>
</g>
</g>
</g>
<defs>
<path id="path0_fill" d="M 11.25 6.66667L 11.25 5.92593L 12.75 5.92593L 12.75 6.66667L 12 6.66667L 11.25 6.66667ZM 11.7572 14.8148L 2.25 14.8148L 2.25 12.5926L 1.5 12.5926L 1.5 17.037L 1.33227e-15 17.037L 1.33227e-15 11.1111L 2.25 11.1111L 2.25 0L 3.28125 0.37037L 5.97656 1.41204L 8.67188 0.162037L 9 0L 9.32812 0.162037L 12.0469 1.41204L 14.7422 0.393519L 15.75 0.0231481L 15.75 6.66667L 14.25 6.66667L 14.25 2.15278L 12.2578 2.91667L 11.9766 3.03241L 11.6719 2.89352L 9 1.66667L 6.32812 2.89352L 6.02344 3.03241L 5.71875 2.91667L 3.75 2.15278L 3.75 13.3333L 11.7572 13.3333C 11.8866 13.5867 12.042 13.8331 12.225 14.0741C 12.042 14.3151 11.8866 14.5615 11.7572 14.8148ZM 5.25 8.88889L 9.75 8.88889L 9.75 10.3704L 5.25 10.3704L 5.25 8.88889ZM 9.75 5.92593L 9.75 7.40741L 5.25 7.40741L 5.25 5.92593L 9.75 5.92593Z"/>
<path id="path1_fill" d="M 8.25 2.96296L 8.25 1.48148L 9 1.48148L 9 0L 8.25 0L 0.75 0L 0 0L 0 1.48148L 0.75 1.48148L 0.75 2.96296C 0.75 4.14815 1.35 5.25926 2.25 5.92593C 1.35 6.59259 0.75 7.7037 0.75 8.88889L 0.75 10.3704L 0 10.3704L 0 11.8519L 0.75 11.8519L 8.25 11.8519L 9 11.8519L 9 10.3704L 8.25 10.3704L 8.25 8.88889C 8.25 7.7037 7.65 6.59259 6.75 5.92593C 7.65 5.25926 8.25 4.14815 8.25 2.96296ZM 6.75 8.88889L 6.75 10.3704L 6 10.3704C 6 9.55556 5.325 8.88889 4.5 8.88889C 3.675 8.88889 3 9.55556 3 10.3704L 2.25 10.3704L 2.25 8.88889C 2.25 7.62963 3.225 6.66667 4.5 6.66667C 5.775 6.66667 6.75 7.62963 6.75 8.88889ZM 6.75 2.96296C 6.75 4.22222 5.775 5.18518 4.5 5.18518C 3.225 5.18518 2.25 4.22222 2.25 2.96296L 2.25 1.48148L 6.75 1.48148L 6.75 2.96296ZM 3 2.96296L 6 2.96296C 6 2.96296 6 4.44444 4.5 4.44444C 3 4.44444 3 2.96296 3 2.96296Z"/>
</defs>
</svg>
