<svg xmlns="http://www.w3.org/2000/svg" xmlns:xlink="http://www.w3.org/1999/xlink" width="20" height="20" viewBox="0 0 20 20">
  <defs>
    <path id="icon-vitals-a" d="M0,0 L0,0.705467372 L0,14.8148148 L0,15.5202822 L0.697167756,15.5202822 L9.10675381,15.5202822 L8.62745098,17.9673721 L8.40958606,19.0035273 L9.4335512,18.7830688 L11.8954248,18.29806 L12.1132898,18.2539683 L12.2657952,18.0996473 L18.9106754,11.3756614 C19.7207557,10.5559372 19.7207557,9.19714921 18.9106754,8.37742504 C18.5056356,7.96756332 17.9653605,7.76014109 17.4291939,7.76014109 C17.1906844,7.76014109 16.9598954,7.81076332 16.7320261,7.89241623 L16.7320261,0.705467372 L16.7320261,0 L16.0348584,0 L0.697167756,0 L0,0 Z M1.39433551,1.41093474 L15.3376906,1.41093474 L15.3376906,2.82186949 L1.39433551,2.82186949 L1.39433551,1.41093474 Z M1.39433551,4.23280423 L15.3376906,4.23280423 L15.3376906,8.99470899 L10.2832244,14.1093474 L1.39433551,14.1093474 L1.39433551,4.23280423 Z M3.48583878,6.34920635 L3.48583878,7.76014109 L4.88017429,7.76014109 L4.88017429,6.34920635 L3.48583878,6.34920635 Z M6.2745098,6.34920635 L6.2745098,7.76014109 L13.2461874,7.76014109 L13.2461874,6.34920635 L6.2745098,6.34920635 Z M3.48583878,9.17107584 L3.48583878,10.5820106 L4.88017429,10.5820106 L4.88017429,9.17107584 L3.48583878,9.17107584 Z M6.2745098,9.17107584 L6.2745098,10.5820106 L10.4575163,10.5820106 L10.4575163,9.17107584 L6.2745098,9.17107584 Z M17.4291939,9.17107584 C17.6055327,9.17107584 17.7915322,9.22908642 17.9302832,9.36948854 C18.2077846,9.65029347 18.2077846,10.0807471 17.9302832,10.361552 L11.416122,16.9532628 L10.1742919,17.2178131 L10.4357298,15.9611993 L16.9498911,9.36948854 C17.0886421,9.22908571 17.2528551,9.17107584 17.4291939,9.17107584 Z"/>
  </defs>
  <g fill="none" fill-rule="evenodd" transform="translate(0 .952)">
    <use fill="#FFF" fill-rule="nonzero" xlink:href="#icon-vitals-a"/>
  </g>
</svg>
