<svg xmlns="http://www.w3.org/2000/svg" width="20" height="20" viewBox="0 0 20 20">
  <path fill="#99C13D" d="M13.8020833,0 C12.212835,5.5e-06 10.6086333,0.615325083 9.40104167,1.82291667 L1.82291667,9.40104167 C-0.59207675,11.816995 -0.592266583,15.7619 1.82291667,18.1770833 C4.23886992,20.5920767 8.183775,20.5922667 10.5989583,18.1770833 L18.1770833,10.5989583 C20.5920767,8.183005 20.5922667,4.23809992 18.1770833,1.82291667 C16.9691067,0.61542 15.3913317,-5.5e-06 13.8020833,0 Z M13.8020833,1.66666667 C14.9613767,1.66667217 16.115685,2.10562167 17.0052083,2.99479167 C18.7833583,4.77294175 18.7835483,7.621995 17.0052083,9.40104167 L13.8020833,12.6041667 L7.39583333,6.19791667 L10.390625,3.203125 L10.5989583,2.99479167 C11.4880333,2.10571658 12.64279,1.66666117 13.8020833,1.66666667 Z M6.19791667,7.39583333 L12.6041667,13.8020833 L9.40104167,17.0052083 C7.62289167,18.7833583 4.77383842,18.7835483 2.99479167,17.0052083 C1.21664158,15.2270583 1.21645175,12.378005 2.99479167,10.5989583 L6.19791667,7.39583333 Z"/>
</svg>
