<svg width="200" height="200" viewBox="0 0 200 200" version="1.1" xmlns="http://www.w3.org/2000/svg" xmlns:xlink="http://www.w3.org/1999/xlink">
<title>icon-empty-blood-sugar</title>
<desc>Created using Figma</desc>
<g id="Canvas" transform="translate(-5390 1233)">
<g id="icon-empty-blood-sugar">
<g id="Group">
<g id="Group">
<g id="Group">
<g id="Group">
<g id="surface1">
<g id="Vector">
<use xlink:href="#path0_fill" transform="translate(5412 -1233)" fill="#000000" fill-opacity="0.2"/>
</g>
</g>
</g>
<g id="Group">
<g id="IOS copy">
<g id="Vector">
<use xlink:href="#path1_fill" transform="translate(5475.81 -1147.29)" fill="#000000" fill-opacity="0.2"/>
</g>
</g>
</g>
</g>
</g>
</g>
</g>
</g>
<defs>
<path id="path0_fill" d="M 50.9846 157.143L 27.462 157.143C 16.1717 157.143 6.69337 148.131 6.05221 136.83L 0.0307149 31.0268C -0.443226 22.2935 4.60263 13.8672 12.7428 10.2679C 22.8622 5.77564 40.3413 0 63.814 0C 87.2867 0 104.766 5.77564 114.885 10.2679C 122.998 13.8951 128.099 22.2656 127.597 31.0268L 125.29 71.5628C 123.84 71.4737 122.378 71.4286 120.907 71.4286C 117.516 71.4286 114.179 71.6684 110.911 72.132L 113.324 30.134C 113.491 27.1485 111.707 24.6094 109.087 23.4376C 100.417 19.5871 84.9729 14.2858 63.814 14.2858C 42.6552 14.2858 27.2111 19.5871 18.5413 23.4376L 18.3182 23.4376C 15.6977 24.6094 14.1366 27.1485 14.3039 30.134L 18.3182 100L 63.9096 100C 60.595 104.399 57.7747 109.189 55.5337 114.286L 18.9873 114.286L 20.3254 136.161C 20.5484 140.011 23.6149 142.857 27.462 142.857L 49.5408 142.857C 49.5408 147.746 50.0381 152.524 50.9846 157.143L 50.9846 157.143ZM 71.5407 91.3943C 69.1387 92.338 66.5316 92.8571 63.814 92.8571C 52.0777 92.8571 42.4042 83.1752 42.4042 71.4286C 42.4042 67.2991 43.7981 64.1462 45.3035 60.7143C 46.8089 57.2824 48.5651 53.8784 50.4329 50.6696C 54.1685 44.2244 58.0155 38.8393 58.0155 38.8393L 63.814 30.3571L 69.6125 38.8393C 69.6125 38.8393 73.4595 44.2244 77.1951 50.6696C 79.0629 53.8784 80.8192 57.2824 82.3245 60.7143C 83.8299 64.1462 85.2238 67.2991 85.2238 71.4286C 85.2238 75.8225 83.8703 79.9275 81.5617 83.3449C 77.9836 85.7275 74.6299 88.424 71.5407 91.3943ZM 49.8976 135.714L 34.3756 135.714L 33.7065 121.429L 52.8414 121.429C 51.3906 126.012 50.3916 130.792 49.8976 135.714ZM 62.9219 57.8125C 61.2214 60.7422 59.4094 63.8672 58.2385 66.5179C 57.0677 69.1685 56.6774 71.6239 56.6774 71.4286C 56.6774 75.4744 59.7718 78.5714 63.814 78.5714C 67.8562 78.5714 70.9506 75.4744 70.9506 71.4286C 70.9506 71.6239 70.5603 69.1685 69.3895 66.5179C 68.2186 63.8672 66.4066 60.7422 64.7061 57.8125C 64.2321 56.9754 64.288 57.0313 63.814 56.25C 63.3401 57.0312 63.3959 56.9754 62.9219 57.8125Z"/>
<path id="path1_fill" d="M 57.0927 114.286C 25.6917 114.286 0 88.5714 0 57.1429C 0 25.7143 25.6917 0 57.0927 0C 88.4937 0 114.185 25.7143 114.185 57.1429C 114.185 88.5714 88.4937 114.286 57.0927 114.286ZM 57.0927 14.2857C 33.542 14.2857 14.2732 33.5714 14.2732 57.1429C 14.2732 80.7143 33.542 100 57.0927 100C 80.6435 100 99.9123 80.7143 99.9123 57.1429C 99.9123 33.5714 80.6435 14.2857 57.0927 14.2857ZM 83.4981 40.7143L 73.5069 30.7143L 57.0927 47.1429L 40.6786 30.7143L 30.6873 40.7143L 47.1015 57.1429L 30.6873 73.5714L 40.6786 83.5714L 57.0927 67.1429L 73.5069 83.5714L 83.4981 73.5714L 67.084 57.1429L 83.4981 40.7143Z"/>
</defs>
</svg>
