<svg width="200" height="200" viewBox="0 0 200 200" version="1.1" xmlns="http://www.w3.org/2000/svg" xmlns:xlink="http://www.w3.org/1999/xlink">
<title>icon-empty-weight</title>
<desc>Created using Figma</desc>
<g id="Canvas" transform="translate(-4254 1233)">
<g id="icon-empty-weight">
<g id="Group">
<g id="Group">
<g id="Group">
<g id="Group">
<g id="surface1">
<g id="Vector">
<use xlink:href="#path0_fill" transform="translate(4254 -1219)" fill="#000000" fill-opacity="0.2"/>
</g>
</g>
</g>
<g id="Group">
<g id="IOS copy">
<g id="Vector">
<use xlink:href="#path1_fill" transform="translate(4339.71 -1147.46)" fill="#000000" fill-opacity="0.2"/>
</g>
</g>
</g>
</g>
</g>
</g>
</g>
</g>
<defs>
<path id="path0_fill" d="M 121.157 60.626L 125.67 52.9832C 119.196 49.4062 105.887 42.9231 85.7143 42.9231C 65.5413 42.9231 52.2321 49.4062 45.7589 52.9832L 60.9375 78.6923L 81.25 78.6923L 93.5268 54.101L 106.473 60.3606L 101.337 70.648C 93.1093 76.5708 86.1755 84.1972 81.0622 93L 53.1249 93L 51.116 89.4231L 29.6874 53.6538L 26.116 47.8413L 31.6964 44.0409C 31.6964 44.0409 54.7711 28.6154 85.7142 28.6154C 116.657 28.6154 139.732 44.0409 139.732 44.0409L 145.312 47.8413L 141.741 53.6538L 139.552 57.307C 133.172 57.6016 127.004 58.745 121.157 60.6261L 121.157 60.626ZM 157.143 58.678L 157.143 14.3077L 14.2857 14.3077L 14.2857 128.769L 71.4286 128.769C 71.4286 133.665 71.9263 138.451 72.8736 143.077L 0 143.077L 0 0L 171.429 0L 171.429 63.2381C 166.89 61.2378 162.108 59.6978 157.143 58.678L 157.143 58.678Z"/>
<path id="path1_fill" d="M 57.1429 114.462C 25.7143 114.462 0 88.7077 0 57.2308C 0 25.7538 25.7143 0 57.1429 0C 88.5714 0 114.286 25.7538 114.286 57.2308C 114.286 88.7077 88.5714 114.462 57.1429 114.462ZM 57.1429 14.3077C 33.5714 14.3077 14.2857 33.6231 14.2857 57.2308C 14.2857 80.8385 33.5714 100.154 57.1429 100.154C 80.7143 100.154 100 80.8385 100 57.2308C 100 33.6231 80.7143 14.3077 57.1429 14.3077ZM 83.5714 40.7769L 73.5714 30.7615L 57.1429 47.2154L 40.7143 30.7615L 30.7143 40.7769L 47.1429 57.2308L 30.7143 73.6846L 40.7143 83.7L 57.1429 67.2462L 73.5714 83.7L 83.5714 73.6846L 67.1429 57.2308L 83.5714 40.7769Z"/>
</defs>
</svg>
