<?xml version="1.0" encoding="utf-8"?>
<!-- Generator: Adobe Illustrator 21.1.0, SVG Export Plug-In . SVG Version: 6.00 Build 0)  -->
<svg version="1.1" id="Layer_1" xmlns="http://www.w3.org/2000/svg" xmlns:xlink="http://www.w3.org/1999/xlink" x="0px" y="0px"
	 viewBox="0 0 20 20" style="enable-background:new 0 0 20 20;" xml:space="preserve">
<style type="text/css">
	.st0{fill:#FFFFFF;}
</style>
<g id="surface1">
	<path class="st0" d="M7.8,0C5,0,2.7,2.3,2.7,5.2C2.7,7,3.6,8.5,5,9.5c-2.6,1.1-4.5,3.8-4.5,6.8H2c0-1.7,0.7-3.2,1.7-4.2l1.8,2.3
		l2.8-1.9l-0.8-1.2l-1.6,1.1l-0.9-1.2c0.9-0.5,1.9-0.8,2.9-0.8c2.8,0,5.1-2.3,5.1-5.2S10.6,0,7.8,0z M7.8,1.5c2,0,3.7,1.6,3.7,3.7
		S9.8,8.9,7.8,8.9S4.2,7.2,4.2,5.2S5.8,1.5,7.8,1.5z M13.7,9.6v1.6c-0.5,0.1-0.9,0.3-1.3,0.5l-1.1-1.1l-1,1l1.1,1.1
		c-0.3,0.4-0.4,0.8-0.5,1.3H9.3v1.5h1.5c0.1,0.5,0.3,0.9,0.5,1.3L10.3,18l1,1l1.1-1.1c0.4,0.3,0.8,0.4,1.3,0.5V20h1.5v-1.6
		c0.5-0.1,0.9-0.3,1.3-0.5l1.1,1.1l1-1l-1.1-1.1c0.3-0.4,0.4-0.8,0.5-1.3h1.5v-1.5H18c-0.1-0.5-0.3-0.9-0.5-1.3l1.1-1.1l-1-1
		l-1.1,1.1c-0.4-0.3-0.8-0.4-1.3-0.5V9.6H13.7z M14.4,12.6c1.2,0,2.2,1,2.2,2.2s-1,2.2-2.2,2.2s-2.2-1-2.2-2.2S13.2,12.6,14.4,12.6z
		 M14.4,14.1c-0.4,0-0.7,0.3-0.7,0.7c0,0.4,0.3,0.7,0.7,0.7c0.4,0,0.7-0.3,0.7-0.7C15.1,14.4,14.8,14.1,14.4,14.1z"/>
</g>
</svg>
