<svg width="45" height="45" viewBox="0 0 45 45" version="1.1" xmlns="http://www.w3.org/2000/svg" xmlns:xlink="http://www.w3.org/1999/xlink">
<title>icon-balance-sm</title>
<desc>Created using Figma</desc>
<g id="Canvas" transform="translate(1673 1681)">
<g id="icon-balance-sm">
<g id="icons8-Scales">
<g id="surface1">
<g id="Vector">
<use xlink:href="#path0_fill" transform="translate(-1673 -1676)" fill="#99C13D"/>
</g>
</g>
</g>
</g>
</g>
<defs>
<path id="path0_fill" d="M 22.5 0C 20.2622 0 18.3556 1.44643 17.6322 3.42857L 5.19231 3.42857L 5.19231 6.85714L 7.6262 6.85714L 7.13942 7.71429L 0.216346 19.7143L 0 20.1429L 0 20.5714C 0 25.2857 3.89423 29.1429 8.65385 29.1429C 13.4135 29.1429 17.3077 25.2857 17.3077 20.5714L 17.3077 20.1429L 17.0913 19.7143L 10.1683 7.71429L 9.68149 6.85714L 17.6322 6.85714C 18.1596 8.30357 19.3089 9.44197 20.7692 9.96429L 20.7692 32.5714L 13.8462 32.5714L 13.8462 36L 31.1538 36L 31.1538 32.5714L 24.2308 32.5714L 24.2308 9.96429C 25.6843 9.44197 26.8404 8.29688 27.3678 6.85714L 35.3185 6.85714L 34.8317 7.71429L 27.9087 19.7143L 27.6923 20.1429L 27.6923 20.5714C 27.6923 25.2857 31.5865 29.1429 36.3462 29.1429C 41.1058 29.1429 45 25.2857 45 20.5714L 45 20.1429L 44.7837 19.7143L 37.8606 7.71429L 37.3738 6.85714L 39.8077 6.85714L 39.8077 3.42857L 27.3678 3.42857C 26.6444 1.44643 24.7378 0 22.5 0ZM 22.5 3.42857C 23.4736 3.42857 24.2308 4.17857 24.2308 5.14286C 24.2308 6.10714 23.4736 6.85714 22.5 6.85714C 21.5264 6.85714 20.7692 6.10714 20.7692 5.14286C 20.7692 4.17857 21.5264 3.42857 22.5 3.42857ZM 8.65385 12.0536L 12.6022 18.8571L 4.70553 18.8571L 8.65385 12.0536ZM 36.3462 12.0536L 40.2945 18.8571L 32.3978 18.8571L 36.3462 12.0536ZM 3.89423 22.2857L 13.4135 22.2857C 12.7171 24.2746 10.912 25.7143 8.65385 25.7143C 6.39573 25.7143 4.5906 24.2746 3.89423 22.2857ZM 31.5865 22.2857L 41.1058 22.2857C 40.4094 24.2746 38.6043 25.7143 36.3462 25.7143C 34.088 25.7143 32.2829 24.2746 31.5865 22.2857Z"/>
</defs>
</svg>
