<svg width="21" height="21" viewBox="0 0 21 21" version="1.1" xmlns="http://www.w3.org/2000/svg" xmlns:xlink="http://www.w3.org/1999/xlink">
<title>icon-Discover</title>
<desc>Created using Figma</desc>
<g id="Canvas" transform="translate(-4518 -1372)">
<g id="icon-Discover">
<g id="icons8-Discover (3)">
<g id="surface1">
<g id="Vector">
<use xlink:href="#path0_fill" transform="translate(4518 1375)" fill="#52CACD"/>
</g>
</g>
</g>
</g>
</g>
<defs>
<path id="path0_fill" d="M 2.25 0C 1.0166 0 0 1.0166 0 2.25L 0 12.75C 0 13.9834 1.0166 15 2.25 15L 18.75 15C 19.9834 15 21 13.9834 21 12.75L 21 2.25C 21 1.0166 19.9834 0 18.75 0L 2.25 0ZM 2.25 1.5L 18.75 1.5C 19.1748 1.5 19.5 1.8252 19.5 2.25L 19.5 12.75C 19.5 13.1748 19.1748 13.5 18.75 13.5L 2.25 13.5C 1.8252 13.5 1.5 13.1748 1.5 12.75L 1.5 2.25C 1.5 1.8252 1.8252 1.5 2.25 1.5ZM 6.32812 6.11719C 5.85938 6.11719 5.50781 6.45703 5.50781 6.89062C 5.50781 7.25391 5.68066 7.43555 6.16406 7.61719C 6.44531 7.72266 6.67969 7.78418 6.67969 8.03906C 6.67969 8.25293 6.5127 8.41406 6.28125 8.41406C 6.03516 8.41406 5.83594 8.29395 5.71875 8.0625L 5.36719 8.36719C 5.60449 8.71582 5.91211 8.88281 6.30469 8.88281C 6.84082 8.88281 7.19531 8.52832 7.19531 8.01562C 7.19531 7.59375 7.03125 7.38574 6.44531 7.17188C 6.13477 7.05762 6.04688 6.9873 6.04688 6.84375C 6.04688 6.67676 6.19922 6.5625 6.42188 6.5625C 6.57715 6.5625 6.70898 6.62402 6.84375 6.77344L 7.125 6.42188C 6.90234 6.22852 6.61816 6.11719 6.32812 6.11719ZM 8.76562 6.11719C 7.9834 6.12012 7.35938 6.72949 7.35938 7.5C 7.35938 8.27637 7.98047 8.88281 8.76562 8.88281C 8.98828 8.88281 9.1875 8.83008 9.42188 8.71875L 9.42188 8.10938C 9.2168 8.31445 9.02344 8.39062 8.78906 8.39062C 8.27051 8.39062 7.89844 8.0127 7.89844 7.47656C 7.89844 6.96973 8.28223 6.58594 8.76562 6.58594C 9.01172 6.58594 9.20801 6.65625 9.42188 6.86719L 9.42188 6.25781C 9.19629 6.14355 8.98828 6.11719 8.76562 6.11719ZM 10.9453 6.11719C 10.1836 6.11719 9.5625 6.73828 9.5625 7.5C 9.5625 8.26172 10.1836 8.88281 10.9453 8.88281C 11.707 8.88281 12.3281 8.26172 12.3281 7.5C 12.3281 6.73828 11.707 6.11719 10.9453 6.11719ZM 2.25 6.16406L 2.25 8.8125L 3 8.8125C 4.15137 8.8125 4.42969 7.91309 4.42969 7.5C 4.42969 6.7207 3.83789 6.16406 3 6.16406L 2.25 6.16406ZM 4.66406 6.16406L 4.66406 8.8125L 5.17969 8.8125L 5.17969 6.16406L 4.66406 6.16406ZM 12.2344 6.16406L 13.3594 8.88281L 13.6406 8.88281L 14.7891 6.16406L 14.2266 6.16406L 13.5 7.94531L 12.7969 6.16406L 12.2344 6.16406ZM 15.0234 6.16406L 15.0234 8.8125L 16.4766 8.8125L 16.4766 8.36719L 15.5391 8.36719L 15.5391 7.64062L 16.4531 7.64062L 16.4531 7.19531L 15.5391 7.19531L 15.5391 6.60938L 16.4766 6.60938L 16.4766 6.16406L 15.0234 6.16406ZM 16.8281 6.16406L 16.8281 8.8125L 17.3438 8.8125L 17.3438 7.75781L 17.3906 7.75781L 18.1172 8.8125L 18.75 8.8125L 17.9062 7.6875C 18.2959 7.6084 18.5156 7.3418 18.5156 6.9375C 18.5156 6.44238 18.1729 6.16406 17.5781 6.16406L 16.8281 6.16406ZM 17.3438 6.58594L 17.4844 6.58594C 17.8066 6.58594 18 6.72656 18 6.98438C 18 7.25098 17.8154 7.38281 17.4844 7.38281L 17.3438 7.38281L 17.3438 6.58594ZM 2.76562 6.60938L 2.92969 6.60938C 3.63281 6.60938 3.89062 7.08398 3.89062 7.5C 3.89062 7.69922 3.83496 8.36719 2.90625 8.36719L 2.76562 8.36719L 2.76562 6.60938Z"/>
</defs>
</svg>
