<svg width="200" height="200" viewBox="0 0 200 200" version="1.1" xmlns="http://www.w3.org/2000/svg" xmlns:xlink="http://www.w3.org/1999/xlink">
<title>icon-empty-annoucement</title>
<desc>Created using Figma</desc>
<g id="Canvas" transform="translate(-2254 1332)">
<g id="icon-empty-annoucement">
<g id="icons8-Advertising">
<g id="surface1">
<g id="Vector">
<use xlink:href="#path0_fill" transform="translate(2254 -1318)" fill="#000000" fill-opacity="0.2"/>
</g>
</g>
</g>
</g>
</g>
<defs>
<path id="path0_fill" d="M 185.714 0L 174.33 8.29726C 174.33 8.29726 160.128 18.8931 139.732 29.3768C 119.336 39.8605 92.7734 50.0078 69.4196 50.0078L 0 50.0078L 0 115.489L 0.223214 116.61L 14.5089 166.842L 16.0714 172L 59.375 172L 56.9196 162.806L 45.3125 121.768L 69.4196 121.768C 92.4665 121.768 119.029 132.111 139.509 142.623C 159.989 153.135 174.33 163.478 174.33 163.478L 185.714 171.776L 185.714 106.07C 193.973 103.071 200 95.1662 200 85.8879C 200 76.6095 193.973 68.7047 185.714 65.7053L 185.714 0ZM 171.429 26.6858L 171.429 144.866C 165.513 140.857 160.826 137.213 145.982 129.617C 125 118.853 97.9074 107.949 71.4286 107.416L 71.4286 64.3598C 98.1585 63.8272 125.279 52.6988 146.205 41.9348C 161.021 34.3103 165.569 30.6943 171.429 26.6858ZM 14.2857 64.3598L 57.1429 64.3598L 57.1429 107.416L 14.2857 107.416L 14.2857 64.3598ZM 16.7411 121.768L 30.3571 121.768L 40.4018 157.648L 26.7857 157.648L 16.7411 121.768Z"/>
</defs>
</svg>
