<svg width="200" height="210" viewBox="0 0 200 210" fill="none" xmlns="http://www.w3.org/2000/svg">
<path d="M80.3 0V14.72H94.9V29.44H80.3V44.16H65.7V29.44H51.1V14.72H65.7V0H80.3ZM36.5 14.72V29.44H14.6V169.28H51.1V147.2H58.7649C58.5236 149.622 58.4 152.077 58.4 154.56C58.4 165.012 60.59 174.973 64.5301 184H0V14.72H36.5ZM131.4 29.44H109.5V14.72H146V82.4489C141.279 81.4728 136.396 80.96 131.4 80.96V29.44ZM51.1 58.88V73.6H36.5V58.88H51.1ZM80.3 58.88V73.6H65.7V58.88H80.3ZM109.5 58.88V73.6H94.9V58.88H109.5ZM51.1 88.32V103.04H36.5V88.32H51.1ZM80.3 88.32V102.124C79.9945 102.427 79.6917 102.732 79.3914 103.04H65.7V88.32H80.3ZM94.9 88.32H99.6738C98.0483 89.1173 96.4562 89.9738 94.9 90.8866V88.32ZM51.1 117.76V132.48H36.5V117.76H51.1ZM65.7 117.76H68.2456C67.3403 119.329 66.4908 120.934 65.7 122.573V117.76Z" transform="translate(14)" fill="black" fill-opacity="0.2"/>
<path d="M52.9231 105.931C23.8154 105.931 0 82.0966 0 52.9655C0 23.8345 23.8154 0 52.9231 0C82.0308 0 105.846 23.8345 105.846 52.9655C105.846 82.0966 82.0308 105.931 52.9231 105.931ZM52.9231 13.2414C31.0923 13.2414 13.2308 31.1172 13.2308 52.9655C13.2308 74.8138 31.0923 92.6897 52.9231 92.6897C74.7538 92.6897 92.6154 74.8138 92.6154 52.9655C92.6154 31.1172 74.7538 13.2414 52.9231 13.2414ZM77.4 37.7379L68.1385 28.469L52.9231 43.6966L37.7077 28.469L28.4462 37.7379L43.6615 52.9655L28.4462 68.1931L37.7077 77.4621L52.9231 62.2345L68.1385 77.4621L77.4 68.1931L62.1846 52.9655L77.4 37.7379Z" transform="translate(94.1538 104.069)" fill="black" fill-opacity="0.2"/>
</svg>
