<svg width="200" height="200" viewBox="0 0 200 200" version="1.1" xmlns="http://www.w3.org/2000/svg" xmlns:xlink="http://www.w3.org/1999/xlink">
<title>icon-empty-condition</title>
<desc>Created using Figma</desc>
<g id="Canvas" transform="translate(-1989 1294)">
<g id="icon-empty-condition">
<g id="surface1">
<g id="Vector">
<use xlink:href="#path0_fill" transform="translate(1989 -1294)" fill="#000000" fill-opacity="0.2"/>
</g>
</g>
</g>
</g>
<defs>
<path id="path0_fill" d="M 100 0C 63.8997 0 40.918 7.97526 26.8229 19.7917C 13.2161 31.1849 8.65886 45.7682 8.33333 57.0313C 7.03125 61.0677 0 84.1471 0 117.448C 0 154.004 8.59375 193.49 8.59375 193.49L 9.89583 200L 190.104 200L 191.406 193.49C 191.406 193.49 200 153.809 200 117.448C 200 84.3424 192.969 61.2956 191.667 57.2917C 191.406 45.8984 186.882 31.2174 173.177 19.7917C 159.049 8.00782 136.068 0 100 0ZM 100 16.6667C 133.626 16.6667 152.376 24.1211 162.5 32.5521C 169.173 38.1185 172.201 44.3034 173.698 50L 26.3021 50C 27.7669 44.3034 30.8268 38.151 37.5 32.5521C 47.6237 24.056 66.3737 16.6667 100 16.6667ZM 23.1771 66.6667L 177.083 66.6667C 179.004 73.1771 183.333 89.9414 183.333 117.448C 183.333 146.484 177.995 174.805 176.302 183.333L 23.6979 183.333C 22.0052 174.837 16.6667 146.647 16.6667 117.448C 16.6667 89.5508 21.2891 72.9492 23.1771 66.6667ZM 100 75C 72.4935 75 50 97.4935 50 125C 50 152.507 72.4935 175 100 175C 127.507 175 150 152.507 150 125C 150 97.4935 127.507 75 100 75ZM 100 91.6667C 118.522 91.6667 133.333 106.478 133.333 125C 133.333 143.522 118.522 158.333 100 158.333C 81.4779 158.333 66.6667 143.522 66.6667 125C 66.6667 106.478 81.4779 91.6667 100 91.6667ZM 91.6667 100L 91.6667 116.667L 75 116.667L 75 133.333L 91.6667 133.333L 91.6667 150L 108.333 150L 108.333 133.333L 125 133.333L 125 116.667L 108.333 116.667L 108.333 100L 91.6667 100Z"/>
</defs>
</svg>
