<svg width="200" height="200" viewBox="0 0 200 200" version="1.1" xmlns="http://www.w3.org/2000/svg" xmlns:xlink="http://www.w3.org/1999/xlink">
<title>icon-empty-height</title>
<desc>Created using Figma</desc>
<g id="Canvas" transform="translate(-5098 1233)">
<g id="icon-empty-height">
<g id="Group">
<g id="Group">
<g id="Group">
<g id="Group">
<g id="surface1">
<g id="Vector">
<use xlink:href="#path0_fill" transform="translate(5127 -1233)" fill="#000000" fill-opacity="0.2"/>
</g>
</g>
</g>
<g id="Group">
<g id="IOS copy">
<g id="Vector">
<use xlink:href="#path1_fill" transform="translate(5184 -1147.29)" fill="#000000" fill-opacity="0.2"/>
</g>
</g>
</g>
</g>
</g>
</g>
</g>
</g>
<defs>
<path id="path0_fill" d="M 43.57 132.048L 35.625 121.429L 46.0452 121.429C 44.959 124.866 44.1266 128.413 43.57 132.048ZM 49.875 111.814L 49.875 50L 35.625 50L 57 21.4286L 78.375 50L 64.125 50L 64.125 91.9681C 58.3156 97.6919 53.4734 104.4 49.875 111.814ZM 48.7331 171.429L 0 171.429L 0 157.143L 44.1914 157.143C 45.2071 162.108 46.7409 166.89 48.7331 171.429ZM 114 0L 114 14.2857L 0 14.2857L 0 0L 114 0ZM 114 28.5714C 114 32.5056 110.799 35.7143 106.875 35.7143C 102.951 35.7143 99.75 32.5056 99.75 28.5714C 99.75 24.6373 102.951 21.4286 106.875 21.4286C 110.799 21.4286 114 24.6373 114 28.5714ZM 14.25 57.1429C 14.25 61.077 11.0493 64.2857 7.125 64.2857C 3.20069 64.2857 0 61.077 0 57.1429C 0 53.2087 3.20069 50 7.125 50C 11.0493 50 14.25 53.2087 14.25 57.1429ZM 114 57.1429C 114 61.077 110.799 64.2857 106.875 64.2857C 102.951 64.2857 99.75 61.077 99.75 57.1429C 99.75 53.2087 102.951 50 106.875 50C 110.799 50 114 53.2087 114 57.1429ZM 14.25 28.5714C 14.25 32.5056 11.0493 35.7143 7.125 35.7143C 3.20069 35.7143 0 32.5056 0 28.5714C 0 24.6373 3.20069 21.4286 7.125 21.4286C 11.0493 21.4286 14.25 24.6373 14.25 28.5714ZM 14.25 114.286C 14.25 118.22 11.0493 121.429 7.125 121.429C 3.20069 121.429 0 118.22 0 114.286C 0 110.352 3.20069 107.143 7.125 107.143C 11.0493 107.143 14.25 110.352 14.25 114.286ZM 14.25 142.857C 14.25 146.791 11.0493 150 7.125 150C 3.20069 150 0 146.791 0 142.857C 0 138.923 3.20069 135.714 7.125 135.714C 11.0493 135.714 14.25 138.923 14.25 142.857ZM 14.25 85.7143C 14.25 89.6484 11.0493 92.8571 7.125 92.8571C 3.20069 92.8571 0 89.6484 0 85.7143C 0 81.7801 3.20069 78.5714 7.125 78.5714C 11.0493 78.5714 14.25 81.7801 14.25 85.7143Z"/>
<path id="path1_fill" d="M 57 114.286C 25.65 114.286 0 88.5714 0 57.1429C 0 25.7143 25.65 0 57 0C 88.35 0 114 25.7143 114 57.1429C 114 88.5714 88.35 114.286 57 114.286ZM 57 14.2857C 33.4875 14.2857 14.25 33.5714 14.25 57.1429C 14.25 80.7143 33.4875 100 57 100C 80.5125 100 99.75 80.7143 99.75 57.1429C 99.75 33.5714 80.5125 14.2857 57 14.2857ZM 83.3625 40.7143L 73.3875 30.7143L 57 47.1429L 40.6125 30.7143L 30.6375 40.7143L 47.025 57.1429L 30.6375 73.5714L 40.6125 83.5714L 57 67.1429L 73.3875 83.5714L 83.3625 73.5714L 66.975 57.1429L 83.3625 40.7143Z"/>
</defs>
</svg>
