<svg width="180" height="21" viewBox="0 0 180 21" version="1.1" xmlns="http://www.w3.org/2000/svg" xmlns:xlink="http://www.w3.org/1999/xlink">
<title>neurocore-logo</title>
<desc>Created using Figma</desc>
<g id="Canvas" transform="translate(-795 1662)">
<rect x="795" y="-1662" width="180" height="21" fill="#E5E5E5"/>
<clipPath id="clip-0" clip-rule="evenodd">
<path d="M 760 -1682L 2200 -1682L 2200 -658L 760 -658L 760 -1682Z" fill="#FFFFFF"/>
</clipPath>
<g id="02A. Appointments - Schedule an Appointment" clip-path="url(#clip-0)">
<path d="M 760 -1682L 2200 -1682L 2200 -658L 760 -658L 760 -1682Z" fill="#EBF1F8"/>
<g id="sidebar">
<g id="sidebar">
<g id="sidebar-bg">
<use xlink:href="#path0_fill" transform="translate(760 -1682)" fill="#E64A35"/>
</g>
<g id="neurocore-logo">
<g id="Group">
<g id="Vector">
<use xlink:href="#path1_fill" transform="translate(816.922 -1661.95)" fill="#FFFFFF"/>
</g>
<g id="Vector">
<use xlink:href="#path2_fill" transform="translate(955.925 -1661.99)" fill="#FFFFFF"/>
</g>
<g id="Vector">
<use xlink:href="#path3_fill" transform="translate(874.469 -1661.92)" fill="#FFFFFF"/>
</g>
<g id="Vector">
<use xlink:href="#path4_fill" transform="translate(919.935 -1661.95)" fill="#FFFFFF"/>
</g>
<g id="Vector">
<use xlink:href="#path5_fill" transform="translate(795 -1662)" fill="#FFFFFF"/>
</g>
<g id="Vector">
<use xlink:href="#path6_fill" transform="translate(840.383 -1661.32)" fill="#FFFFFF"/>
</g>
<g id="Vector">
<use xlink:href="#path7_fill" transform="translate(898.938 -1661.95)" fill="#FFFFFF"/>
</g>
<g id="Vector">
<use xlink:href="#path8_fill" transform="translate(862.779 -1661.95)" fill="#FFFFFF"/>
</g>
<g id="Vector">
<use xlink:href="#path9_fill" transform="translate(944.445 -1662)" fill="#FFFFFF"/>
</g>
</g>
</g>
</g>
</g>
</g>
</g>
<defs>
<path id="path0_fill" d="M 0 0L 250 0L 250 1024L 0 1024L 0 0Z"/>
<path id="path1_fill" d="M 19.2308 11.0866C 16.386 11.0866 13.793 11.0866 11.2 11.0866C 8.65727 11.0866 6.11458 11.0866 3.59707 11.0866C 3.04322 13.3385 4.65442 16.1408 7.09641 17.3418C 10.3188 18.9182 13.0629 17.9424 16.3357 13.939C 17.1916 14.4144 18.0476 14.9148 18.9791 15.4403C 16.9902 18.9682 14.0699 20.8198 10.0922 20.8948C 6.03906 20.9699 2.89217 19.3435 1.15508 15.6154C -0.430949 12.2626 -0.330248 8.78467 1.12991 5.43186C 2.91734 1.32842 6.61808 -0.523137 11.4265 0.127408C 15.3287 0.652849 18.3497 3.8055 18.9791 8.05906C 19.1049 9.00986 19.1301 9.96065 19.2308 11.0866ZM 3.69777 8.30927C 7.67544 8.30927 11.6531 8.30927 15.6559 8.30927C 15.3287 5.10659 12.3832 2.70457 9.26147 2.95478C 6.39151 3.17997 3.62224 5.8322 3.69777 8.30927Z"/>
<path id="path2_fill" d="M 18.9928 11.1252C 16.2738 11.1252 13.6808 11.1252 11.0878 11.1252C 8.5451 11.1252 6.00241 11.1252 3.4849 11.1252C 3.05692 13.6523 4.76883 16.4046 7.31152 17.5056C 10.5591 18.9067 13.2528 17.8559 16.2235 13.9776C 17.0543 14.453 17.9102 14.9284 18.8921 15.4789C 17.1298 18.7066 14.5116 20.5081 10.9116 20.9084C 5.0961 21.534 0.539414 17.7808 0.0610866 11.9759C -0.190665 8.79828 0.287659 5.77074 2.40237 3.26864C 5.12128 0.0659549 8.67097 -0.609621 12.5479 0.491302C 16.5256 1.61725 18.313 4.6448 18.9424 8.52305C 19.0431 9.14857 19.0431 9.7741 19.0683 10.3996C 19.0935 10.5748 19.0431 10.7749 18.9928 11.1252ZM 15.5689 8.37291C 15.4179 5.39542 12.5983 2.91834 9.55209 2.96839C 6.55625 3.01843 3.63595 5.64563 3.61077 8.37291C 7.58844 8.37291 11.5661 8.37291 15.5689 8.37291Z"/>
<path id="path3_fill" d="M 20.996 10.5339C 20.996 16.3388 16.3638 20.8926 10.498 20.9176C 4.63222 20.9176 1.53657e-06 16.3138 1.53657e-06 10.5339C 1.53657e-06 4.654 4.65739 -0.0249139 10.498 0.000107065C 16.389 -0.0249139 20.996 4.60396 20.996 10.5339ZM 3.24759 10.3338C 3.19724 14.6874 6.31895 17.9652 10.498 17.9652C 14.6016 17.9652 17.7988 14.7124 17.7988 10.4839C 17.824 6.25534 14.6519 2.95258 10.5735 2.90254C 6.49518 2.85249 3.27276 6.10522 3.24759 10.3338Z"/>
<path id="path4_fill" d="M 3.07313e-06 10.5339C 3.07313e-06 4.60397 4.60704 -0.0249231 10.4728 9.7902e-05C 16.3638 0.0251189 20.9457 4.67903 20.9457 10.559C 20.9457 16.3888 16.3386 20.9177 10.4477 20.9177C 4.5567 20.9177 3.07313e-06 16.3889 3.07313e-06 10.5339ZM 17.6981 10.4339C 17.6981 6.18028 14.5512 2.92756 10.4477 2.92756C 6.36931 2.92756 3.17207 6.23033 3.14689 10.4339C 3.12172 14.7124 6.36931 18.0402 10.498 17.9902C 14.6519 17.9401 17.7233 14.7124 17.6981 10.4339Z"/>
<path id="path5_fill" d="M 3.1885 20.3681C 2.05562 20.3681 1.09897 20.3681 0.0164409 20.3681C 0.0164409 19.3173 0.0164409 18.3164 0.0164409 17.3406C 0.0164409 14.3881 -0.0339092 11.4357 0.0416161 8.45816C 0.142317 4.37974 2.20668 1.50232 5.68084 0.476456C 9.88508 -0.749573 14.3159 0.451429 16.3803 3.37888C 17.4628 4.93019 17.8908 6.73171 17.9159 8.58326C 17.9663 12.3364 17.9411 16.0895 17.9159 19.8177C 17.9159 19.9678 17.8656 20.143 17.8152 20.3431C 16.8082 20.3431 15.8264 20.3431 14.7187 20.3431C 14.7187 16.7901 14.7439 13.3122 14.7187 9.80928C 14.7187 8.98359 14.6684 8.13288 14.4921 7.33221C 13.8628 4.40476 11.8739 2.9035 8.80255 2.95354C 5.85707 3.00358 3.91858 4.60491 3.38991 7.50735C 3.21368 8.48317 3.1885 9.48401 3.1885 10.4849C 3.16333 13.7626 3.1885 17.0153 3.1885 20.3681Z"/>
<path id="path6_fill" d="M 14.7011 -3.05432e-06C 15.834 -3.05432e-06 16.7906 -3.05432e-06 17.848 -3.05432e-06C 17.8731 0.375312 17.9235 0.750633 17.9235 1.10093C 17.9235 4.42872 17.9235 7.78153 17.9235 11.1093C 17.9235 17.5147 13.7948 21.0677 7.37513 20.1919C 2.91913 19.5914 0.225396 16.8391 0.0743452 12.3604C -0.0767054 8.28195 0.0491686 4.20353 0.0491686 0.0250271C 1.08135 0.0250271 2.06318 0.0250271 3.17088 0.0250271C 3.17088 3.22771 3.14571 6.38036 3.17088 9.533C 3.17088 10.5839 3.19606 11.6348 3.34711 12.6356C 3.77509 15.5881 5.7891 17.2645 8.78493 17.3145C 11.9066 17.3646 13.971 15.7882 14.5249 12.8358C 14.6759 11.985 14.7011 11.0843 14.7011 10.2336C 14.7011 6.90579 14.7011 3.52796 14.7011 -3.05432e-06Z"/>
<path id="path7_fill" d="M 18.5807 3.95543C 17.7499 4.45585 16.9443 4.93126 16.038 5.48172C 14.2254 3.58013 12.0603 2.62932 9.41696 3.00464C 7.6547 3.25485 6.16937 4.08054 5.01132 5.43168C 2.51898 8.35913 2.64485 12.963 5.21272 15.7653C 7.2519 17.9922 11.7079 19.3183 15.61 15.9655C 16.4408 16.4409 17.2968 16.9413 18.1527 17.4167C 16.2898 20.144 11.5317 21.7453 7.37778 20.4693C 3.04766 19.1682 0.0518151 15.2149 0.00146487 10.6611C -0.0740605 6.03219 2.77073 1.97879 7.1512 0.527569C 11.3303 -0.848585 16.0632 0.527557 18.5807 3.95543Z"/>
<path id="path8_fill" d="M 10.5823 2.93107C 10.0788 2.93107 9.67596 2.93107 9.24798 2.93107C 5.79899 2.88103 3.58358 4.65752 3.357 8.06037C 3.13043 11.5383 3.2563 15.0412 3.23113 18.5442C 3.23113 19.1197 3.23113 19.6951 3.23113 20.3207C 2.1486 20.3207 1.19195 20.3207 0.260468 20.3207C 0.210118 20.2456 0.109416 20.1705 0.109416 20.0955C 0.109416 15.8919 -0.167515 11.6634 0.159761 7.48489C 0.638088 1.40479 5.37102 -0.246589 9.82701 0.0286414C 10.0788 0.0536624 10.4816 0.479019 10.5319 0.779271C 10.6578 1.47986 10.5823 2.18044 10.5823 2.93107Z"/>
<path id="path9_fill" d="M 10.5344 0.276067C 10.5344 1.20184 10.5344 2.07757 10.5344 2.97833C 10.1064 2.97833 9.70361 2.97833 9.3008 2.97833C 5.62524 2.87825 3.3343 5.05507 3.25878 8.80822C 3.18325 12.1861 3.23361 15.5639 3.23361 18.9417C 3.23361 19.3921 3.23361 19.8425 3.23361 20.3429C 2.1259 20.3429 1.14406 20.3429 0.0111828 20.3429C 0.0111828 18.8416 -0.0139923 17.3904 0.0111828 15.9392C 0.061533 12.9117 -0.114693 9.83409 0.262934 6.83157C 0.892312 2.02754 5.65042 -0.949962 10.5344 0.276067Z"/>
</defs>
</svg>
