<svg width="20" height="20" viewBox="0 0 20 20" version="1.1" xmlns="http://www.w3.org/2000/svg" xmlns:xlink="http://www.w3.org/1999/xlink">
<title>icon-sync</title>
<desc>Created using Figma</desc>
<g id="Canvas" transform="translate(1232 1353)">
<g id="icon-sync">
<g id="icon-sync">
<g id="Group">
<g id="Vector">
<use xlink:href="#path0_fill" transform="translate(-1229 -1353)" fill="#E64A35"/>
</g>
</g>
</g>
</g>
</g>
<defs>
<path id="path0_fill" d="M 6.65 0L 5.66563 1.01124L 7.41562 2.83146C 7.27591 2.82352 7.14246 2.80899 7 2.80899C 3.15 2.80899 0 6.04494 0 10C 0 11.0787 0.214375 12.0809 0.634375 12.9438L 1.68438 11.8652C 1.54438 11.2899 1.4 10.6472 1.4 10C 1.4 6.83596 3.92 4.24719 7 4.24719C 7.12178 4.24719 7.2506 4.25995 7.37188 4.26966L 5.66563 6.04494L 6.65 7.05618L 9.60313 4.04494L 10.0844 3.52809L 9.60313 3.01124L 6.65 0ZM 13.3656 7.05618L 12.3156 8.13483C 12.5256 8.71011 12.6 9.35281 12.6 10C 12.6 13.164 10.08 15.7528 7 15.7528C 6.87822 15.7528 6.7494 15.74 6.62812 15.7303L 8.33437 13.9551L 7.35 12.9438L 4.39688 15.9551L 3.91563 16.4719L 4.39688 16.9888L 7.35 20L 8.33437 18.9888L 6.58438 17.1685C 6.72105 17.177 6.86314 17.191 7 17.191C 10.85 17.191 14 13.9551 14 10C 14 8.92135 13.7856 7.9191 13.3656 7.05618Z"/>
</defs>
</svg>
